<?xml version="1.0" encoding="UTF-8" standalone="no"?>
<!DOCTYPE svg PUBLIC "-//W3C//DTD SVG 1.1//EN" "http://www.w3.org/Graphics/SVG/1.1/DTD/svg11.dtd">
<!-- Создано Microsoft Visio, экспорт SVG Calendar - Календарь 1.svg Страница-1 -->
<svg xmlns="http://www.w3.org/2000/svg" xmlns:xlink="http://www.w3.org/1999/xlink" xmlns:ev="http://www.w3.org/2001/xml-events"
		xmlns:v="http://schemas.microsoft.com/visio/2003/SVGExtensions/" width="0.442034in" height="0.499761in"
		viewBox="0 0 31.8264 35.9828" xml:space="preserve" color-interpolation-filters="sRGB" class="st2">
	<v:documentProperties v:langID="1049" v:metric="true" v:viewMarkup="false"/>

	<style type="text/css">
	<![CDATA[
		.st1 {fill:#000000;stroke:none;stroke-linecap:butt;stroke-width:1.36607}
		.st2 {fill:none;fill-rule:evenodd;font-size:12px;overflow:visible;stroke-linecap:square;stroke-miterlimit:3}
	]]>
	</style>

	<g v:mID="0" v:index="1" v:groupContext="foregroundPage">
		<title>Страница-1</title>
		<v:pageProperties v:drawingScale="0.0393701" v:pageScale="0.0393701" v:drawingUnits="24" v:shadowOffsetX="9"
				v:shadowOffsetY="-9"/>
		<g id="shape824-1" v:mID="824" v:groupContext="shape" transform="translate(1.36607,-1.36607)">
			<title>Лист.824</title>
			<path d="M25.98 6.89 L22.86 6.89 L22.86 3.51 C22.86 3.08 22.51 2.73 22.08 2.73 L21.56 2.73 C21.13 2.73 20.78 3.08 20.78
						 3.51 L20.78 6.89 L8.31 6.89 L8.31 3.51 C8.31 3.08 7.96 2.73 7.53 2.73 L7.01 2.73 C6.59 2.73 6.23 3.08 6.23
						 3.51 L6.23 6.89 L3.12 6.89 C1.4 6.89 0 8.28 0 10.01 L0 32.87 C0 34.59 1.4 35.98 3.12 35.98 L25.98 35.98
						 C27.7 35.98 29.09 34.59 29.09 32.87 L29.09 10.01 C29.09 8.28 27.7 6.89 25.98 6.89 ZM3.12 8.97 L25.98 8.97
						 C26.55 8.97 27.02 9.43 27.02 10.01 L27.02 13.12 L2.08 13.12 L2.08 10.01 C2.08 9.43 2.55 8.97 3.12 8.97 ZM25.98
						 33.9 L3.12 33.9 C2.55 33.9 2.08 33.44 2.08 32.87 L2.08 15.2 L27.02 15.2 L27.02 32.87 C27.02 33.44 26.55
						 33.9 25.98 33.9 ZM9.61 23.51 L7.01 23.51 C6.59 23.51 6.23 23.16 6.23 22.73 L6.23 20.14 C6.23 19.71 6.59
						 19.36 7.01 19.36 L9.61 19.36 C10.04 19.36 10.39 19.71 10.39 20.14 L10.39 22.73 C10.39 23.16 10.04 23.51
						 9.61 23.51 ZM15.85 23.51 L13.25 23.51 C12.82 23.51 12.47 23.16 12.47 22.73 L12.47 20.14 C12.47 19.71 12.82
						 19.36 13.25 19.36 L15.85 19.36 C16.27 19.36 16.63 19.71 16.63 20.14 L16.63 22.73 C16.63 23.16 16.27 23.51
						 15.85 23.51 ZM22.08 23.51 L19.48 23.51 C19.05 23.51 18.7 23.16 18.7 22.73 L18.7 20.14 C18.7 19.71 19.05
						 19.36 19.48 19.36 L22.08 19.36 C22.51 19.36 22.86 19.71 22.86 20.14 L22.86 22.73 C22.86 23.16 22.51 23.51
						 22.08 23.51 ZM15.85 29.75 L13.25 29.75 C12.82 29.75 12.47 29.4 12.47 28.97 L12.47 26.37 C12.47 25.94 12.82
						 25.59 13.25 25.59 L15.85 25.59 C16.27 25.59 16.63 25.94 16.63 26.37 L16.63 28.97 C16.63 29.4 16.27 29.75
						 15.85 29.75 ZM9.61 29.75 L7.01 29.75 C6.59 29.75 6.23 29.4 6.23 28.97 L6.23 26.37 C6.23 25.94 6.59 25.59
						 7.01 25.59 L9.61 25.59 C10.04 25.59 10.39 25.94 10.39 26.37 L10.39 28.97 C10.39 29.4 10.04 29.75 9.61 29.75
						 ZM22.08 29.75 L19.48 29.75 C19.05 29.75 18.7 29.4 18.7 28.97 L18.7 26.37 C18.7 25.94 19.05 25.59 19.48 25.59
						 L22.08 25.59 C22.51 25.59 22.86 25.94 22.86 26.37 L22.86 28.97 C22.86 29.4 22.51 29.75 22.08 29.75 Z"
					class="st1"/>
		</g>
	</g>
</svg>
