<?xml version="1.0" encoding="UTF-8" standalone="no"?>
<!DOCTYPE svg PUBLIC "-//W3C//DTD SVG 1.1//EN" "http://www.w3.org/Graphics/SVG/1.1/DTD/svg11.dtd">
<!-- Создано Microsoft Visio, экспорт SVG Check - Подтвердить - Верифицировать.svg Страница-1 -->
<svg xmlns="http://www.w3.org/2000/svg" xmlns:xlink="http://www.w3.org/1999/xlink" xmlns:ev="http://www.w3.org/2001/xml-events"
		xmlns:v="http://schemas.microsoft.com/visio/2003/SVGExtensions/" width="0.352575in" height="0.274861in"
		viewBox="0 0 25.3854 19.79" xml:space="preserve" color-interpolation-filters="sRGB" class="st3">
	<v:documentProperties v:langID="1049" v:metric="true" v:viewMarkup="false"/>

	<style type="text/css">
	<![CDATA[
		.st1 {fill:#ffffff;stroke:#000000;stroke-linecap:round;stroke-linejoin:round;stroke-width:1.5}
		.st2 {fill:#000000;stroke:#ffffff;stroke-linecap:round;stroke-linejoin:round;stroke-width:1.5}
		.st3 {fill:none;fill-rule:evenodd;font-size:12px;overflow:visible;stroke-linecap:square;stroke-miterlimit:3}
	]]>
	</style>

	<g v:mID="0" v:index="1" v:groupContext="foregroundPage">
		<title>Страница-1</title>
		<v:pageProperties v:drawingScale="0.0393701" v:pageScale="0.0393701" v:drawingUnits="24" v:shadowOffsetX="9"
				v:shadowOffsetY="-9"/>
		<g id="group785-1" transform="translate(0.75,-0.75)" v:mID="785" v:groupContext="group">
			<title>Лист.785</title>
			<g id="shape786-2" v:mID="786" v:groupContext="shape">
				<title>Лист.786</title>
				<rect x="0" y="1.5" width="18.343" height="18.29" rx="1.41732" ry="1.41732" class="st1"/>
			</g>
			<g id="group787-4" transform="translate(4.44855,-2.07648)" v:mID="787" v:groupContext="group">
				<title>Лист.787</title>
				<g id="shape788-5" v:mID="788" v:groupContext="shape">
					<title>Лист.788</title>
					<path d="M0.34 12.91 L1.85 11.27 A1.41822 1.41822 0 0 1 3.68 11.21 A78.6129 78.6129 0 0 1 5.95 13.61 L15.44 4.11
								 A1.44345 1.44345 0 0 1 17.33 3.8 L18.85 5.32 A1.17528 1.17528 0 0 1 18.85 7.36 L7.09 19.28 A1.61806
								 1.61806 0 0 1 4.74 19.28 L0.34 14.73 A1.39862 1.39862 0 0 1 0.34 12.91 Z" class="st2"/>
				</g>
			</g>
		</g>
	</g>
</svg>
