<?xml version="1.0" encoding="UTF-8" standalone="no"?>
<!DOCTYPE svg PUBLIC "-//W3C//DTD SVG 1.1//EN" "http://www.w3.org/Graphics/SVG/1.1/DTD/svg11.dtd">
<!-- Создано Microsoft Visio, экспорт SVG File-check.svg Страница-1 -->
<svg xmlns="http://www.w3.org/2000/svg" xmlns:xlink="http://www.w3.org/1999/xlink" xmlns:ev="http://www.w3.org/2001/xml-events"
		xmlns:v="http://schemas.microsoft.com/visio/2003/SVGExtensions/" width="0.265517in" height="0.339758in"
		viewBox="0 0 19.1172 24.4626" xml:space="preserve" color-interpolation-filters="sRGB" class="st2">
	<v:documentProperties v:langID="1049" v:metric="true" v:viewMarkup="false"/>

	<style type="text/css">
	<![CDATA[
		.st1 {fill:#000000;stroke:none;stroke-linecap:butt;stroke-width:1.54688}
		.st2 {fill:none;fill-rule:evenodd;font-size:12px;overflow:visible;stroke-linecap:square;stroke-miterlimit:3}
	]]>
	</style>

	<g v:mID="0" v:index="1" v:groupContext="foregroundPage">
		<title>Страница-1</title>
		<v:pageProperties v:drawingScale="0.0393701" v:pageScale="0.0393701" v:drawingUnits="24" v:shadowOffsetX="8.50394"
				v:shadowOffsetY="-8.50394"/>
		<g id="shape496-1" v:mID="496" v:groupContext="shape" transform="translate(1.54687,-1.54687)">
			<title>Лист.496</title>
			<path d="M15.44 7.18 L11.93 3.68 C11.56 3.31 11.05 3.09 10.52 3.09 L2 3.09 C0.9 3.1 0 4 0 5.1 L0 22.46 C0 23.57 0.9 24.46
						 2 24.46 L14.02 24.46 C15.13 24.46 16.02 23.57 16.02 22.46 L16.02 8.6 C16.02 8.07 15.81 7.56 15.44 7.18 ZM14.49
						 8.13 C14.58 8.22 14.64 8.32 14.67 8.44 L10.68 8.44 L10.68 4.45 C10.8 4.48 10.9 4.54 10.99 4.63 L14.49 8.13
						 ZM14.02 23.13 L2 23.13 C1.64 23.13 1.34 22.83 1.34 22.46 L1.34 5.1 C1.34 4.73 1.64 4.43 2 4.43 L9.35 4.43
						 L9.35 8.77 C9.35 9.33 9.79 9.77 10.35 9.77 L14.69 9.77 L14.69 22.46 C14.69 22.83 14.39 23.13 14.02 23.13
						 Z" class="st1"/>
		</g>
		<g id="group498-3" transform="translate(4.73972,-5.14467)" v:mID="498" v:groupContext="group">
			<title>Лист.498</title>
			<g id="shape499-4" v:mID="499" v:groupContext="shape">
				<title>Лист.499</title>
				<path d="M9.5 18.69 L3.81 24.32 C3.63 24.51 3.32 24.51 3.14 24.32 L0.14 21.3 C-0.05 21.11 -0.05 20.81 0.14 20.62
							 L1.05 19.72 C1.24 19.53 1.54 19.54 1.73 19.72 L3.49 21.5 L7.92 17.1 C8.11 16.91 8.41 16.92 8.6 17.1
							 L9.5 18.01 C9.69 18.2 9.68 18.5 9.5 18.69 Z" class="st1"/>
			</g>
		</g>
	</g>
</svg>
