<?xml version="1.0" encoding="UTF-8" standalone="no"?>
<!DOCTYPE svg PUBLIC "-//W3C//DTD SVG 1.1//EN" "http://www.w3.org/Graphics/SVG/1.1/DTD/svg11.dtd">
<!-- Создано Microsoft Visio, экспорт SVG File-URL0.svg Страница-1 -->
<svg xmlns="http://www.w3.org/2000/svg" xmlns:xlink="http://www.w3.org/1999/xlink" xmlns:ev="http://www.w3.org/2001/xml-events"
		xmlns:v="http://schemas.microsoft.com/visio/2003/SVGExtensions/" width="0.265517in" height="0.339758in"
		viewBox="0 0 19.1172 24.4626" xml:space="preserve" color-interpolation-filters="sRGB" class="st3">
	<v:documentProperties v:langID="1049" v:metric="true" v:viewMarkup="false"/>

	<style type="text/css">
	<![CDATA[
		.st1 {fill:#000000;stroke:none;stroke-linecap:butt;stroke-width:1.54688}
		.st2 {fill:#000000;stroke:none;stroke-linecap:butt;stroke-width:1.23387}
		.st3 {fill:none;fill-rule:evenodd;font-size:12px;overflow:visible;stroke-linecap:square;stroke-miterlimit:3}
	]]>
	</style>

	<g v:mID="0" v:index="1" v:groupContext="foregroundPage">
		<title>Страница-1</title>
		<v:pageProperties v:drawingScale="0.0393701" v:pageScale="0.0393701" v:drawingUnits="24" v:shadowOffsetX="9"
				v:shadowOffsetY="-9"/>
		<g id="shape2362-1" v:mID="2362" v:groupContext="shape" transform="translate(1.54687,-1.54687)">
			<title>Лист.2362</title>
			<path d="M15.44 7.18 L11.93 3.68 C11.56 3.31 11.05 3.09 10.52 3.09 L2 3.09 C0.9 3.1 0 4 0 5.1 L0 22.46 C0 23.57 0.9 24.46
						 2 24.46 L14.02 24.46 C15.13 24.46 16.02 23.57 16.02 22.46 L16.02 8.6 C16.02 8.07 15.81 7.56 15.44 7.18 ZM14.49
						 8.13 C14.58 8.22 14.64 8.32 14.67 8.44 L10.68 8.44 L10.68 4.45 C10.8 4.48 10.9 4.54 10.99 4.63 L14.49 8.13
						 ZM14.02 23.13 L2 23.13 C1.64 23.13 1.34 22.83 1.34 22.46 L1.34 5.1 C1.34 4.73 1.64 4.43 2 4.43 L9.35 4.43
						 L9.35 8.77 C9.35 9.33 9.79 9.77 10.35 9.77 L14.69 9.77 L14.69 22.46 C14.69 22.83 14.39 23.13 14.02 23.13
						 Z" class="st1"/>
		</g>
		<g id="shape2363-3" v:mID="2363" v:groupContext="shape" transform="translate(4.3751,-4.24253)">
			<title>Лист.2363</title>
			<path d="M7.03 17.27 C6.73 15.4 6.02 14.09 5.18 14.09 C4.35 14.09 3.64 15.4 3.33 17.27 L7.03 17.27 ZM3.18 19.28 C3.18
						 19.74 3.2 20.19 3.25 20.62 L7.12 20.62 C7.16 20.19 7.19 19.74 7.19 19.28 C7.19 18.81 7.16 18.37 7.12 17.94
						 L3.25 17.94 C3.2 18.37 3.18 18.81 3.18 19.28 ZM9.97 17.27 C9.37 15.85 8.16 14.75 6.66 14.31 C7.17 15.02
						 7.52 16.08 7.71 17.27 L9.97 17.27 ZM3.7 14.31 C2.21 14.75 1 15.85 0.4 17.27 L2.66 17.27 C2.84 16.08 3.19
						 15.02 3.7 14.31 ZM10.19 17.94 L7.79 17.94 C7.84 18.38 7.86 18.83 7.86 19.28 C7.86 19.73 7.84 20.18 7.79
						 20.62 L10.19 20.62 C10.3 20.19 10.37 19.74 10.37 19.28 C10.37 18.81 10.3 18.37 10.19 17.94 ZM2.51 19.28
						 C2.51 18.83 2.53 18.38 2.58 17.94 L0.18 17.94 C0.07 18.37 0 18.81 0 19.28 C0 19.74 0.07 20.19 0.18 20.62
						 L2.58 20.62 C2.53 20.18 2.51 19.73 2.51 19.28 ZM3.33 21.28 C3.64 23.15 4.35 24.46 5.18 24.46 C6.02 24.46
						 6.73 23.15 7.03 21.28 L3.33 21.28 ZM6.66 24.25 C8.16 23.8 9.37 22.7 9.97 21.28 L7.71 21.28 C7.53 22.47 7.17
						 23.54 6.66 24.25 ZM0.4 21.28 C1 22.7 2.21 23.8 3.71 24.25 C3.2 23.54 2.85 22.47 2.66 21.28 L0.4 21.28 Z"
					class="st2"/>
		</g>
	</g>
</svg>
