<?xml version="1.0" encoding="UTF-8" standalone="no"?>
<!DOCTYPE svg PUBLIC "-//W3C//DTD SVG 1.1//EN" "http://www.w3.org/Graphics/SVG/1.1/DTD/svg11.dtd">
<!-- Создано Microsoft Visio, экспорт SVG File-URL.svg Страница-1 -->
<svg xmlns="http://www.w3.org/2000/svg" xmlns:xlink="http://www.w3.org/1999/xlink" xmlns:ev="http://www.w3.org/2001/xml-events"
		xmlns:v="http://schemas.microsoft.com/visio/2003/SVGExtensions/" width="0.265517in" height="0.339758in"
		viewBox="0 0 19.1172 24.4626" xml:space="preserve" color-interpolation-filters="sRGB" class="st3">
	<v:documentProperties v:langID="1049" v:metric="true" v:viewMarkup="false"/>

	<style type="text/css">
	<![CDATA[
		.st1 {fill:#000000;stroke:none;stroke-linecap:butt;stroke-width:1.54688}
		.st2 {fill:#000000;stroke:none;stroke-linecap:butt;stroke-width:1.23387}
		.st3 {fill:none;fill-rule:evenodd;font-size:12px;overflow:visible;stroke-linecap:square;stroke-miterlimit:3}
	]]>
	</style>

	<g v:mID="0" v:index="1" v:groupContext="foregroundPage">
		<title>Страница-1</title>
		<v:pageProperties v:drawingScale="0.0393701" v:pageScale="0.0393701" v:drawingUnits="24" v:shadowOffsetX="8.50394"
				v:shadowOffsetY="-8.50394"/>
		<g id="shape622-1" v:mID="622" v:groupContext="shape" transform="translate(1.54687,-1.54687)">
			<title>Лист.622</title>
			<path d="M15.44 7.18 L11.93 3.68 C11.56 3.31 11.05 3.09 10.52 3.09 L2 3.09 C0.9 3.1 0 4 0 5.1 L0 22.46 C0 23.57 0.9 24.46
						 2 24.46 L14.02 24.46 C15.13 24.46 16.02 23.57 16.02 22.46 L16.02 8.6 C16.02 8.07 15.81 7.56 15.44 7.18 ZM14.49
						 8.13 C14.58 8.22 14.64 8.32 14.67 8.44 L10.68 8.44 L10.68 4.45 C10.8 4.48 10.9 4.54 10.99 4.63 L14.49 8.13
						 ZM14.02 23.13 L2 23.13 C1.64 23.13 1.34 22.83 1.34 22.46 L1.34 5.1 C1.34 4.73 1.64 4.43 2 4.43 L9.35 4.43
						 L9.35 8.77 C9.35 9.33 9.79 9.77 10.35 9.77 L14.69 9.77 L14.69 22.46 C14.69 22.83 14.39 23.13 14.02 23.13
						 Z" class="st1"/>
		</g>
		<g id="shape623-3" v:mID="623" v:groupContext="shape" transform="translate(5.30751,-4.4905)">
			<title>Лист.623</title>
			<path d="M5.77 18.56 C5.52 17.03 4.93 15.96 4.25 15.96 C3.57 15.96 2.98 17.03 2.73 18.56 L5.77 18.56 ZM2.61 20.21 C2.61
						 20.59 2.63 20.96 2.66 21.31 L5.84 21.31 C5.88 20.96 5.9 20.59 5.9 20.21 C5.9 19.83 5.88 19.46 5.84 19.11
						 L2.66 19.11 C2.63 19.46 2.61 19.83 2.61 20.21 ZM8.17 18.56 C7.68 17.4 6.69 16.5 5.46 16.14 C5.88 16.72 6.17
						 17.59 6.32 18.56 L8.17 18.56 ZM3.04 16.14 C1.81 16.5 0.82 17.4 0.33 18.56 L2.18 18.56 C2.33 17.59 2.62 16.72
						 3.04 16.14 ZM8.36 19.11 L6.39 19.11 C6.43 19.47 6.45 19.84 6.45 20.21 C6.45 20.58 6.43 20.95 6.39 21.31
						 L8.35 21.31 C8.45 20.96 8.5 20.59 8.5 20.21 C8.5 19.83 8.45 19.46 8.36 19.11 ZM2.06 20.21 C2.06 19.84 2.08
						 19.47 2.11 19.11 L0.15 19.11 C0.05 19.46 0 19.83 0 20.21 C0 20.59 0.05 20.96 0.15 21.31 L2.11 21.31 C2.08
						 20.95 2.06 20.58 2.06 20.21 ZM2.73 21.86 C2.98 23.39 3.57 24.46 4.25 24.46 C4.93 24.46 5.52 23.39 5.77 21.86
						 L2.73 21.86 ZM5.47 24.28 C6.69 23.92 7.68 23.02 8.17 21.86 L6.32 21.86 C6.17 22.83 5.88 23.7 5.47 24.28
						 ZM0.33 21.86 C0.82 23.02 1.81 23.92 3.04 24.28 C2.62 23.7 2.33 22.83 2.18 21.86 L0.33 21.86 Z" class="st2"/>
		</g>
	</g>
</svg>
