<?xml version="1.0" encoding="UTF-8" standalone="no"?>
<!DOCTYPE svg PUBLIC "-//W3C//DTD SVG 1.1//EN" "http://www.w3.org/Graphics/SVG/1.1/DTD/svg11.dtd">
<!-- Создано Microsoft Visio, экспорт SVG File-URL-2.svg Страница-1 -->
<svg xmlns="http://www.w3.org/2000/svg" xmlns:xlink="http://www.w3.org/1999/xlink" xmlns:ev="http://www.w3.org/2001/xml-events"
		xmlns:v="http://schemas.microsoft.com/visio/2003/SVGExtensions/" width="0.297198in" height="0.339774in"
		viewBox="0 0 21.3983 24.4637" xml:space="preserve" color-interpolation-filters="sRGB" class="st7">
	<v:documentProperties v:langID="1049" v:metric="true" v:viewMarkup="false"/>

	<style type="text/css">
	<![CDATA[
		.st1 {fill:#000000;stroke:none;stroke-linecap:butt;stroke-width:1.54688}
		.st2 {fill:none;stroke:#000000;stroke-linecap:round;stroke-linejoin:round;stroke-width:0.499999}
		.st3 {fill:none}
		.st4 {stroke:#000000;stroke-linecap:round;stroke-linejoin:round;stroke-width:0.499999}
		.st5 {fill:#92cddc;stroke:#ffffff;stroke-linecap:round;stroke-linejoin:round;stroke-width:0.749999}
		.st6 {fill:#ffffff;stroke:none;stroke-width:0.75}
		.st7 {fill:none;fill-rule:evenodd;font-size:12px;overflow:visible;stroke-linecap:square;stroke-miterlimit:3}
	]]>
	</style>

	<g v:mID="0" v:index="1" v:groupContext="foregroundPage">
		<title>Страница-1</title>
		<v:pageProperties v:drawingScale="0.0393701" v:pageScale="0.0393701" v:drawingUnits="24" v:shadowOffsetX="9"
				v:shadowOffsetY="-9"/>
		<g id="group2053-1" transform="translate(0.375,-1.54688)" v:mID="2053" v:groupContext="group">
			<title>Лист.2053</title>
			<g id="shape688-2" v:mID="688" v:groupContext="shape" transform="translate(2.3124,1.03029E-13)">
				<title>Лист.484</title>
				<path d="M15.44 7.18 L11.93 3.68 C11.56 3.31 11.05 3.09 10.52 3.09 L2 3.09 C0.9 3.1 0 4 0 5.1 L0 22.46 C0 23.57 0.9
							 24.46 2 24.46 L14.02 24.46 C15.13 24.46 16.02 23.57 16.02 22.46 L16.02 8.6 C16.02 8.07 15.81 7.56 15.44
							 7.18 ZM14.49 8.13 C14.58 8.22 14.64 8.32 14.67 8.44 L10.68 8.44 L10.68 4.45 C10.8 4.48 10.9 4.54 10.99
							 4.63 L14.49 8.13 ZM14.02 23.13 L2 23.13 C1.64 23.13 1.34 22.83 1.34 22.46 L1.34 5.1 C1.34 4.73 1.64
							 4.43 2 4.43 L9.35 4.43 L9.35 8.77 C9.35 9.33 9.79 9.77 10.35 9.77 L14.69 9.77 L14.69 22.46 C14.69 22.83
							 14.39 23.13 14.02 23.13 Z" class="st1"/>
			</g>
			<g id="group690-4" transform="translate(5.56911,-2.90319)" v:mID="690" v:groupContext="group">
				<title>Лист.486</title>
				<g id="shape691-5" v:mID="691" v:groupContext="shape" transform="translate(6.4948E-14,-0.0204556)">
					<title>Лист.487</title>
					<ellipse cx="5.17478" cy="19.2889" rx="5.17478" ry="5.17478" class="st2"/>
				</g>
				<g id="shape692-7" v:mID="692" v:groupContext="shape" transform="translate(0.696607,-7.64625)">
					<title>Лист.488</title>
					<path d="M0 24.46 L8.88 24.46 L0 24.46 Z" class="st3"/>
					<path d="M0 24.46 L8.88 24.46" class="st4"/>
				</g>
				<g id="shape693-10" v:mID="693" v:groupContext="shape" transform="translate(0.0995171,-5.25789)">
					<title>Лист.489</title>
					<path d="M0 24.46 L10.15 24.46 L0 24.46 Z" class="st3"/>
					<path d="M0 24.46 L10.15 24.46" class="st4"/>
				</g>
				<g id="shape694-13" v:mID="694" v:groupContext="shape" transform="translate(0.696607,-2.86953)">
					<title>Лист.490</title>
					<path d="M0 24.46 L9 24.46 L0 24.46 Z" class="st3"/>
					<path d="M0 24.46 L9 24.46" class="st4"/>
				</g>
				<g id="shape695-16" v:mID="695" v:groupContext="shape" transform="translate(29.6687,14.0937) rotate(90)">
					<title>Лист.491</title>
					<path d="M0 24.46 L10.37 24.46 L0 24.46 Z" class="st3"/>
					<path d="M0 24.46 L10.37 24.46" class="st4"/>
				</g>
				<g id="shape696-19" v:mID="696" v:groupContext="shape" transform="translate(2.30875,-0.0204556)">
					<title>Лист.492</title>
					<ellipse cx="2.86604" cy="19.2889" rx="2.86604" ry="5.17478" class="st2"/>
				</g>
			</g>
			<g id="shape697-21" v:mID="697" v:groupContext="shape" transform="translate(-1.39888E-14,-5.02348)">
				<title>Лист.493</title>
				<rect x="0" y="18.1982" width="20.6483" height="6.26553" class="st5"/>
			</g>
			<g id="group2052-23" transform="translate(0.863914,-5.95539)" v:mID="2052" v:groupContext="group">
				<title>Лист.2052</title>
				<g id="shape2048-24" v:mID="2048" v:groupContext="shape">
					<title>Лист.2048</title>
					<path d="M0 20.2 L1.06 20.2 L1.71 23.51 L2.58 20.21 L3.6 20.21 L4.38 23.51 L5.04 20.21 L6 20.21 L4.88 24.46 L3.82
								 24.46 A51.5247 51.5247 0 0 1 3.04 21.27 L2.23 24.46 L1.12 24.46 L0 20.2 Z" class="st6"/>
				</g>
				<g id="shape2050-26" v:mID="2050" v:groupContext="shape" transform="translate(6.46049,-5.32907E-14)">
					<title>Лист.2050</title>
					<path d="M0 20.2 L1.06 20.2 L1.71 23.51 L2.58 20.21 L3.6 20.21 L4.38 23.51 L5.04 20.21 L6 20.21 L4.88 24.46 L3.82
								 24.46 A51.5247 51.5247 0 0 1 3.04 21.27 L2.23 24.46 L1.12 24.46 L0 20.2 Z" class="st6"/>
				</g>
				<g id="shape2051-28" v:mID="2051" v:groupContext="shape" transform="translate(12.921,-5.32907E-14)">
					<title>Лист.2051</title>
					<path d="M0 20.2 L1.06 20.2 L1.71 23.51 L2.58 20.21 L3.6 20.21 L4.38 23.51 L5.04 20.21 L6 20.21 L4.88 24.46 L3.82
								 24.46 A51.5247 51.5247 0 0 1 3.04 21.27 L2.23 24.46 L1.12 24.46 L0 20.2 Z" class="st6"/>
				</g>
			</g>
		</g>
	</g>
</svg>
