<?xml version="1.0" encoding="UTF-8" standalone="no"?>
<!DOCTYPE svg PUBLIC "-//W3C//DTD SVG 1.1//EN" "http://www.w3.org/Graphics/SVG/1.1/DTD/svg11.dtd">
<!-- Создано Microsoft Visio, экспорт SVG Journal - Журнал.svg Страница-1 -->
<svg xmlns="http://www.w3.org/2000/svg" xmlns:xlink="http://www.w3.org/1999/xlink" xmlns:ev="http://www.w3.org/2001/xml-events"
		xmlns:v="http://schemas.microsoft.com/visio/2003/SVGExtensions/" width="0.328069in" height="0.341392in"
		viewBox="0 0 23.621 24.5802" xml:space="preserve" color-interpolation-filters="sRGB" class="st4">
	<v:documentProperties v:langID="1049" v:metric="true" v:viewMarkup="false"/>

	<style type="text/css">
	<![CDATA[
		.st1 {stroke:#000000;stroke-linecap:round;stroke-linejoin:round;stroke-width:1.25}
		.st2 {fill:#ffffff;stroke:#000000;stroke-linecap:round;stroke-linejoin:round;stroke-width:1.25}
		.st3 {fill:#000000;stroke:none;stroke-linecap:butt;stroke-width:1.19531}
		.st4 {fill:none;fill-rule:evenodd;font-size:12px;overflow:visible;stroke-linecap:square;stroke-miterlimit:3}
	]]>
	</style>

	<g v:mID="0" v:index="1" v:groupContext="foregroundPage">
		<title>Страница-1</title>
		<v:pageProperties v:drawingScale="0.0393701" v:pageScale="0.0393701" v:drawingUnits="24" v:shadowOffsetX="9"
				v:shadowOffsetY="-9"/>
		<g id="group1483-1" transform="translate(1.19531,-0.625)" v:mID="1483" v:groupContext="group">
			<title>Лист.1483</title>
			<g id="shape1474-2" v:mID="1474" v:groupContext="shape" transform="translate(32.4873,17.4576) rotate(90)">
				<title>Лист.1474</title>
				<path d="M0 24.58 L2.49 24.58" class="st1"/>
			</g>
			<g id="shape1475-5" v:mID="1475" v:groupContext="shape" transform="translate(4.34069,-1.06581E-14)">
				<title>Лист.1475</title>
				<path d="M11.81 24.58 A1.68682 1.68682 0 0 1 11.85 21.46 L1.34 21.46 A1.57573 1.57573 -180 0 0 1.34 24.58 L11.81
							 24.58 Z" class="st2"/>
			</g>
			<g id="shape1476-7" v:mID="1476" v:groupContext="shape" transform="translate(15.3927,-0.00792337)">
				<title>Лист.1476</title>
				<path d="M0 23.89 A2.01619 1.87272 -90 0 0 3.2 23.15 L3.2 9.25 A1.6283 1.75304 0 1 1 5.21 11.36" class="st1"/>
			</g>
			<g id="shape1477-10" v:mID="1477" v:groupContext="shape" transform="translate(15.0297,-16.6708)">
				<title>Лист.1477</title>
				<path d="M0 24.58 L5.57 24.58" class="st1"/>
			</g>
			<g id="group1481-13" transform="translate(0,-8.50395)" v:mID="1481" v:groupContext="group">
				<title>Лист.1481</title>
				<g id="shape1482-14" v:mID="1482" v:groupContext="shape">
					<title>Лист.1482</title>
					<path d="M7.13 10.32 C3.19 10.32 0 13.51 0 17.45 C0 21.39 3.19 24.58 7.13 24.58 C11.07 24.58 14.26 21.39 14.26
								 17.45 C14.26 13.51 11.07 10.32 7.13 10.32 ZM13.34 17.45 C13.34 20.86 10.57 23.66 7.13 23.66 C3.72
								 23.66 0.92 20.9 0.92 17.45 C0.92 14.04 3.68 11.24 7.13 11.24 C10.54 11.24 13.34 14.01 13.34 17.45
								 ZM9.06 19.99 L6.72 18.29 C6.63 18.23 6.58 18.12 6.58 18.02 L6.58 13.43 C6.58 13.24 6.74 13.08 6.93
								 13.08 L7.33 13.08 C7.52 13.08 7.67 13.24 7.67 13.43 L7.67 17.63 L9.7 19.11 C9.86 19.22 9.89 19.44
								 9.78 19.59 L9.54 19.92 C9.43 20.07 9.21 20.1 9.06 19.99 Z" class="st3"/>
				</g>
			</g>
		</g>
	</g>
</svg>
