<?xml version="1.0" encoding="UTF-8" standalone="no"?>
<!DOCTYPE svg PUBLIC "-//W3C//DTD SVG 1.1//EN" "http://www.w3.org/Graphics/SVG/1.1/DTD/svg11.dtd">
<!-- Создано Microsoft Visio, экспорт SVG List - список.svg Страница-1 -->
<svg xmlns="http://www.w3.org/2000/svg" xmlns:xlink="http://www.w3.org/1999/xlink" xmlns:ev="http://www.w3.org/2001/xml-events"
		xmlns:v="http://schemas.microsoft.com/visio/2003/SVGExtensions/" width="0.389576in" height="0.319424in"
		viewBox="0 0 28.0495 22.9985" xml:space="preserve" color-interpolation-filters="sRGB" class="st2">
	<v:documentProperties v:langID="1049" v:metric="true" v:viewMarkup="false"/>

	<style type="text/css">
	<![CDATA[
		.st1 {fill:#000000;stroke:none;stroke-linecap:butt;stroke-width:1.19531}
		.st2 {fill:none;fill-rule:evenodd;font-size:12px;overflow:visible;stroke-linecap:square;stroke-miterlimit:3}
	]]>
	</style>

	<g v:mID="0" v:index="1" v:groupContext="foregroundPage">
		<title>Страница-1</title>
		<v:pageProperties v:drawingScale="0.0393701" v:pageScale="0.0393701" v:drawingUnits="24" v:shadowOffsetX="9"
				v:shadowOffsetY="-9"/>
		<g id="group2510-1" transform="translate(1.19531,-1.19531)" v:mID="2510" v:groupContext="group">
			<title>Лист.2510</title>
			<g id="shape2511-2" v:mID="2511" v:groupContext="shape">
				<title>Лист.2511</title>
				<path d="M25.05 6.03 L6.87 6.03 C6.53 6.03 6.26 5.76 6.26 5.42 L6.26 3.8 C6.26 3.47 6.53 3.2 6.87 3.2 L25.05 3.2
							 C25.39 3.2 25.66 3.47 25.66 3.8 L25.66 5.42 C25.66 5.76 25.39 6.03 25.05 6.03 ZM25.66 13.5 L25.66 11.89
							 C25.66 11.55 25.39 11.28 25.05 11.28 L6.87 11.28 C6.53 11.28 6.26 11.55 6.26 11.89 L6.26 13.5 C6.26
							 13.84 6.53 14.11 6.87 14.11 L25.05 14.11 C25.39 14.11 25.66 13.84 25.66 13.5 ZM25.66 21.58 L25.66 19.97
							 C25.66 19.63 25.39 19.36 25.05 19.36 L6.87 19.36 C6.53 19.36 6.26 19.63 6.26 19.97 L6.26 21.58 C6.26
							 21.92 6.53 22.19 6.87 22.19 L25.05 22.19 C25.39 22.19 25.66 21.92 25.66 21.58 ZM4.44 6.23 L4.44 3 C4.44
							 2.66 4.17 2.39 3.84 2.39 L0.61 2.39 C0.27 2.39 0 2.66 0 3 L0 6.23 C0 6.56 0.27 6.84 0.61 6.84 L3.84
							 6.84 C4.17 6.84 4.44 6.56 4.44 6.23 ZM4.44 14.31 L4.44 11.08 C4.44 10.74 4.17 10.47 3.84 10.47 L0.61
							 10.47 C0.27 10.47 0 10.74 0 11.08 L0 14.31 C0 14.65 0.27 14.92 0.61 14.92 L3.84 14.92 C4.17 14.92 4.44
							 14.65 4.44 14.31 ZM4.44 22.39 L4.44 19.16 C4.44 18.83 4.17 18.55 3.84 18.55 L0.61 18.55 C0.27 18.55
							 0 18.83 0 19.16 L0 22.39 C0 22.73 0.27 23 0.61 23 L3.84 23 C4.17 23 4.44 22.73 4.44 22.39 Z"
						class="st1"/>
			</g>
		</g>
	</g>
</svg>
