<?xml version="1.0" encoding="UTF-8" standalone="no"?>
<!DOCTYPE svg PUBLIC "-//W3C//DTD SVG 1.1//EN" "http://www.w3.org/Graphics/SVG/1.1/DTD/svg11.dtd">
<!-- Создано Microsoft Visio, экспорт SVG lock.svg Страница-1 -->
<svg xmlns="http://www.w3.org/2000/svg" xmlns:xlink="http://www.w3.org/1999/xlink" xmlns:ev="http://www.w3.org/2001/xml-events"
		xmlns:v="http://schemas.microsoft.com/visio/2003/SVGExtensions/" width="0.328207in" height="0.369673in"
		viewBox="0 0 23.6309 26.6165" xml:space="preserve" color-interpolation-filters="sRGB" class="st2">
	<v:documentProperties v:langID="1049" v:metric="true" v:viewMarkup="false"/>

	<style type="text/css">
	<![CDATA[
		.st1 {fill:#000000;stroke:none;stroke-linecap:butt;stroke-width:1.36607}
		.st2 {fill:none;fill-rule:evenodd;font-size:12px;overflow:visible;stroke-linecap:square;stroke-miterlimit:3}
	]]>
	</style>

	<g v:mID="0" v:index="1" v:groupContext="foregroundPage">
		<title>Страница-1</title>
		<v:pageProperties v:drawingScale="0.0393701" v:pageScale="0.0393701" v:drawingUnits="24" v:shadowOffsetX="9"
				v:shadowOffsetY="-9"/>
		<g id="shape1945-1" v:mID="1945" v:groupContext="shape" transform="translate(1.36607,-1.36607)">
			<title>Лист.1945</title>
			<path d="M18.66 13.18 L17.54 13.18 L17.54 9.82 C17.54 5.91 14.36 2.73 10.45 2.73 C6.54 2.73 3.36 5.91 3.36 9.82 L3.36
						 13.18 L2.24 13.18 C1 13.18 0 14.18 0 15.42 L0 24.38 C0 25.61 1 26.62 2.24 26.62 L18.66 26.62 C19.9 26.62
						 20.9 25.61 20.9 24.38 L20.9 15.42 C20.9 14.18 19.9 13.18 18.66 13.18 ZM13.81 13.18 L7.09 13.18 L7.09 9.82
						 C7.09 7.97 8.6 6.46 10.45 6.46 C12.3 6.46 13.81 7.97 13.81 9.82 L13.81 13.18 Z" class="st1"/>
		</g>
	</g>
</svg>
