<?xml version="1.0" encoding="UTF-8" standalone="no"?>
<!DOCTYPE svg PUBLIC "-//W3C//DTD SVG 1.1//EN" "http://www.w3.org/Graphics/SVG/1.1/DTD/svg11.dtd">
<!-- Создано Microsoft Visio, экспорт SVG lock-open.svg Страница-1 -->
<svg xmlns="http://www.w3.org/2000/svg" xmlns:xlink="http://www.w3.org/1999/xlink" xmlns:ev="http://www.w3.org/2001/xml-events"
		xmlns:v="http://schemas.microsoft.com/visio/2003/SVGExtensions/" width="0.319775in" height="0.287524in"
		viewBox="0 0 23.0238 20.7017" xml:space="preserve" color-interpolation-filters="sRGB" class="st2">
	<v:documentProperties v:langID="1049" v:metric="true" v:viewMarkup="false"/>

	<style type="text/css">
	<![CDATA[
		.st1 {fill:#000000;stroke:none;stroke-linecap:butt;stroke-width:1.0625}
		.st2 {fill:none;fill-rule:evenodd;font-size:12px;overflow:visible;stroke-linecap:square;stroke-miterlimit:3}
	]]>
	</style>

	<g v:mID="0" v:index="1" v:groupContext="foregroundPage">
		<title>Страница-1</title>
		<v:pageProperties v:drawingScale="0.0393701" v:pageScale="0.0393701" v:drawingUnits="24" v:shadowOffsetX="9"
				v:shadowOffsetY="-9"/>
		<g id="shape1949-1" v:mID="1949" v:groupContext="shape" transform="translate(1.0625,-1.0625)">
			<title>Лист.1949</title>
			<path d="M15.37 2.13 C12.32 2.14 9.87 4.65 9.87 7.69 L9.87 10.25 L1.74 10.25 C0.78 10.25 0 11.03 0 11.99 L0 18.96 C0
						 19.92 0.78 20.7 1.74 20.7 L14.51 20.7 C15.47 20.7 16.25 19.92 16.25 18.96 L16.25 11.99 C16.25 11.03 15.47
						 10.25 14.51 10.25 L12.77 10.25 L12.77 7.67 C12.77 6.24 13.92 5.04 15.36 5.03 C16.81 5.01 18 6.19 18 7.64
						 L18 10.54 C18 11.03 18.38 11.41 18.87 11.41 L20.03 11.41 C20.51 11.41 20.9 11.03 20.9 10.54 L20.9 7.64 C20.9
						 4.59 18.41 2.11 15.37 2.13 Z" class="st1"/>
		</g>
	</g>
</svg>
