<?xml version="1.0" encoding="UTF-8" standalone="no"?>
<!DOCTYPE svg PUBLIC "-//W3C//DTD SVG 1.1//EN" "http://www.w3.org/Graphics/SVG/1.1/DTD/svg11.dtd">
<!-- Создано Microsoft Visio, экспорт SVG Notice.svg Страница-1 -->
<svg xmlns="http://www.w3.org/2000/svg" xmlns:xlink="http://www.w3.org/1999/xlink" xmlns:ev="http://www.w3.org/2001/xml-events"
		xmlns:v="http://schemas.microsoft.com/visio/2003/SVGExtensions/" width="0.356145in" height="0.283542in"
		viewBox="0 0 25.6424 20.415" xml:space="preserve" color-interpolation-filters="sRGB" class="st2">
	<v:documentProperties v:langID="1049" v:metric="true" v:viewMarkup="false"/>

	<style type="text/css">
	<![CDATA[
		.st1 {fill:#000000;stroke:none;stroke-linecap:butt;stroke-width:1.0625}
		.st2 {fill:none;fill-rule:evenodd;font-size:12px;overflow:visible;stroke-linecap:square;stroke-miterlimit:3}
	]]>
	</style>

	<g v:mID="0" v:index="1" v:groupContext="foregroundPage">
		<title>Страница-1</title>
		<v:pageProperties v:drawingScale="0.0393701" v:pageScale="0.0393701" v:drawingUnits="24" v:shadowOffsetX="8.50394"
				v:shadowOffsetY="-8.50394"/>
		<g id="shape611-1" v:mID="611" v:groupContext="shape" transform="translate(0.989305,-1.0625)">
			<title>Лист.611</title>
			<path d="M21.79 16.58 C22.91 15.48 23.58 14.09 23.58 12.57 C23.58 9.31 20.46 6.61 16.39 6.13 C15.11 3.78 12.09 2.13 8.56
						 2.13 C3.87 2.13 0.07 5.05 0.07 8.66 C0.07 10.17 0.75 11.55 1.87 12.66 C1.24 13.92 0.35 14.89 0.33 14.9 C0.07
						 15.18 0 15.58 0.15 15.93 C0.3 16.27 0.64 16.5 1.02 16.5 C3.2 16.5 4.96 15.67 6.13 14.91 C6.5 15 6.88 15.06
						 7.27 15.11 C8.56 17.46 11.58 19.11 15.1 19.11 C15.95 19.11 16.76 19.01 17.54 18.83 C18.7 19.59 20.46 20.42
						 22.65 20.42 C23.02 20.42 23.36 20.19 23.51 19.84 C23.66 19.5 23.59 19.1 23.34 18.82 C23.31 18.81 22.41 17.84
						 21.79 16.58 ZM5.88 13.51 L5.41 13.81 C4.59 14.35 3.35 14.97 1.83 15.14 C2.19 14.68 2.66 14.01 3.04 13.25
						 L3.46 12.4 L2.79 11.73 C2.14 11.1 1.38 10.05 1.38 8.66 C1.38 5.77 4.6 3.43 8.56 3.43 C12.52 3.43 15.75 5.77
						 15.75 8.66 C15.75 11.54 12.52 13.88 8.56 13.88 C7.84 13.88 7.12 13.8 6.42 13.64 L5.88 13.51 ZM18.25 17.73
						 L17.78 17.43 L17.24 17.56 C16.54 17.72 15.82 17.8 15.09 17.8 C12.44 17.8 10.11 16.75 8.87 15.18 C13.42 15.05
						 17.05 12.18 17.05 8.66 C17.05 8.27 17 7.89 16.92 7.53 C20 8.12 22.28 10.15 22.28 12.57 C22.28 13.97 21.51
						 15.02 20.87 15.65 L20.2 16.32 L20.62 17.16 C21 17.93 21.47 18.6 21.82 19.06 C20.31 18.88 19.07 18.26 18.25
						 17.73 ZM16.7 6.81 C16.71 6.81 16.71 6.82 16.71 6.83 C16.71 6.82 16.71 6.81 16.7 6.81 Z" class="st1"/>
		</g>
	</g>
</svg>
