<?xml version="1.0" encoding="UTF-8" standalone="no"?>
<!DOCTYPE svg PUBLIC "-//W3C//DTD SVG 1.1//EN" "http://www.w3.org/Graphics/SVG/1.1/DTD/svg11.dtd">
<!-- Создано Microsoft Visio, экспорт SVG Report - отчёт.svg Страница-1 -->
<svg xmlns="http://www.w3.org/2000/svg" xmlns:xlink="http://www.w3.org/1999/xlink" xmlns:ev="http://www.w3.org/2001/xml-events"
		xmlns:v="http://schemas.microsoft.com/visio/2003/SVGExtensions/" width="0.246127in" height="0.293283in"
		viewBox="0 0 17.7211 21.1163" xml:space="preserve" color-interpolation-filters="sRGB" class="st2">
	<v:documentProperties v:langID="1049" v:metric="true" v:viewMarkup="false"/>

	<style type="text/css">
	<![CDATA[
		.st1 {fill:#000000;stroke:none;stroke-linecap:butt;stroke-width:0.612}
		.st2 {fill:none;fill-rule:evenodd;font-size:12px;overflow:visible;stroke-linecap:square;stroke-miterlimit:3}
	]]>
	</style>

	<g v:mID="0" v:index="1" v:groupContext="foregroundPage">
		<title>Страница-1</title>
		<v:pageProperties v:drawingScale="0.0393701" v:pageScale="0.0393701" v:drawingUnits="24" v:shadowOffsetX="9"
				v:shadowOffsetY="-9"/>
		<g id="shape2371-1" v:mID="2371" v:groupContext="shape" transform="translate(0.612,-0.612)">
			<title>Лист.2371</title>
			<path d="M5.56 6.43 L10.93 6.43 C11.85 6.43 12.6 5.69 12.6 4.77 L12.6 4.68 C12.6 4.63 12.59 4.57 12.59 4.52 C12.51 3.75
						 11.91 3.14 11.16 3.04 C11.08 3.03 11.01 3.02 10.93 3.02 L10.21 3.02 L10.21 2.89 C10.21 1.97 9.47 1.22 8.55
						 1.22 L7.94 1.22 C7.03 1.22 6.28 1.97 6.28 2.89 L6.28 3.02 L5.56 3.02 C5.49 3.02 5.41 3.03 5.34 3.04 C4.58
						 3.14 3.99 3.75 3.91 4.51 C3.9 4.57 3.9 4.63 3.9 4.68 L3.9 4.77 C3.9 5.69 4.65 6.43 5.56 6.43 ZM15.32 2.6
						 L12.87 2.6 L12.87 3.48 L15.32 3.48 C15.49 3.48 15.62 3.61 15.62 3.78 L15.62 19.94 C15.62 20.11 15.49 20.24
						 15.32 20.24 L1.18 20.24 C1.01 20.24 0.87 20.11 0.87 19.94 L0.87 3.78 C0.87 3.61 1.01 3.48 1.18 3.48 L3.62
						 3.48 L3.62 2.6 L1.18 2.6 C0.53 2.6 0 3.13 0 3.77 L0 19.94 C0 20.59 0.53 21.12 1.18 21.12 L15.32 21.12 C15.97
						 21.12 16.5 20.59 16.5 19.94 L16.5 3.78 C16.5 3.13 15.97 2.6 15.32 2.6 ZM4.26 10.15 L12.23 10.15 C12.72 10.15
						 13.12 9.75 13.12 9.26 C13.12 8.76 12.72 8.37 12.23 8.37 L4.26 8.37 C3.77 8.37 3.37 8.77 3.37 9.26 C3.37
						 9.75 3.77 10.15 4.26 10.15 ZM12.23 12.06 L4.26 12.06 C3.77 12.06 3.37 12.46 3.37 12.95 C3.37 13.45 3.77
						 13.85 4.26 13.85 L12.23 13.85 C12.72 13.85 13.12 13.45 13.12 12.95 C13.12 12.46 12.72 12.06 12.23 12.06
						 ZM12.23 15.76 L4.26 15.76 C3.77 15.76 3.37 16.16 3.37 16.65 C3.37 17.14 3.77 17.54 4.26 17.54 L12.23 17.54
						 C12.72 17.54 13.12 17.14 13.12 16.65 C13.12 16.16 12.72 15.76 12.23 15.76 Z" class="st1"/>
		</g>
	</g>
</svg>
