<?xml version="1.0" encoding="UTF-8" standalone="no"?>
<!DOCTYPE svg PUBLIC "-//W3C//DTD SVG 1.1//EN" "http://www.w3.org/Graphics/SVG/1.1/DTD/svg11.dtd">
<!-- Создано Microsoft Visio, экспорт SVG Tags - теги - метки- бирки - ярлыки - этикетки.svg Страница-1 -->
<svg xmlns="http://www.w3.org/2000/svg" xmlns:xlink="http://www.w3.org/1999/xlink" xmlns:ev="http://www.w3.org/2001/xml-events"
		xmlns:v="http://schemas.microsoft.com/visio/2003/SVGExtensions/" width="0.39748in" height="0.323297in"
		viewBox="0 0 28.6186 23.2774" xml:space="preserve" color-interpolation-filters="sRGB" class="st2">
	<v:documentProperties v:langID="1049" v:metric="true" v:viewMarkup="false"/>

	<style type="text/css">
	<![CDATA[
		.st1 {fill:#000000;stroke:none;stroke-linecap:butt;stroke-width:0.95625}
		.st2 {fill:none;fill-rule:evenodd;font-size:12px;overflow:visible;stroke-linecap:square;stroke-miterlimit:3}
	]]>
	</style>

	<g v:mID="0" v:index="1" v:groupContext="foregroundPage">
		<title>Страница-1</title>
		<v:pageProperties v:drawingScale="0.0393701" v:pageScale="0.0393701" v:drawingUnits="24" v:shadowOffsetX="9"
				v:shadowOffsetY="-9"/>
		<g id="shape830-1" v:mID="830" v:groupContext="shape" transform="translate(0.95625,-0.760675)">
			<title>Лист.830</title>
			<path d="M26.12 13.98 L17.6 22.5 C16.82 23.28 15.55 23.28 14.77 22.5 L14.7 22.42 L15.64 21.48 L15.71 21.55 C15.97 21.81
						 16.4 21.81 16.66 21.55 L25.18 13.03 C25.44 12.77 25.44 12.35 25.18 12.09 L16.33 3.25 a0.66327 0.66327 -180
						 0 0 -0.472113 -0.195539 L15.05 3.05 L13.71 1.72 L15.86 1.72 A2.00296 2.00296 0 0 1 17.28 2.3 L26.12 11.15
						 C26.9 11.93 26.9 13.2 26.12 13.98 ZM10.52 3.05 L2 3.05 C1.63 3.05 1.34 3.35 1.34 3.72 L1.34 12.24 C1.34
						 12.42 1.4 12.58 1.53 12.71 L10.37 21.55 C10.63 21.81 11.06 21.81 11.32 21.55 L19.83 13.03 C20.09 12.77 20.09
						 12.35 19.83 12.09 L10.99 3.25 a0.66327 0.66327 -180 0 0 -0.472072 -0.195539 ZM10.52 1.72 A2.00296 2.00296
						 0 0 1 11.94 2.3 L20.78 11.15 C21.56 11.93 21.56 13.2 20.78 13.98 L12.26 22.5 C11.48 23.28 10.21 23.28 9.43
						 22.5 L0.59 13.65 A2.00296 2.00296 0 0 1 0 12.24 L0 3.72 C0 2.61 0.9 1.72 2 1.72 L10.52 1.72 ZM6.01 6.89
						 C5.55 6.89 5.17 7.27 5.17 7.73 C5.17 8.19 5.55 8.56 6.01 8.56 C6.47 8.56 6.84 8.19 6.84 7.73 C6.84 7.27
						 6.47 6.89 6.01 6.89 ZM6.01 5.72 C7.12 5.72 8.01 6.62 8.01 7.73 C8.01 8.83 7.12 9.73 6.01 9.73 C4.9 9.73
						 4.01 8.83 4.01 7.73 C4.01 6.62 4.9 5.72 6.01 5.72 Z" class="st1"/>
		</g>
	</g>
</svg>
