<?xml version="1.0" encoding="UTF-8" standalone="no"?>
<!DOCTYPE svg PUBLIC "-//W3C//DTD SVG 1.1//EN" "http://www.w3.org/Graphics/SVG/1.1/DTD/svg11.dtd">
<!-- Создано Microsoft Visio, экспорт SVG Вверх - lite .svg Страница-1 -->
<svg xmlns="http://www.w3.org/2000/svg" xmlns:xlink="http://www.w3.org/1999/xlink" xmlns:ev="http://www.w3.org/2001/xml-events"
		xmlns:v="http://schemas.microsoft.com/visio/2003/SVGExtensions/" width="0.227496in" height="0.369658in"
		viewBox="0 0 16.3797 26.6154" xml:space="preserve" color-interpolation-filters="sRGB" class="st2">
	<v:documentProperties v:langID="1049" v:metric="true" v:viewMarkup="false"/>

	<style type="text/css">
	<![CDATA[
		.st1 {fill:#000000;stroke:none;stroke-linecap:butt;stroke-width:1.36607}
		.st2 {fill:none;fill-rule:evenodd;font-size:12px;overflow:visible;stroke-linecap:square;stroke-miterlimit:3}
	]]>
	</style>

	<g v:mID="0" v:index="1" v:groupContext="foregroundPage">
		<title>Страница-1</title>
		<v:pageProperties v:drawingScale="0.0393701" v:pageScale="0.0393701" v:drawingUnits="24" v:shadowOffsetX="9"
				v:shadowOffsetY="-9"/>
		<g id="group574-1" transform="translate(27.919,1.30362) rotate(90)" v:mID="574" v:groupContext="group">
			<title>Лист.574</title>
			<g id="shape575-2" v:mID="575" v:groupContext="shape">
				<title>Лист.575</title>
				<path d="M7.36 26.37 L7.74 25.99 C7.99 25.74 7.99 25.33 7.74 25.08 L3.27 20.64 L23.31 20.64 C23.66 20.64 23.95 20.35
							 23.95 20 L23.95 19.46 C23.95 19.11 23.66 18.82 23.31 18.82 L3.27 18.82 L7.74 14.37 C7.99 14.12 7.99
							 13.72 7.74 13.47 L7.36 13.09 C7.11 12.84 6.71 12.84 6.46 13.09 L0.25 19.28 C0 19.53 0 19.93 0.25 20.18
							 L6.46 26.37 C6.71 26.62 7.11 26.62 7.36 26.37 Z" class="st1"/>
			</g>
		</g>
	</g>
</svg>
