<?xml version="1.0" encoding="UTF-8" standalone="no"?>
<!DOCTYPE svg PUBLIC "-//W3C//DTD SVG 1.1//EN" "http://www.w3.org/Graphics/SVG/1.1/DTD/svg11.dtd">
<!-- Создано Microsoft Visio, экспорт SVG Вернуть - назад 2.svg Страница-1 -->
<svg xmlns="http://www.w3.org/2000/svg" xmlns:xlink="http://www.w3.org/1999/xlink" xmlns:ev="http://www.w3.org/2001/xml-events"
		xmlns:v="http://schemas.microsoft.com/visio/2003/SVGExtensions/" width="0.35331in" height="0.35331in"
		viewBox="0 0 25.4384 25.4383" xml:space="preserve" color-interpolation-filters="sRGB" class="st2">
	<v:documentProperties v:langID="1049" v:metric="true" v:viewMarkup="false"/>

	<style type="text/css">
	<![CDATA[
		.st1 {fill:#000000;stroke:none;stroke-width:1.19531}
		.st2 {fill:none;fill-rule:evenodd;font-size:12px;overflow:visible;stroke-linecap:square;stroke-miterlimit:3}
	]]>
	</style>

	<g v:mID="0" v:index="1" v:groupContext="foregroundPage">
		<title>Страница-1</title>
		<v:pageProperties v:drawingScale="0.0393701" v:pageScale="0.0393701" v:drawingUnits="24" v:shadowOffsetX="9"
				v:shadowOffsetY="-9"/>
		<g id="shape282-1" v:mID="282" v:groupContext="shape" transform="translate(1.19531,-1.19531)">
			<title>Лист.282</title>
			<path d="M0.56 2.39 L1.02 2.39 C1.33 2.39 1.58 2.64 1.58 2.95 L1.58 8.09 C3.59 4.67 7.31 2.38 11.56 2.39 C17.9 2.41 23.06
						 7.6 23.05 13.93 C23.04 20.29 17.88 25.44 11.52 25.44 C8.55 25.44 5.85 24.31 3.8 22.47 C3.56 22.25 3.55 21.89
						 3.78 21.66 L4.11 21.33 C4.32 21.12 4.65 21.11 4.87 21.31 C6.63 22.89 8.97 23.86 11.52 23.86 C17 23.86 21.47
						 19.43 21.47 13.91 C21.47 8.44 17.04 3.97 11.52 3.97 C7.67 3.97 4.33 6.16 2.68 9.36 L7.99 9.36 C8.3 9.36
						 8.55 9.61 8.55 9.92 L8.55 10.38 C8.55 10.69 8.3 10.94 7.99 10.94 L0.56 10.94 C0.25 10.94 0 10.69 0 10.38
						 L0 2.95 C0 2.64 0.25 2.39 0.56 2.39 Z" class="st1"/>
		</g>
	</g>
</svg>
