<?xml version="1.0" encoding="UTF-8" standalone="no"?>
<!DOCTYPE svg PUBLIC "-//W3C//DTD SVG 1.1//EN" "http://www.w3.org/Graphics/SVG/1.1/DTD/svg11.dtd">
<!-- Создано Microsoft Visio, экспорт SVG Вложение - скрепка.svg Страница-1 -->
<svg xmlns="http://www.w3.org/2000/svg" xmlns:xlink="http://www.w3.org/1999/xlink" xmlns:ev="http://www.w3.org/2001/xml-events"
		xmlns:v="http://schemas.microsoft.com/visio/2003/SVGExtensions/" width="0.183802in" height="0.252782in"
		viewBox="0 0 13.2338 18.2003" xml:space="preserve" color-interpolation-filters="sRGB" class="st2">
	<v:documentProperties v:langID="1049" v:metric="true" v:viewMarkup="false"/>

	<style type="text/css">
	<![CDATA[
		.st1 {fill:#000000;stroke:none;stroke-linecap:butt;stroke-width:0.75}
		.st2 {fill:none;fill-rule:evenodd;font-size:12px;overflow:visible;stroke-linecap:square;stroke-miterlimit:3}
	]]>
	</style>

	<g v:mID="0" v:index="1" v:groupContext="foregroundPage">
		<title>Страница-1</title>
		<v:pageProperties v:drawingScale="0.0393701" v:pageScale="0.0393701" v:drawingUnits="24" v:shadowOffsetX="9"
				v:shadowOffsetY="-9"/>
		<g id="shape2060-1" v:mID="2060" v:groupContext="shape" transform="translate(0.75,-0.75)">
			<title>Вложение.2060</title>
			<v:userDefs>
				<v:ud v:nameU="msvShapeCategories" v:prompt="" v:val="VT4(Icon)"/>
				<v:ud v:nameU="visVersion" v:prompt="" v:val="VT0(15):26"/>
			</v:userDefs>
			<path d="M5.3 1.5 A3.1846 3.13445 -180 0 0 2.12 4.63 L2.12 14.03 A2.12375 2.0903 -180 0 0 4.24 16.11 A2.12375 2.0903
						 -180 0 0 6.36 14.03 L6.36 5.15 L5.3 5.15 L5.3 14.03 A1.06085 1.04415 0 0 1 4.24 15.07 A1.06085 1.04415 0
						 0 1 3.18 14.03 L3.18 4.63 A2.12341 2.08997 0 0 1 5.3 2.54 A2.12307 2.08963 0 0 1 7.42 4.63 L7.42 14.03 A3.15962
						 3.10986 0 0 1 6.49 16.24 A3.16006 3.1103 0 0 1 4.24 17.16 A3.16006 3.1103 0 0 1 1.99 16.24 A3.15962 3.10986
						 0 0 1 1.06 14.03 L1.06 5.15 L0 5.15 L0 14.03 A4.21196 4.14563 -180 0 0 1.24 16.98 A4.2124 4.14606 -180 0
						 0 4.24 18.2 A4.2124 4.14606 -180 0 0 7.24 16.98 A4.21196 4.14563 -180 0 0 8.48 14.03 L8.48 4.63 A3.1846
						 3.13445 -180 0 0 5.3 1.5 Z" class="st1"/>
		</g>
	</g>
</svg>
