<?xml version="1.0" encoding="UTF-8" standalone="no"?>
<!DOCTYPE svg PUBLIC "-//W3C//DTD SVG 1.1//EN" "http://www.w3.org/Graphics/SVG/1.1/DTD/svg11.dtd">
<!-- Создано Microsoft Visio, экспорт SVG Войти под текущей доменной учётной записью.svg Страница-1 -->
<svg xmlns="http://www.w3.org/2000/svg" xmlns:xlink="http://www.w3.org/1999/xlink" xmlns:ev="http://www.w3.org/2001/xml-events"
		xmlns:v="http://schemas.microsoft.com/visio/2003/SVGExtensions/" width="0.477081in" height="0.289592in"
		viewBox="0 0 34.3498 20.8506" xml:space="preserve" color-interpolation-filters="sRGB" class="st4">
	<v:documentProperties v:langID="1049" v:metric="true" v:viewMarkup="false"/>

	<style type="text/css">
	<![CDATA[
		.st1 {fill:#000000;stroke:none;stroke-linecap:butt;stroke-width:1.19531}
		.st2 {fill:#ffffff;stroke:none;stroke-linecap:round;stroke-linejoin:round;stroke-width:0.75}
		.st3 {fill:#000000;stroke:none;stroke-linecap:butt;stroke-width:0.75}
		.st4 {fill:none;fill-rule:evenodd;font-size:12px;overflow:visible;stroke-linecap:square;stroke-miterlimit:3}
	]]>
	</style>

	<g v:mID="0" v:index="1" v:groupContext="foregroundPage">
		<title>Страница-1</title>
		<v:pageProperties v:drawingScale="0.0393701" v:pageScale="0.0393701" v:drawingUnits="24" v:shadowOffsetX="9"
				v:shadowOffsetY="-9"/>
		<g id="shape1785-1" v:mID="1785" v:groupContext="shape" transform="translate(1.19531,-1.19531)">
			<title>Лист.1785</title>
			<path d="M8.85 3.33 L16.75 11.21 C16.98 11.44 16.98 11.8 16.75 12.03 L8.85 19.91 C8.62 20.14 8.25 20.14 8.03 19.91 L7.69
						 19.57 C7.46 19.35 7.46 18.98 7.69 18.75 L14.03 12.44 L0.58 12.44 C0.26 12.44 0 12.18 0 11.86 L0 11.38 C0
						 11.06 0.26 10.8 0.58 10.8 L14.03 10.8 L7.69 4.49 C7.47 4.26 7.47 3.9 7.69 3.67 L8.03 3.33 C8.25 3.1 8.62
						 3.1 8.85 3.33 ZM24.61 18.54 L24.61 4.7 C24.61 3.42 23.58 2.39 22.31 2.39 L15.96 2.39 C15.64 2.39 15.38 2.65
						 15.38 2.97 L15.38 3.35 C15.38 3.67 15.64 3.93 15.96 3.93 L22.31 3.93 C22.73 3.93 23.08 4.28 23.08 4.7 L23.08
						 18.54 C23.08 18.97 22.73 19.31 22.31 19.31 L15.96 19.31 C15.64 19.31 15.38 19.57 15.38 19.89 L15.38 20.27
						 C15.38 20.59 15.64 20.85 15.96 20.85 L22.31 20.85 C23.58 20.85 24.61 19.82 24.61 18.54 Z" class="st1"/>
		</g>
		<g id="shape1787-3" v:mID="1787" v:groupContext="shape" transform="translate(18.0615,-3.89693)">
			<title>Лист.1787</title>
			<ellipse cx="6.52839" cy="14.3223" rx="6.52839" ry="6.52839" class="st2"/>
		</g>
		<g id="shape1788-5" v:mID="1788" v:groupContext="shape" transform="translate(18.8298,-4.75603)">
			<title>Интернет</title>
			<v:userDefs>
				<v:ud v:nameU="msvShapeCategories" v:prompt="" v:val="VT4(Icon)"/>
				<v:ud v:nameU="visVersion" v:prompt="" v:val="VT0(15):26"/>
			</v:userDefs>
			<path d="M5.76 9.51 A5.76026 5.66954 -180 0 0 0 15.18 A5.76003 5.66932 -180 0 0 5.76 20.85 A5.7598 5.66909 -180 0 0 11.52
						 15.18 A5.76003 5.66932 -180 0 0 5.76 9.51 ZM5.94 20.13 L5.94 19.95 L5.94 17.84 L7.89 17.84 L7.76 18.09 A6.50969
						 6.40718 0 0 1 6.51 19.84 L6.31 20.02 L6.19 20.12 L5.94 20.13 ZM6.13 10.24 L6.24 10.34 A6.52105 6.41836 0
						 0 1 7.72 12.27 L7.85 12.52 L5.94 12.52 L5.94 10.23 L6.13 10.24 ZM10.01 12.52 L8.24 12.52 L8.2 12.42 A6.9075
						 6.79872 -180 0 0 6.95 10.52 L6.76 10.32 A5.0504 4.97087 0 0 1 10.01 12.52 ZM5.94 15.01 L5.94 12.88 L7.99
						 12.88 L8.04 13 A6.77363 6.66696 0 0 1 8.41 14.82 L8.42 15.01 L5.94 15.01 L5.94 15.01 ZM8.42 15.36 L8.42
						 15.55 A6.73306 6.62702 0 0 1 8.06 17.36 L8.02 17.48 L5.94 17.48 L5.94 15.36 L8.42 15.36 ZM7 19.83 A6.86944
						 6.76126 -180 0 0 8.22 17.95 L8.27 17.84 L10.01 17.84 A5.05021 4.97068 0 0 1 6.82 20.03 L7 19.83 ZM8.41 17.48
						 L8.48 17.26 A7.10898 6.99703 -180 0 0 8.78 15.53 L8.79 15.36 L10.79 15.36 A5.00691 4.92806 0 0 1 10.22 17.48
						 L8.41 17.48 ZM8.78 15.01 L8.78 14.84 A7.14757 7.03501 -180 0 0 8.46 13.11 L8.39 12.88 L10.22 12.88 A4.99903
						 4.9203 0 0 1 10.79 15.01 L8.78 15.01 ZM5.58 10.49 L5.58 12.52 L3.67 12.52 L3.8 12.27 A6.53924 6.43626 0
						 0 1 5.03 10.58 L5.03 10.57 L5.03 10.57 L5.2 10.42 L5.41 10.24 L5.58 10.23 L5.58 10.49 ZM4.78 10.32 L4.6
						 10.52 A6.8881 6.77962 -180 0 0 3.34 12.42 L3.29 12.52 L1.51 12.52 A5.04828 4.96877 0 0 1 4.78 10.32 ZM3.15
						 12.88 L3.08 13.11 A7.10766 6.99573 -180 0 0 2.76 14.84 L2.75 15.01 L0.73 15.01 A5.00405 4.92525 0 0 1 1.3
						 12.88 L3.15 12.88 ZM0.73 15.36 L2.75 15.36 L2.76 15.53 A7.06603 6.95475 -180 0 0 3.06 17.26 L3.13 17.48
						 L1.3 17.48 A5.0066 4.92776 0 0 1 0.73 15.36 ZM3.27 17.84 L3.32 17.95 A6.8765 6.76821 -180 0 0 4.54 19.84
						 L4.72 20.03 A5.05129 4.97174 0 0 1 1.51 17.84 L3.27 17.84 L3.27 17.84 ZM3.48 17.37 A6.76621 6.65965 0 0
						 1 3.12 15.55 L3.12 15.36 L5.58 15.36 L5.58 17.48 L3.52 17.48 L3.48 17.37 ZM3.11 15.01 L3.12 14.82 A6.71976
						 6.61394 0 0 1 3.49 13 L3.54 12.88 L5.58 12.88 L5.58 15.01 L3.11 15.01 ZM5.34 20.12 L5.28 20.06 A6.5514 6.44823
						 0 0 1 3.79 18.09 L3.67 17.84 L5.58 17.84 L5.58 20.13 L5.34 20.12 Z" class="st3"/>
		</g>
	</g>
</svg>
