<?xml version="1.0" encoding="UTF-8" standalone="no"?>
<!DOCTYPE svg PUBLIC "-//W3C//DTD SVG 1.1//EN" "http://www.w3.org/Graphics/SVG/1.1/DTD/svg11.dtd">
<!-- Создано Microsoft Visio, экспорт SVG Вписать в текущую область.svg Страница-1 -->
<svg xmlns="http://www.w3.org/2000/svg" xmlns:xlink="http://www.w3.org/1999/xlink" xmlns:ev="http://www.w3.org/2001/xml-events"
		xmlns:v="http://schemas.microsoft.com/visio/2003/SVGExtensions/" width="0.346468in" height="0.346468in"
		viewBox="0 0 24.9457 24.9457" xml:space="preserve" color-interpolation-filters="sRGB" class="st4">
	<v:documentProperties v:langID="1049" v:metric="true" v:viewMarkup="false"/>

	<style type="text/css">
	<![CDATA[
		.st1 {fill:#ffffff;stroke:#24c4ff;stroke-linecap:round;stroke-linejoin:round;stroke-width:1}
		.st2 {fill:#24c4ff;stroke:#24c4ff;stroke-linecap:butt;stroke-width:0.25}
		.st3 {fill:#24c4ff;stroke:#24c4ff;stroke-width:0.25}
		.st4 {fill:none;fill-rule:evenodd;font-size:12px;overflow:visible;stroke-linecap:square;stroke-miterlimit:3}
	]]>
	</style>

	<g v:mID="0" v:index="1" v:groupContext="foregroundPage">
		<title>Страница-1</title>
		<v:pageProperties v:drawingScale="0.0393701" v:pageScale="0.0393701" v:drawingUnits="24" v:shadowOffsetX="9"
				v:shadowOffsetY="-9"/>
		<g id="group1795-1" transform="translate(0.5,-0.5)" v:mID="1795" v:groupContext="group">
			<title>Лист.1795</title>
			<g id="shape371-2" v:mID="371" v:groupContext="shape">
				<title>Лист.371</title>
				<rect x="0" y="1" width="23.9457" height="23.9457" class="st1"/>
			</g>
			<g id="group372-4" transform="translate(0.93761,-9.33417)" v:mID="372" v:groupContext="group">
				<title>Лист.372</title>
				<g id="shape373-5" v:mID="373" v:groupContext="shape">
					<title>Лист.373</title>
					<path d="M2.82 24.85 L2.97 24.71 C3.06 24.61 3.06 24.45 2.97 24.36 L1.25 22.65 L8.93 22.65 C9.07 22.65 9.18 22.54
								 9.18 22.41 L9.18 22.2 C9.18 22.07 9.07 21.96 8.93 21.96 L1.25 21.96 L2.97 20.26 C3.06 20.16 3.06
								 20 2.97 19.91 L2.82 19.76 C2.73 19.67 2.57 19.67 2.48 19.76 L0.1 22.13 C0 22.23 0 22.38 0.1 22.48
								 L2.48 24.85 C2.57 24.95 2.73 24.95 2.82 24.85 Z" class="st2"/>
				</g>
			</g>
			<g id="group374-7" transform="translate(23.1525,35.2798) rotate(180)" v:mID="374" v:groupContext="group">
				<title>Лист.374</title>
				<g id="shape375-8" v:mID="375" v:groupContext="shape">
					<title>Лист.375</title>
					<path d="M2.82 24.85 L2.97 24.71 C3.06 24.61 3.06 24.45 2.97 24.36 L1.25 22.65 L8.93 22.65 C9.07 22.65 9.18 22.54
								 9.18 22.41 L9.18 22.2 C9.18 22.07 9.07 21.96 8.93 21.96 L1.25 21.96 L2.97 20.26 C3.06 20.16 3.06
								 20 2.97 19.91 L2.82 19.76 C2.73 19.67 2.57 19.67 2.48 19.76 L0.1 22.13 C0 22.23 0 22.38 0.1 22.48
								 L2.48 24.85 C2.57 24.95 2.73 24.95 2.82 24.85 Z" class="st2"/>
				</g>
			</g>
			<g id="shape379-10" v:mID="379" v:groupContext="shape" transform="translate(34.2798,1.86541) rotate(90)">
				<title>Лист.379</title>
				<path d="M2.82 24.85 L2.97 24.71 C3.06 24.61 3.06 24.45 2.97 24.36 L1.25 22.65 L8.93 22.65 C9.07 22.65 9.18 22.54
							 9.18 22.41 L9.18 22.2 C9.18 22.07 9.07 21.96 8.93 21.96 L1.25 21.96 L2.97 20.26 C3.06 20.16 3.06 20
							 2.97 19.91 L2.82 19.76 C2.73 19.67 2.57 19.67 2.48 19.76 L0.1 22.13 C0 22.23 0 22.38 0.1 22.48 L2.48
							 24.85 C2.57 24.95 2.73 24.95 2.82 24.85 Z" class="st3"/>
			</g>
			<g id="group380-12" transform="translate(-10.3342,24.0803) rotate(-90)" v:mID="380" v:groupContext="group">
				<title>Лист.380</title>
				<g id="shape381-13" v:mID="381" v:groupContext="shape">
					<title>Лист.381</title>
					<path d="M2.82 24.85 L2.97 24.71 C3.06 24.61 3.06 24.45 2.97 24.36 L1.25 22.65 L8.93 22.65 C9.07 22.65 9.18 22.54
								 9.18 22.41 L9.18 22.2 C9.18 22.07 9.07 21.96 8.93 21.96 L1.25 21.96 L2.97 20.26 C3.06 20.16 3.06
								 20 2.97 19.91 L2.82 19.76 C2.73 19.67 2.57 19.67 2.48 19.76 L0.1 22.13 C0 22.23 0 22.38 0.1 22.48
								 L2.48 24.85 C2.57 24.95 2.73 24.95 2.82 24.85 Z" class="st2"/>
				</g>
			</g>
		</g>
	</g>
</svg>
