<?xml version="1.0" encoding="UTF-8" standalone="no"?>
<!DOCTYPE svg PUBLIC "-//W3C//DTD SVG 1.1//EN" "http://www.w3.org/Graphics/SVG/1.1/DTD/svg11.dtd">
<!-- Создано Microsoft Visio, экспорт SVG Вписать в текущую область 3.1.svg Страница-1 -->
<svg xmlns="http://www.w3.org/2000/svg" xmlns:xlink="http://www.w3.org/1999/xlink" xmlns:ev="http://www.w3.org/2001/xml-events"
		xmlns:v="http://schemas.microsoft.com/visio/2003/SVGExtensions/" width="0.342995in" height="0.342995in"
		viewBox="0 0 24.6957 24.6957" xml:space="preserve" color-interpolation-filters="sRGB" class="st3">
	<v:documentProperties v:langID="1049" v:metric="true" v:viewMarkup="false"/>

	<style type="text/css">
	<![CDATA[
		.st1 {fill:#24c4ff;stroke:#24c4ff;stroke-linecap:round;stroke-linejoin:round;stroke-width:0.75}
		.st2 {fill:#ffffff;stroke:#ffffff;stroke-linecap:butt;stroke-width:0.25}
		.st3 {fill:none;fill-rule:evenodd;font-size:12px;overflow:visible;stroke-linecap:square;stroke-miterlimit:3}
	]]>
	</style>

	<g v:mID="0" v:index="1" v:groupContext="foregroundPage">
		<title>Страница-1</title>
		<v:pageProperties v:drawingScale="0.0393701" v:pageScale="0.0393701" v:drawingUnits="24" v:shadowOffsetX="9"
				v:shadowOffsetY="-9"/>
		<g id="group1796-1" transform="translate(0.375,-0.375)" v:mID="1796" v:groupContext="group">
			<title>Лист.1796</title>
			<g id="shape382-2" v:mID="382" v:groupContext="shape">
				<title>Лист.382</title>
				<rect x="0" y="0.750001" width="23.9457" height="23.9457" class="st1"/>
			</g>
			<g id="group384-4" transform="translate(0.93761,-9.33417)" v:mID="384" v:groupContext="group">
				<title>Лист.384</title>
				<g id="shape385-5" v:mID="385" v:groupContext="shape">
					<title>Лист.385</title>
					<path d="M2.82 24.6 L2.97 24.46 C3.06 24.36 3.06 24.2 2.97 24.11 L1.25 22.4 L8.93 22.4 C9.07 22.4 9.18 22.29
								 9.18 22.16 L9.18 21.95 C9.18 21.82 9.07 21.71 8.93 21.71 L1.25 21.71 L2.97 20.01 C3.06 19.91 3.06
								 19.75 2.97 19.66 L2.82 19.51 C2.73 19.42 2.57 19.42 2.48 19.51 L0.1 21.88 C0 21.98 0 22.13 0.1 22.23
								 L2.48 24.6 C2.57 24.7 2.73 24.7 2.82 24.6 Z" class="st2"/>
				</g>
			</g>
			<g id="group386-7" transform="translate(23.1525,34.7798) rotate(180)" v:mID="386" v:groupContext="group">
				<title>Лист.386</title>
				<g id="shape387-8" v:mID="387" v:groupContext="shape">
					<title>Лист.387</title>
					<path d="M2.82 24.6 L2.97 24.46 C3.06 24.36 3.06 24.2 2.97 24.11 L1.25 22.4 L8.93 22.4 C9.07 22.4 9.18 22.29
								 9.18 22.16 L9.18 21.95 C9.18 21.82 9.07 21.71 8.93 21.71 L1.25 21.71 L2.97 20.01 C3.06 19.91 3.06
								 19.75 2.97 19.66 L2.82 19.51 C2.73 19.42 2.57 19.42 2.48 19.51 L0.1 21.88 C0 21.98 0 22.13 0.1 22.23
								 L2.48 24.6 C2.57 24.7 2.73 24.7 2.82 24.6 Z" class="st2"/>
				</g>
			</g>
			<g id="group389-10" transform="translate(34.0298,1.61541) rotate(90)" v:mID="389" v:groupContext="group">
				<title>Лист.389</title>
				<g id="shape390-11" v:mID="390" v:groupContext="shape">
					<title>Лист.390</title>
					<path d="M2.82 24.6 L2.97 24.46 C3.06 24.36 3.06 24.2 2.97 24.11 L1.25 22.4 L8.93 22.4 C9.07 22.4 9.18 22.29
								 9.18 22.16 L9.18 21.95 C9.18 21.82 9.07 21.71 8.93 21.71 L1.25 21.71 L2.97 20.01 C3.06 19.91 3.06
								 19.75 2.97 19.66 L2.82 19.51 C2.73 19.42 2.57 19.42 2.48 19.51 L0.1 21.88 C0 21.98 0 22.13 0.1 22.23
								 L2.48 24.6 C2.57 24.7 2.73 24.7 2.82 24.6 Z" class="st2"/>
				</g>
			</g>
			<g id="group391-13" transform="translate(-10.0842,23.8303) rotate(-90)" v:mID="391" v:groupContext="group">
				<title>Лист.391</title>
				<g id="shape392-14" v:mID="392" v:groupContext="shape">
					<title>Лист.392</title>
					<path d="M2.82 24.6 L2.97 24.46 C3.06 24.36 3.06 24.2 2.97 24.11 L1.25 22.4 L8.93 22.4 C9.07 22.4 9.18 22.29
								 9.18 22.16 L9.18 21.95 C9.18 21.82 9.07 21.71 8.93 21.71 L1.25 21.71 L2.97 20.01 C3.06 19.91 3.06
								 19.75 2.97 19.66 L2.82 19.51 C2.73 19.42 2.57 19.42 2.48 19.51 L0.1 21.88 C0 21.98 0 22.13 0.1 22.23
								 L2.48 24.6 C2.57 24.7 2.73 24.7 2.82 24.6 Z" class="st2"/>
				</g>
			</g>
		</g>
	</g>
</svg>
