<?xml version="1.0" encoding="UTF-8" standalone="no"?>
<!DOCTYPE svg PUBLIC "-//W3C//DTD SVG 1.1//EN" "http://www.w3.org/Graphics/SVG/1.1/DTD/svg11.dtd">
<!-- Создано Microsoft Visio, экспорт SVG Время - настройка временного диапазона 2.svg Страница-1 -->
<svg xmlns="http://www.w3.org/2000/svg" xmlns:xlink="http://www.w3.org/1999/xlink" xmlns:ev="http://www.w3.org/2001/xml-events"
		xmlns:v="http://schemas.microsoft.com/visio/2003/SVGExtensions/" width="0.360034in" height="0.354692in"
		viewBox="0 0 25.9224 25.5378" xml:space="preserve" color-interpolation-filters="sRGB" class="st2">
	<v:documentProperties v:langID="1049" v:metric="true" v:viewMarkup="false"/>

	<style type="text/css">
	<![CDATA[
		.st1 {fill:#000000;stroke:none;stroke-linecap:butt;stroke-width:0.75}
		.st2 {fill:none;fill-rule:evenodd;font-size:12px;overflow:visible;stroke-linecap:square;stroke-miterlimit:3}
	]]>
	</style>

	<g v:mID="0" v:index="1" v:groupContext="foregroundPage">
		<title>Страница-1</title>
		<v:pageProperties v:drawingScale="0.0393701" v:pageScale="0.0393701" v:drawingUnits="24" v:shadowOffsetX="9"
				v:shadowOffsetY="-9"/>
		<g id="shape269-1" v:mID="269" v:groupContext="shape" transform="translate(0.75,-0.75)">
			<title>Журнал.269</title>
			<v:userDefs>
				<v:ud v:nameU="msvShapeCategories" v:prompt="" v:val="VT4(Icon)"/>
				<v:ud v:nameU="visVersion" v:prompt="" v:val="VT0(15):26"/>
			</v:userDefs>
			<path d="M12.21 1.5 A12.2118 12.0195 -180 0 0 -0 13.52 A12.2113 12.019 -180 0 0 12.21 25.54 A12.2108 12.0185 -180 0 0
						 24.42 13.52 A12.2113 12.019 -180 0 0 12.21 1.5 ZM12.21 23.28 A9.93307 9.77665 0 0 1 2.29 13.52 A9.93307
						 9.77665 0 0 1 12.21 3.75 A9.93307 9.77665 0 0 1 22.13 13.52 A9.93307 9.77665 0 0 1 12.21 23.28 ZM12.21 5.26
						 L10.68 11.27 L12.21 13.52 L13.74 11.27 L12.21 5.26 ZM12.21 13.52 L13.74 15.77 L20.61 18.03 L14.88 13.52
						 L12.21 13.52 Z" class="st1"/>
		</g>
	</g>
</svg>
