<?xml version="1.0" encoding="UTF-8" standalone="no"?>
<!DOCTYPE svg PUBLIC "-//W3C//DTD SVG 1.1//EN" "http://www.w3.org/Graphics/SVG/1.1/DTD/svg11.dtd">
<!-- Создано Microsoft Visio, экспорт SVG Вывести данные в таблицу 3.svg Страница-1 -->
<svg xmlns="http://www.w3.org/2000/svg" xmlns:xlink="http://www.w3.org/1999/xlink" xmlns:ev="http://www.w3.org/2001/xml-events"
		xmlns:v="http://schemas.microsoft.com/visio/2003/SVGExtensions/" width="0.351933in" height="0.300827in"
		viewBox="0 0 25.3392 21.6595" xml:space="preserve" color-interpolation-filters="sRGB" class="st7">
	<v:documentProperties v:langID="1049" v:metric="true" v:viewMarkup="false"/>

	<style type="text/css">
	<![CDATA[
		.st1 {fill:#000000;stroke:#000000;stroke-width:2.25}
		.st2 {stroke:#f2f2f2;stroke-width:0.5}
		.st3 {fill:#ffffff;stroke:#ffffff;stroke-width:0.5}
		.st4 {fill:#000000;stroke:#ffffff;stroke-width:0.75}
		.st5 {fill:none;stroke:none;stroke-width:0.5}
		.st6 {fill:#000000;font-family:Segoe UI;font-size:0.250008em}
		.st7 {fill:none;fill-rule:evenodd;font-size:12px;overflow:visible;stroke-linecap:square;stroke-miterlimit:3}
	]]>
	</style>

	<g v:mID="0" v:index="1" v:groupContext="foregroundPage">
		<title>Страница-1</title>
		<v:pageProperties v:drawingScale="0.0393701" v:pageScale="0.0393701" v:drawingUnits="24" v:shadowOffsetX="9"
				v:shadowOffsetY="-9"/>
		<g id="group1942-1" transform="translate(1.26238,-1.37662)" v:mID="1942" v:groupContext="group">
			<title>Лист.1942</title>
			<g id="shape1931-2" v:mID="1931" v:groupContext="shape" transform="translate(0.987618,-0.873384)">
				<title>Лист.1931</title>
				<rect x="0" y="4.5" width="20.8392" height="17.1595" class="st1"/>
			</g>
			<g id="shape1933-4" v:mID="1933" v:groupContext="shape" transform="translate(21.7523,33.8659) rotate(180)">
				<title>Лист.1933</title>
				<path d="M0 21.66 L20.69 21.66" class="st2"/>
			</g>
			<g id="shape1934-7" v:mID="1934" v:groupContext="shape" transform="translate(21.7523,38.4796) rotate(180)">
				<title>Лист.1934</title>
				<path d="M0 21.66 L20.69 21.66" class="st2"/>
			</g>
			<g id="shape1936-10" v:mID="1936" v:groupContext="shape" transform="translate(26.294,3.62662) rotate(90)">
				<title>Лист.1936</title>
				<path d="M0 21.66 L17.16 21.66" class="st2"/>
			</g>
			<g id="shape1937-13" v:mID="1937" v:groupContext="shape" transform="translate(33.0667,3.62662) rotate(90)">
				<title>Лист.1937</title>
				<path d="M0 21.66 L17.16 21.66" class="st2"/>
			</g>
			<g id="shape1938-16" v:mID="1938" v:groupContext="shape" transform="translate(39.8394,3.62662) rotate(90)">
				<title>Лист.1938</title>
				<path d="M0 21.66 L17.16 21.66" class="st2"/>
			</g>
			<g id="shape1939-19" v:mID="1939" v:groupContext="shape" transform="translate(0.987618,-13.2684)">
				<title>Лист.1939</title>
				<rect x="0" y="16.895" width="20.8392" height="4.76451" class="st3"/>
			</g>
			<g id="shape1940-21" v:mID="1940" v:groupContext="shape" transform="translate(1.84366,-1.92982)">
				<title>Лист.1940</title>
				<path d="M12.56 11.41 L12.28 11.7 C12.09 11.89 12.09 12.2 12.28 12.38 L15.67 15.76 L0.48 15.76 C0.22 15.76 0 15.97
							 0 16.24 L0 16.64 C0 16.91 0.22 17.13 0.48 17.13 L15.67 17.13 L12.28 20.5 C12.09 20.69 12.09 21 12.28
							 21.18 L12.56 21.47 C12.75 21.66 13.06 21.66 13.25 21.47 L17.95 16.78 C18.14 16.6 18.14 16.29 17.95 16.1
							 L13.25 11.41 C13.06 11.22 12.75 11.22 12.56 11.41 Z" class="st4"/>
			</g>
			<g id="shape1941-23" v:mID="1941" v:groupContext="shape" transform="translate(0.493808,-13.0143)">
				<title>Лист.1941</title>
				<desc>ТАБЛИЦА</desc>
				<v:textBlock v:margins="rect(4,4,4,4)" v:tabSpace="42.5197"/>
				<v:textRect cx="10.9134" cy="19.0231" width="21.83" height="5.2728"/>
				<rect x="0" y="16.3867" width="21.8268" height="5.2728" class="st5"/>
				<text x="4.09" y="19.92" class="st6" v:langID="1049"><v:paragraph v:horizAlign="1"/><v:tabList/>ТАБЛИЦА</text>			</g>
		</g>
	</g>
</svg>
