<?xml version="1.0" encoding="UTF-8" standalone="no"?>
<!DOCTYPE svg PUBLIC "-//W3C//DTD SVG 1.1//EN" "http://www.w3.org/Graphics/SVG/1.1/DTD/svg11.dtd">
<!-- Создано Microsoft Visio, экспорт SVG Выключить все атрибуты.svg Страница-1 -->
<svg xmlns="http://www.w3.org/2000/svg" xmlns:xlink="http://www.w3.org/1999/xlink" xmlns:ev="http://www.w3.org/2001/xml-events"
		width="0.38724in" height="0.350519in" viewBox="0 0 27.8813 25.2374" xml:space="preserve" color-interpolation-filters="sRGB"
		class="st3">
	<style type="text/css">
	<![CDATA[
		.st1 {fill:#24c2ff;stroke:none;stroke-linecap:butt;stroke-width:0.75}
		.st2 {fill:#24c4ff;stroke:none;stroke-linecap:butt;stroke-width:1.54688}
		.st3 {fill:none;fill-rule:evenodd;font-size:12px;overflow:visible;stroke-linecap:square;stroke-miterlimit:3}
	]]>
	</style>

	<g>
		<title>Страница-1</title>
		<g id="shape2415-1" transform="translate(1.47239,-0.75)">
			<title>Лист.2415</title>
			<rect x="0" y="21.2892" width="25.6589" height="3.94817" class="st1"/>
		</g>
		<g id="shape2416-3" transform="translate(15.6456,-13.4876)">
			<title>Лист.2416</title>
			<rect x="0" y="21.2892" width="11.4857" height="3.94817" class="st1"/>
		</g>
		<g id="shape2417-5" transform="translate(1.47239,-7.11879)">
			<title>Лист.2417</title>
			<rect x="0" y="21.2892" width="25.6589" height="3.94817" class="st1"/>
		</g>
		<g id="shape2418-7" transform="translate(15.6456,-19.8564)">
			<title>Лист.2418</title>
			<rect x="0" y="21.2892" width="11.4857" height="3.94817" class="st1"/>
		</g>
		<g id="shape2426-9" transform="translate(1.47239,-12.2645)">
			<title>Лист.529</title>
			<path d="M11.2 23.88 L10.14 24.94 C9.85 25.24 9.37 25.24 9.09 24.94 L5.75 21.6 L2.41 24.94 C2.12 25.22 1.64 25.22 1.36
						 24.94 L0.3 23.88 C0 23.58 0 23.12 0.3 22.82 L3.63 19.49 L0.3 16.15 C0 15.85 0 15.38 0.3 15.09 L1.36 14.03
						 C1.64 13.74 2.12 13.74 2.41 14.03 L5.75 17.37 L9.09 14.03 C9.37 13.75 9.85 13.75 10.14 14.03 L11.2 15.09
						 C11.49 15.39 11.49 15.87 11.2 16.15 L7.85 19.49 L11.19 22.82 C11.49 23.12 11.49 23.6 11.2 23.88 Z"
					class="st2"/>
		</g>
	</g>
</svg>
