<?xml version="1.0" encoding="UTF-8" standalone="no"?>
<!DOCTYPE svg PUBLIC "-//W3C//DTD SVG 1.1//EN" "http://www.w3.org/Graphics/SVG/1.1/DTD/svg11.dtd">
<!-- Создано Microsoft Visio, экспорт SVG Звук выкл.svg Страница-1 -->
<svg xmlns="http://www.w3.org/2000/svg" xmlns:xlink="http://www.w3.org/1999/xlink" xmlns:ev="http://www.w3.org/2001/xml-events"
		xmlns:v="http://schemas.microsoft.com/visio/2003/SVGExtensions/" width="1.55507in" height="1.24937in"
		viewBox="0 0 111.965 89.9546" xml:space="preserve" color-interpolation-filters="sRGB" class="st2">
	<v:documentProperties v:langID="1049" v:metric="true" v:viewMarkup="false"/>

	<style type="text/css">
	<![CDATA[
		.st1 {fill:#000000;stroke:none;stroke-linecap:butt;stroke-width:0.95625}
		.st2 {fill:none;fill-rule:evenodd;font-size:12px;overflow:visible;stroke-linecap:square;stroke-miterlimit:3}
	]]>
	</style>

	<g v:mID="0" v:index="1" v:groupContext="foregroundPage">
		<title>Страница-1</title>
		<v:pageProperties v:drawingScale="0.0393701" v:pageScale="0.0393701" v:drawingUnits="24" v:shadowOffsetX="9"
				v:shadowOffsetY="-9"/>
		<g id="group2476-1" transform="translate(0.422551,-0.42209)" v:mID="2476" v:groupContext="group">
			<title>Лист.2476</title>
			<g id="shape2477-2" v:mID="2477" v:groupContext="shape">
				<title>Лист.2477</title>
				<path d="M38.34 18.27 L43.01 13.6 C45.59 11.01 50.06 12.82 50.06 16.51 L50.06 27.28 L38.34 18.27 ZM72.02 44.18 C71.64
							 38.87 68.76 34.12 64.16 31.31 C61.76 29.84 58.67 30.44 56.97 32.6 L72.02 44.18 ZM75.62 12.51 C86.68
							 19.27 94.08 31.47 94.08 45.4 A38.4616 38.4616 0 0 1 91.52 59.18 L100.54 66.11 C103.49 59.7 105.08 52.65
							 105.08 45.4 C105.08 27.65 95.7 11.89 81.36 3.12 C78.77 1.54 75.38 2.35 73.8 4.95 C72.21 7.54 73.03 10.93
							 75.62 12.51 ZM67.02 26.6 C73.63 30.64 77.57 37.67 77.57 45.4 C77.57 46.38 77.5 47.34 77.38 48.3 L86.94
							 55.65 A32.9624 32.9624 -180 0 0 88.58 45.4 C88.58 33.61 82.36 23.08 72.76 17.22 C70.17 15.63 66.78 16.45
							 65.2 19.04 C63.61 21.63 64.43 25.02 67.02 26.6 ZM16.05 28.89 L10.16 28.89 C7.88 28.89 6.04 30.74 6.04
							 33.02 L6.04 57.78 C6.04 60.06 7.88 61.91 10.16 61.91 L27.71 61.91 L43.01 77.2 C45.6 79.79 50.06 77.97
							 50.06 74.28 L50.06 55.05 L16.05 28.89 ZM78.11 76.63 C77.9 76.78 77.69 76.93 77.48 77.07 C74.99 78.81
							 74.37 82.24 76.1 84.73 C77.83 87.23 81.26 87.85 83.76 86.12 A49.7 49.7 -180 0 0 87.12 83.56 L78.11 76.63
							 ZM65.79 67.15 C65.57 68.51 65.86 69.94 66.7 71.16 C67.77 72.7 69.48 73.53 71.23 73.53 C71.98 73.53 72.74
							 73.37 73.46 73.05 L65.79 67.15 ZM109.73 85.63 C111.12 83.82 110.78 81.24 108.98 79.85 L8.85 2.23 C7.05
							 0.84 4.46 1.18 3.07 2.99 L1.39 5.17 C0 6.98 0.34 9.57 2.14 10.96 L102.26 88.56 C104.07 89.95 106.66
							 89.62 108.05 87.81 L109.73 85.63 Z" class="st1"/>
			</g>
		</g>
	</g>
</svg>
