<?xml version="1.0" encoding="UTF-8" standalone="no"?>
<!DOCTYPE svg PUBLIC "-//W3C//DTD SVG 1.1//EN" "http://www.w3.org/Graphics/SVG/1.1/DTD/svg11.dtd">
<!-- Создано Microsoft Visio, экспорт SVG Импорт.svg Страница-1 -->
<svg xmlns="http://www.w3.org/2000/svg" xmlns:xlink="http://www.w3.org/1999/xlink" xmlns:ev="http://www.w3.org/2001/xml-events"
		xmlns:v="http://schemas.microsoft.com/visio/2003/SVGExtensions/" width="0.349639in" height="0.34896in"
		viewBox="0 0 25.174 25.1251" xml:space="preserve" color-interpolation-filters="sRGB" class="st2">
	<v:documentProperties v:langID="1049" v:metric="true" v:viewMarkup="false"/>

	<style type="text/css">
	<![CDATA[
		.st1 {fill:#83a4b8;stroke:none;stroke-linecap:butt;stroke-width:0.612}
		.st2 {fill:none;fill-rule:evenodd;font-size:12px;overflow:visible;stroke-linecap:square;stroke-miterlimit:3}
	]]>
	</style>

	<g v:mID="0" v:index="1" v:groupContext="foregroundPage">
		<title>Страница-1</title>
		<v:pageProperties v:drawingScale="0.0393701" v:pageScale="0.0393701" v:drawingUnits="24" v:shadowOffsetX="9"
				v:shadowOffsetY="-9"/>
		<g id="group690-1" transform="translate(0.612,-0.612)" v:mID="690" v:groupContext="group">
			<title>Лист.690</title>
			<g id="group691-2" v:mID="691" v:groupContext="group">
				<title>Лист.691</title>
				<g id="shape692-3" v:mID="692" v:groupContext="shape" transform="translate(12.3831,-12.4369)">
					<title>Лист.692</title>
					<path d="M6.98 22.13 L11.57 17.54 L7.69 13.66 L3.1 18.25 L0 15.15 L0 25.13 L9.97 25.13 L6.98 22.13 ZM1.11 17.84
								 L3.1 19.83 L7.69 15.24 L9.99 17.54 L5.4 22.13 L7.28 24.01 L1.11 24.01 L1.11 17.84 Z" class="st1"/>
				</g>
				<g id="shape693-5" v:mID="693" v:groupContext="shape">
					<title>Лист.693</title>
					<path d="M22.53 20.41 C22.53 22.4 20.91 24.01 18.93 24.01 L4.71 24.01 C2.73 24.01 1.11 22.4 1.11 20.41 L1.11
								 6.19 C1.11 4.21 2.73 2.6 4.71 2.6 L11.11 2.6 L11.11 1.48 L4.71 1.48 C2.11 1.48 0 3.6 0 6.19 L0 20.41
								 C0 23.01 2.11 25.13 4.71 25.13 L18.93 25.13 C21.53 25.13 23.64 23.01 23.64 20.41 L23.64 13.98 L22.53
								 13.98 L22.53 20.41 L22.53 20.41 Z" class="st1"/>
				</g>
				<g id="shape694-7" v:mID="694" v:groupContext="shape" transform="translate(4.29145,-13.8348)">
					<title>Лист.694</title>
					<path d="M0 24.01 L4.89 24.01 L4.89 25.13 L0 25.13 L0 24.01 Z" class="st1"/>
				</g>
				<g id="shape695-9" v:mID="695" v:groupContext="shape" transform="translate(4.29145,-8.52425)">
					<title>Лист.695</title>
					<path d="M0 24.01 L15.06 24.01 L15.06 25.13 L0 25.13 L0 24.01 Z" class="st1"/>
				</g>
				<g id="shape696-11" v:mID="696" v:groupContext="shape" transform="translate(4.29145,-4.40631)">
					<title>Лист.696</title>
					<path d="M0 24.01 L15.06 24.01 L15.06 25.13 L0 25.13 L0 24.01 Z" class="st1"/>
				</g>
			</g>
		</g>
	</g>
</svg>
