<?xml version="1.0" encoding="UTF-8" standalone="no"?>
<!DOCTYPE svg PUBLIC "-//W3C//DTD SVG 1.1//EN" "http://www.w3.org/Graphics/SVG/1.1/DTD/svg11.dtd">
<!-- Создано Microsoft Visio, экспорт SVG Комментарий.svg Страница-1 -->
<svg xmlns="http://www.w3.org/2000/svg" xmlns:xlink="http://www.w3.org/1999/xlink" xmlns:ev="http://www.w3.org/2001/xml-events"
		xmlns:v="http://schemas.microsoft.com/visio/2003/SVGExtensions/" width="0.343696in" height="0.293567in"
		viewBox="0 0 24.7461 21.1368" xml:space="preserve" color-interpolation-filters="sRGB" class="st2">
	<v:documentProperties v:langID="1049" v:metric="true" v:viewMarkup="false"/>

	<style type="text/css">
	<![CDATA[
		.st1 {fill:#000000;stroke:none;stroke-linecap:butt;stroke-width:0.75}
		.st2 {fill:none;fill-rule:evenodd;font-size:12px;overflow:visible;stroke-linecap:square;stroke-miterlimit:3}
	]]>
	</style>

	<g v:mID="0" v:index="1" v:groupContext="foregroundPage">
		<title>Страница-1</title>
		<v:pageProperties v:drawingScale="0.0393701" v:pageScale="0.0393701" v:drawingUnits="24" v:shadowOffsetX="9"
				v:shadowOffsetY="-9"/>
		<g id="shape2065-1" v:mID="2065" v:groupContext="shape" transform="translate(0.75,-0.75)">
			<title>Чат.2065</title>
			<v:userDefs>
				<v:ud v:nameU="msvShapeCategories" v:prompt="" v:val="VT4(Icon)"/>
				<v:ud v:nameU="visVersion" v:prompt="" v:val="VT0(15):26"/>
			</v:userDefs>
			<path d="M16.43 1.5 L3.57 1.5 A3.57021 3.62734 -180 0 0 0 5.13 L0 12.38 A3.57021 3.62734 -180 0 0 3.57 16.01 L6.78 16.01
						 L5.64 20.35 a0.423464 0.43024 -180 1 0 0.643447 0.478879 L13.28 16.01 L16.43 16.01 A3.57021 3.62734 -180
						 0 0 20 12.38 L20 5.13 A3.57021 3.62734 -180 0 0 16.43 1.5 ZM18.57 12.38 A2.14506 2.17938 0 0 1 16.43 14.56
						 L12.84 14.56 A22528.4 22888.8 -180 0 0 7.71 18.09 A9069.53 9214.64 0 0 1 8.65 14.56 L3.57 14.56 A2.14506
						 2.17938 0 0 1 1.43 12.38 L1.43 5.13 A2.14506 2.17938 0 0 1 3.57 2.95 L16.43 2.95 A2.14506 2.17938 0 0 1
						 18.57 5.13 L18.57 12.38 Z" class="st1"/>
		</g>
	</g>
</svg>
