<?xml version="1.0" encoding="UTF-8" standalone="no"?>
<!DOCTYPE svg PUBLIC "-//W3C//DTD SVG 1.1//EN" "http://www.w3.org/Graphics/SVG/1.1/DTD/svg11.dtd">
<!-- Создано Microsoft Visio, экспорт SVG Конфигурация 4.svg Страница-1 -->
<svg xmlns="http://www.w3.org/2000/svg" xmlns:xlink="http://www.w3.org/1999/xlink" xmlns:ev="http://www.w3.org/2001/xml-events"
		xmlns:v="http://schemas.microsoft.com/visio/2003/SVGExtensions/" width="0.328226in" height="0.2671in"
		viewBox="0 0 23.6323 19.2312" xml:space="preserve" color-interpolation-filters="sRGB" class="st2">
	<v:documentProperties v:langID="1049" v:metric="true" v:viewMarkup="false"/>

	<style type="text/css">
	<![CDATA[
		.st1 {fill:#000000;stroke:none;stroke-linecap:butt;stroke-width:0.95625}
		.st2 {fill:none;fill-rule:evenodd;font-size:12px;overflow:visible;stroke-linecap:square;stroke-miterlimit:3}
	]]>
	</style>

	<g v:mID="0" v:index="1" v:groupContext="foregroundPage">
		<title>Страница-1</title>
		<v:pageProperties v:drawingScale="0.0393701" v:pageScale="0.0393701" v:drawingUnits="24" v:shadowOffsetX="9"
				v:shadowOffsetY="-9"/>
		<g id="shape1877-1" v:mID="1877" v:groupContext="shape" transform="translate(0.868325,-0.911708)">
			<title>Лист.1877</title>
			<path d="M17.47 8.35 L17.19 8.83 C17.09 9.01 16.87 9.09 16.68 9.02 C16.28 8.87 15.91 8.65 15.59 8.38 C15.43 8.26 15.39
						 8.03 15.49 7.85 L15.77 7.37 C15.54 7.09 15.35 6.78 15.23 6.44 L14.67 6.44 C14.47 6.44 14.29 6.29 14.26 6.09
						 C14.19 5.68 14.19 5.25 14.26 4.83 C14.29 4.62 14.47 4.47 14.67 4.47 L15.23 4.47 C15.35 4.13 15.54 3.82 15.77
						 3.54 L15.49 3.06 C15.39 2.88 15.43 2.65 15.59 2.53 C15.91 2.26 16.28 2.04 16.68 1.89 C16.87 1.82 17.09 1.9
						 17.19 2.08 L17.47 2.56 C17.83 2.5 18.19 2.5 18.54 2.56 L18.82 2.08 C18.92 1.9 19.14 1.82 19.34 1.89 C19.74
						 2.04 20.1 2.26 20.43 2.53 C20.58 2.65 20.62 2.88 20.52 3.06 L20.24 3.54 C20.48 3.82 20.66 4.13 20.78 4.47
						 L21.34 4.47 C21.55 4.47 21.72 4.62 21.76 4.82 C21.82 5.23 21.83 5.66 21.76 6.08 C21.72 6.29 21.55 6.44 21.34
						 6.44 L20.78 6.44 C20.66 6.78 20.48 7.09 20.24 7.37 L20.52 7.85 C20.62 8.03 20.58 8.26 20.43 8.38 C20.1 8.65
						 19.73 8.87 19.34 9.02 C19.14 9.09 18.92 9.01 18.82 8.83 L18.54 8.35 C18.19 8.41 17.83 8.41 17.47 8.35 ZM17.11
						 6.35 C18.42 7.36 19.91 5.87 18.9 4.56 C17.6 3.55 16.11 5.04 17.11 6.35 ZM13.2 11.57 L14.34 12.14 C14.69
						 12.34 14.84 12.76 14.7 13.13 C14.4 13.95 13.8 14.71 13.25 15.37 C13 15.67 12.57 15.74 12.23 15.55 L11.24
						 14.98 C10.69 15.44 10.06 15.81 9.37 16.05 L9.37 17.19 C9.37 17.59 9.09 17.92 8.71 17.99 C7.87 18.13 7 18.14
						 6.13 17.99 C5.74 17.92 5.45 17.59 5.45 17.19 L5.45 16.05 C4.76 15.81 4.13 15.44 3.59 14.98 L2.6 15.54 C2.26
						 15.74 1.82 15.66 1.57 15.36 C1.02 14.7 0.44 13.95 0.14 13.13 C0 12.76 0.15 12.34 0.5 12.14 L1.63 11.57 C1.49
						 10.87 1.49 10.14 1.63 9.42 L0.5 8.85 C0.15 8.65 0 8.23 0.14 7.86 C0.44 7.04 1.02 6.29 1.57 5.63 C1.82 5.33
						 2.26 5.25 2.6 5.45 L3.59 6.02 C4.13 5.56 4.76 5.19 5.45 4.95 L5.45 3.8 C5.45 3.41 5.73 3.07 6.12 3 C6.95
						 2.86 7.83 2.86 8.7 3 C9.09 3.07 9.37 3.41 9.37 3.8 L9.37 4.94 C10.06 5.19 10.69 5.55 11.24 6.02 L12.23 5.45
						 C12.56 5.25 13 5.33 13.25 5.63 C13.8 6.29 14.38 7.04 14.68 7.86 C14.82 8.23 14.69 8.65 14.34 8.85 L13.2
						 9.42 C13.33 10.13 13.33 10.86 13.2 11.57 ZM9.21 12.29 C11.22 9.68 8.23 6.69 5.62 8.7 C3.61 11.32 6.59 14.3
						 9.21 12.29 ZM17.47 18.49 L17.19 18.98 C17.09 19.16 16.87 19.23 16.68 19.16 C16.28 19.01 15.91 18.8 15.59
						 18.53 C15.43 18.4 15.39 18.17 15.49 18 L15.77 17.51 C15.54 17.24 15.35 16.92 15.23 16.58 L14.67 16.58 C14.47
						 16.58 14.29 16.43 14.26 16.23 C14.19 15.82 14.19 15.4 14.26 14.97 C14.29 14.77 14.47 14.62 14.67 14.62 L15.23
						 14.62 C15.35 14.28 15.54 13.96 15.77 13.69 L15.49 13.2 C15.39 13.03 15.43 12.8 15.59 12.67 C15.91 12.4 16.28
						 12.19 16.68 12.04 C16.87 11.97 17.09 12.04 17.19 12.22 L17.47 12.71 C17.83 12.64 18.19 12.64 18.54 12.71
						 L18.82 12.22 C18.92 12.04 19.14 11.97 19.34 12.04 C19.74 12.19 20.1 12.4 20.43 12.67 C20.58 12.8 20.62 13.03
						 20.52 13.2 L20.24 13.69 C20.48 13.96 20.66 14.28 20.78 14.62 L21.34 14.62 C21.55 14.62 21.72 14.76 21.76
						 14.97 C21.82 15.38 21.83 15.8 21.76 16.23 C21.72 16.43 21.55 16.58 21.34 16.58 L20.78 16.58 C20.66 16.92
						 20.48 17.24 20.24 17.51 L20.52 18 C20.62 18.17 20.58 18.4 20.43 18.53 C20.1 18.8 19.73 19.01 19.34 19.16
						 C19.14 19.23 18.92 19.16 18.82 18.98 L18.54 18.49 C18.19 18.56 17.83 18.56 17.47 18.49 ZM17.11 16.49 C18.42
						 17.5 19.91 16.01 18.9 14.7 C17.6 13.7 16.11 15.19 17.11 16.49 Z" class="st1"/>
		</g>
	</g>
</svg>
