<?xml version="1.0" encoding="UTF-8" standalone="no"?>
<!DOCTYPE svg PUBLIC "-//W3C//DTD SVG 1.1//EN" "http://www.w3.org/Graphics/SVG/1.1/DTD/svg11.dtd">
<!-- Создано Microsoft Visio, экспорт SVG Комментарии 1.svg Страница-1 -->
<svg xmlns="http://www.w3.org/2000/svg" xmlns:xlink="http://www.w3.org/1999/xlink" xmlns:ev="http://www.w3.org/2001/xml-events"
		xmlns:v="http://schemas.microsoft.com/visio/2003/SVGExtensions/" width="0.358125in" height="0.321597in"
		viewBox="0 0 25.785 23.155" xml:space="preserve" color-interpolation-filters="sRGB" class="st2">
	<v:documentProperties v:langID="1049" v:metric="true" v:viewMarkup="false"/>

	<style type="text/css">
	<![CDATA[
		.st1 {fill:#000000;stroke:none;stroke-linecap:butt;stroke-width:1.0625}
		.st2 {fill:none;fill-rule:evenodd;font-size:12px;overflow:visible;stroke-linecap:square;stroke-miterlimit:3}
	]]>
	</style>

	<g v:mID="0" v:index="1" v:groupContext="foregroundPage">
		<title>Страница-1</title>
		<v:pageProperties v:drawingScale="0.0393701" v:pageScale="0.0393701" v:drawingUnits="24" v:shadowOffsetX="9"
				v:shadowOffsetY="-9"/>
		<g id="shape753-1" v:mID="753" v:groupContext="shape" transform="translate(1.0625,-1.0625)">
			<title>Лист.615</title>
			<path d="M21.03 8.7 L17.09 8.7 L17.09 4.75 C17.09 3.3 15.91 2.13 14.46 2.13 L2.63 2.13 C1.18 2.13 0 3.3 0 4.75 L0 11.33
						 C0 12.78 1.18 13.96 2.63 13.96 L3.94 13.96 L3.94 16.09 C3.94 16.38 4.18 16.58 4.44 16.58 C4.54 16.58 4.64
						 16.56 4.73 16.49 L9.2 13.96 L14.46 13.96 C15.91 13.96 17.09 12.78 17.09 11.33 L17.09 10.01 L21.03 10.01
						 C21.76 10.01 22.35 10.6 22.35 11.33 L22.35 17.9 C22.35 18.62 21.76 19.21 21.03 19.21 L18.4 19.21 L18.4 21.25
						 L15.11 19.39 L14.81 19.21 L10.52 19.21 C9.79 19.21 9.2 18.62 9.2 17.9 L9.2 13.96 L7.89 14.7 L7.89 17.9 C7.89
						 19.35 9.07 20.53 10.52 20.53 L14.46 20.53 L18.93 23.06 C19.02 23.12 19.13 23.16 19.23 23.16 C19.48 23.16
						 19.72 22.96 19.72 22.66 L19.72 20.53 L21.03 20.53 C22.48 20.53 23.66 19.35 23.66 17.9 L23.66 11.33 C23.66
						 9.88 22.48 8.7 21.03 8.7 ZM15.77 11.33 C15.77 12.05 15.18 12.64 14.46 12.64 L8.86 12.64 L8.56 12.81 L5.26
						 14.68 L5.26 12.64 L2.63 12.64 C1.91 12.64 1.31 12.05 1.31 11.33 L1.31 4.75 C1.31 4.03 1.91 3.44 2.63 3.44
						 L14.46 3.44 C15.18 3.44 15.77 4.03 15.77 4.75 L15.77 11.33 Z" class="st1"/>
		</g>
	</g>
</svg>
