<?xml version="1.0" encoding="UTF-8" standalone="no"?>
<!DOCTYPE svg PUBLIC "-//W3C//DTD SVG 1.1//EN" "http://www.w3.org/Graphics/SVG/1.1/DTD/svg11.dtd">
<!-- Создано Microsoft Visio, экспорт SVG Конфигурация 1.svg Страница-1 -->
<svg xmlns="http://www.w3.org/2000/svg" xmlns:xlink="http://www.w3.org/1999/xlink" xmlns:ev="http://www.w3.org/2001/xml-events"
		xmlns:v="http://schemas.microsoft.com/visio/2003/SVGExtensions/" width="0.353412in" height="0.35818in"
		viewBox="0 0 25.4457 25.789" xml:space="preserve" color-interpolation-filters="sRGB" class="st2">
	<v:documentProperties v:langID="1049" v:metric="true" v:viewMarkup="false"/>

	<style type="text/css">
	<![CDATA[
		.st1 {fill:#000000;stroke:none;stroke-linecap:butt;stroke-width:0.75}
		.st2 {fill:none;fill-rule:evenodd;font-size:12px;overflow:visible;stroke-linecap:square;stroke-miterlimit:3}
	]]>
	</style>

	<g v:mID="0" v:index="1" v:groupContext="foregroundPage">
		<title>Страница-1</title>
		<v:pageProperties v:drawingScale="0.0393701" v:pageScale="0.0393701" v:drawingUnits="24" v:shadowOffsetX="9"
				v:shadowOffsetY="-9"/>
		<g id="shape291-1" v:mID="291" v:groupContext="shape" transform="translate(0.75,-0.75)">
			<title>Сервис</title>
			<v:userDefs>
				<v:ud v:nameU="msvShapeCategories" v:prompt="" v:val="VT4(Icon)"/>
				<v:ud v:nameU="visVersion" v:prompt="" v:val="VT0(15):26"/>
			</v:userDefs>
			<path d="M11.78 10.1 C12.44 8.15 11.95 6.03 10.52 4.57 C9.42 3.45 7.91 2.97 6.42 3.07 C7.6 4.27 9.35 6.05 9.35 6.05 L8.79
						 10.41 L4.5 10.98 C4.5 10.98 2.75 9.2 1.57 8 C1.47 9.52 1.94 11.05 3.04 12.17 C4.48 13.63 6.57 14.12 8.5
						 13.45 L9.38 13.14 L20.13 24.06 C20.42 24.36 20.89 24.36 21.18 24.06 L22.24 22.99 C22.53 22.7 22.53 22.22
						 22.24 21.92 L11.48 11 L11.78 10.1 ZM3.56 2.31 C6.13 0.9 9.4 1.29 11.58 3.5 C13.47 5.42 14 8.18 13.2 10.59
						 L23.29 20.85 C24.16 21.74 24.16 23.18 23.29 24.06 L22.24 25.13 C21.36 26.02 19.95 26.02 19.07 25.14 L8.98
						 14.88 C6.61 15.71 3.88 15.17 1.98 13.24 C-0.19 11.04 -0.58 7.71 0.82 5.1 L5.03 9.38 L7.46 9.06 L7.78 6.6
						 L3.56 2.31 Z" class="st1"/>
		</g>
	</g>
</svg>
