<?xml version="1.0" encoding="UTF-8" standalone="no"?>
<!DOCTYPE svg PUBLIC "-//W3C//DTD SVG 1.1//EN" "http://www.w3.org/Graphics/SVG/1.1/DTD/svg11.dtd">
<!-- Создано Microsoft Visio, экспорт SVG Копировать 3.svg Страница-1 -->
<svg xmlns="http://www.w3.org/2000/svg" xmlns:xlink="http://www.w3.org/1999/xlink" xmlns:ev="http://www.w3.org/2001/xml-events"
		xmlns:v="http://schemas.microsoft.com/visio/2003/SVGExtensions/" width="0.341096in" height="0.384403in"
		viewBox="0 0 24.5589 27.677" xml:space="preserve" color-interpolation-filters="sRGB" class="st2">
	<v:documentProperties v:langID="1049" v:metric="true" v:viewMarkup="false"/>

	<style type="text/css">
	<![CDATA[
		.st1 {fill:#000000;stroke:none;stroke-linecap:butt;stroke-width:1.36607}
		.st2 {fill:none;fill-rule:evenodd;font-size:12px;overflow:visible;stroke-linecap:square;stroke-miterlimit:3}
	]]>
	</style>

	<g v:mID="0" v:index="1" v:groupContext="foregroundPage">
		<title>Страница-1</title>
		<v:pageProperties v:drawingScale="0.0393701" v:pageScale="0.0393701" v:drawingUnits="24" v:shadowOffsetX="9"
				v:shadowOffsetY="-9"/>
		<g id="shape1921-1" v:mID="1921" v:groupContext="shape" transform="translate(1.36607,-1.36607)">
			<title>Лист.1921</title>
			<path d="M21.14 5.94 L18.61 3.42 A2.33858 2.33858 -180 0 0 16.96 2.73 L8.57 2.73 C7.28 2.73 6.24 3.78 6.24 5.07 L6.24
						 7.41 L2.34 7.41 C1.05 7.41 0 8.46 0 9.75 L0 25.34 C0 26.63 1.05 27.68 2.34 27.68 L13.25 27.68 C14.54 27.68
						 15.59 26.63 15.59 25.34 L15.59 23 L19.49 23 C20.78 23 21.83 21.95 21.83 20.66 L21.83 7.6 A2.33858 2.33858
						 -180 0 0 21.14 5.94 ZM12.96 25.34 L2.63 25.34 a0.292323 0.292323 0 0 1 -0.292323 -0.292323 L2.34 10.04 a0.292323
						 0.292323 0 0 1 0.292323 -0.292323 L6.24 9.75 L6.24 20.66 C6.24 21.95 7.28 23 8.57 23 L13.25 23 L13.25 25.05
						 a0.292323 0.292323 0 0 1 -0.292323 0.292323 ZM19.2 20.66 L8.87 20.66 a0.292323 0.292323 0 0 1 -0.292323
						 -0.292323 L8.57 5.36 a0.292323 0.292323 0 0 1 0.292323 -0.292323 L14.03 5.07 L14.03 9.36 C14.03 10 14.55
						 10.53 15.2 10.53 L19.49 10.53 L19.49 20.37 a0.292323 0.292323 0 0 1 -0.292323 0.292323 ZM19.49 8.19 L16.37
						 8.19 L16.37 5.07 L16.84 5.07 C16.92 5.07 16.99 5.1 17.05 5.16 L19.4 7.51 a0.292323 0.292323 0 0 1 0.0856019
						 0.206721 L19.49 8.19 Z" class="st1"/>
		</g>
	</g>
</svg>
