<?xml version="1.0" encoding="UTF-8" standalone="no"?>
<!DOCTYPE svg PUBLIC "-//W3C//DTD SVG 1.1//EN" "http://www.w3.org/Graphics/SVG/1.1/DTD/svg11.dtd">
<!-- Создано Microsoft Visio, экспорт SVG Конфигурация 5.svg Страница-1 -->
<svg xmlns="http://www.w3.org/2000/svg" xmlns:xlink="http://www.w3.org/1999/xlink" xmlns:ev="http://www.w3.org/2001/xml-events"
		xmlns:v="http://schemas.microsoft.com/visio/2003/SVGExtensions/" width="0.315834in" height="0.590268in"
		viewBox="0 0 22.74 42.4993" xml:space="preserve" color-interpolation-filters="sRGB" class="st4">
	<v:documentProperties v:langID="1049" v:metric="true" v:viewMarkup="false"/>

	<style type="text/css">
	<![CDATA[
		.st1 {fill:#000000}
		.st2 {stroke:#ffffff;stroke-linecap:round;stroke-linejoin:round;stroke-width:0.25}
		.st3 {fill:#000000;stroke:#ffffff;stroke-linecap:round;stroke-linejoin:round;stroke-width:0.25}
		.st4 {fill:none;fill-rule:evenodd;font-size:12px;overflow:visible;stroke-linecap:square;stroke-miterlimit:3}
	]]>
	</style>

	<g v:mID="0" v:index="1" v:groupContext="foregroundPage">
		<title>Страница-1</title>
		<v:pageProperties v:drawingScale="0.0393701" v:pageScale="0.0393701" v:drawingUnits="24" v:shadowOffsetX="9"
				v:shadowOffsetY="-9"/>
		<v:layer v:name="Блок-схема" v:index="0"/>
		<g id="group1878-1" transform="translate(0.125,-20)" v:mID="1878" v:groupContext="group" v:layerMember="0">
			<v:userDefs>
				<v:ud v:nameU="visVersion" v:prompt="" v:val="VT0(15):26"/>
				<v:ud v:nameU="ConnGap" v:prompt="" v:val="VT0(0.00012908222537757):24"/>
			</v:userDefs>
			<title>Аудит.1878</title>
			<g id="shape1879-2" v:mID="1879" v:groupContext="shape" v:layerMember="0" transform="translate(0,-4.89687)">
				<title>Лист.1879</title>
				<path d="M10.53 32.64 A7.35467 7.35467 25.97 0 1 10.53 32.99 A4.90847 4.90847 88.81 0 1 15.12 33.16 L16.44 30.77
							 L15.05 29.97 C15.06 29.86 15.06 29.75 15.06 29.63 C15.06 29.52 15.06 29.41 15.05 29.3 L16.44 28.5 L15.12
							 26.21 L13.73 27.02 C13.55 26.89 13.36 26.78 13.15 26.69 L13.15 25.07 L10.51 25.07 L10.51 26.69 C10.31
							 26.78 10.12 26.89 9.94 27.02 L8.54 26.21 L7.22 28.5 L8.62 29.3 C8.61 29.41 8.6 29.52 8.6 29.63 C8.6
							 29.75 8.61 29.86 8.62 29.97 L7.22 30.77 L8.54 33.06 L9.94 32.25 A1.85203 1.85203 -180 0 0 10.53 32.64
							 ZM11.83 30.92 C11.12 30.92 10.55 30.34 10.55 29.63 C10.55 28.93 11.12 28.35 11.83 28.35 C12.54 28.35
							 13.11 28.93 13.11 29.63 C13.11 30.34 12.54 30.92 11.83 30.92 ZM9.78 33.42 L9.48 32.97 L7.75 33.94 C7.54
							 33.79 7.31 33.65 7.07 33.54 L7.07 31.62 L3.92 31.62 L3.92 33.54 C3.68 33.65 3.45 33.79 3.24 33.94 L1.57
							 32.98 L0 35.7 L1.67 36.66 C1.65 36.79 1.64 36.93 1.64 37.06 C1.64 37.19 1.65 37.33 1.67 37.46 L0 38.42
							 L1.57 41.14 L3.24 40.18 C3.45 40.33 3.68 40.47 3.92 40.58 L3.92 42.5 L7.07 42.5 L7.07 40.58 C7.31 40.47
							 7.54 40.33 7.75 40.18 L9.45 41.09 A4.90512 4.90512 84.39 0 1 9.78 33.42 L9.78 33.42 ZM5.5 38.65 C4.62
							 38.65 3.91 37.94 3.91 37.07 C3.91 36.19 4.62 35.48 5.5 35.48 C6.37 35.48 7.08 36.19 7.08 37.07 C7.08
							 37.94 6.37 38.65 5.5 38.65 ZM15 34.4 A3.79273 3.79273 -180 0 0 10.12 40.21 L11.94 39.39 L10.87 36.99
							 L12.04 35.71 L14.36 36.44 L15 34.4 Z" class="st1"/>
				<path d="M10.53 32.64 A7.35467 7.35467 25.97 0 1 10.53 32.99 A4.90847 4.90847 88.81 0 1 15.12 33.16 L16.44 30.77
							 L15.05 29.97 C15.06 29.86 15.06 29.75 15.06 29.63 C15.06 29.52 15.06 29.41 15.05 29.3 L16.44 28.5 L15.12
							 26.21 L13.73 27.02 C13.55 26.89 13.36 26.78 13.15 26.69 L13.15 25.07 L10.51 25.07 L10.51 26.69 C10.31
							 26.78 10.12 26.89 9.94 27.02 L8.54 26.21 L7.22 28.5 L8.62 29.3 C8.61 29.41 8.6 29.52 8.6 29.63 C8.6
							 29.75 8.61 29.86 8.62 29.97 L7.22 30.77 L8.54 33.06 L9.94 32.25 A1.85203 1.85203 -180 0 0 10.53 32.64M11.83
							 30.92 C11.12 30.92 10.55 30.34 10.55 29.63 C10.55 28.93 11.12 28.35 11.83 28.35 C12.54 28.35 13.11 28.93
							 13.11 29.63 C13.11 30.34 12.54 30.92 11.83 30.92M9.78 33.42 L9.48 32.97 L7.75 33.94 C7.54 33.79 7.31
							 33.65 7.07 33.54 L7.07 31.62 L3.92 31.62 L3.92 33.54 C3.68 33.65 3.45 33.79 3.24 33.94 L1.57 32.98 L0
							 35.7 L1.67 36.66 C1.65 36.79 1.64 36.93 1.64 37.06 C1.64 37.19 1.65 37.33 1.67 37.46 L0 38.42 L1.57
							 41.14 L3.24 40.18 C3.45 40.33 3.68 40.47 3.92 40.58 L3.92 42.5 L7.07 42.5 L7.07 40.58 C7.31 40.47 7.54
							 40.33 7.75 40.18 L9.45 41.09 A4.90512 4.90512 84.39 0 1 9.78 33.42M5.5 38.65 C4.62 38.65 3.91 37.94
							 3.91 37.07 C3.91 36.19 4.62 35.48 5.5 35.48 C6.37 35.48 7.08 36.19 7.08 37.07 C7.08 37.94 6.37 38.65
							 5.5 38.65M15 34.4 A3.79273 3.79273 -180 0 0 10.12 40.21 L11.94 39.39 L10.87 36.99 L12.04 35.71 L14.36
							 36.44 L15 34.4" class="st2"/>
			</g>
			<g id="shape1880-5" v:mID="1880" v:groupContext="shape" v:layerMember="0" transform="translate(7.75588,-0.16639)">
				<title>Лист.1880</title>
				<path d="M6.07 37.41 L9.65 33.82 C9.74 33.45 9.79 33.06 9.79 32.65 C9.79 29.95 7.6 27.76 4.9 27.76 C2.19 27.76 0
							 29.95 0 32.65 C0 35.36 2.19 37.55 4.9 37.55 C5.3 37.55 5.69 37.5 6.07 37.41 ZM7.58 35.33 C6.1 36.81
							 3.69 36.81 2.21 35.33 C0.73 33.86 0.73 31.45 2.21 29.97 C3.69 28.49 6.1 28.49 7.58 29.97 C9.06 31.45
							 9.06 33.86 7.58 35.33 ZM9.65 33.82 L6.05 37.43 C6.58 37.96 6.8 38.37 7.69 37.48 C9.02 36.14 8.04 37.27
							 8.54 37.78 C12.65 41.95 13.44 43.19 14.49 42.15 L14.49 42.15 C14.49 42.15 14.49 42.15 14.49 42.14 C14.49
							 42.14 14.49 42.14 14.49 42.14 C15.35 41.29 13.96 40.25 10.03 36.29 C9.53 35.79 8.38 36.78 9.72 35.45
							 C10.62 34.56 10.21 34.34 9.67 33.8 L9.65 33.82 Z" class="st3"/>
			</g>
		</g>
	</g>
</svg>
