<?xml version="1.0" encoding="UTF-8" standalone="no"?>
<!DOCTYPE svg PUBLIC "-//W3C//DTD SVG 1.1//EN" "http://www.w3.org/Graphics/SVG/1.1/DTD/svg11.dtd">
<!-- Создано Microsoft Visio, экспорт SVG Комментарии 2.svg Страница-1 -->
<svg xmlns="http://www.w3.org/2000/svg" xmlns:xlink="http://www.w3.org/1999/xlink" xmlns:ev="http://www.w3.org/2001/xml-events"
		xmlns:v="http://schemas.microsoft.com/visio/2003/SVGExtensions/" width="0.27911in" height="0.255401in"
		viewBox="0 0 20.0959 18.3889" xml:space="preserve" color-interpolation-filters="sRGB" class="st2">
	<v:documentProperties v:langID="1049" v:metric="true" v:viewMarkup="false"/>

	<style type="text/css">
	<![CDATA[
		.st1 {fill:#000000;stroke:none;stroke-linecap:butt;stroke-width:0.0612}
		.st2 {fill:none;fill-rule:evenodd;font-size:12px;overflow:visible;stroke-linecap:square;stroke-miterlimit:3}
	]]>
	</style>

	<g v:mID="0" v:index="1" v:groupContext="foregroundPage">
		<title>Страница-1</title>
		<v:pageProperties v:drawingScale="0.0393701" v:pageScale="0.0393701" v:drawingUnits="24" v:shadowOffsetX="9"
				v:shadowOffsetY="-9"/>
		<g id="group2066-1" transform="translate(0.0464745,-0.0612)" v:mID="2066" v:groupContext="group">
			<title>Лист.2066</title>
			<g id="shape795-2" v:mID="795" v:groupContext="shape" transform="translate(-2.19824E-14,18.4878) scale(1,-1)">
				<title>Лист.795</title>
				<path d="M1.51 18.3 C0.81 18.11 0.2 17.47 0.06 16.76 C0 16.46 0 8.23 0.06 7.93 C0.21 7.2 0.85 6.57 1.58 6.41 C1.69
							 6.39 1.98 6.37 2.22 6.37 L2.65 6.37 L2.65 5.91 C2.65 5.14 2.8 4.72 3.26 4.26 C3.73 3.79 4.19 3.63 4.96
							 3.67 L5.4 3.7 L5.4 1.9 L5.4 0.1 L7.21 1.9 L9.01 3.7 L13.6 3.68 C18.71 3.65 18.43 3.63 18.94 3.9 C19.42
							 4.16 19.83 4.72 19.94 5.26 C19.98 5.4 19.99 6.79 19.99 9.68 C19.99 14.29 20 14.11 19.76 14.59 C19.61
							 14.89 19.2 15.29 18.89 15.44 C18.55 15.6 18.3 15.65 17.79 15.65 L17.35 15.65 L17.35 16.11 C17.35 16.4
							 17.33 16.66 17.3 16.8 C17.1 17.54 16.53 18.11 15.79 18.3 C15.46 18.39 1.84 18.39 1.51 18.3 ZM15.62 17.04
							 C15.98 16.89 16.09 16.66 16.1 16.07 L16.1 15.65 L10.28 15.65 C6.23 15.65 4.4 15.64 4.25 15.61 C3.71
							 15.5 3.15 15.07 2.89 14.6 C2.65 14.13 2.65 14.22 2.65 10.77 L2.65 7.63 L2.25 7.63 C1.77 7.63 1.58 7.69
							 1.41 7.93 L1.29 8.07 L1.29 12.35 L1.29 16.62 L1.4 16.78 C1.46 16.87 1.57 16.97 1.67 17.02 L1.84 17.1
							 L8.66 17.1 C14.72 17.1 15.49 17.1 15.62 17.04 ZM18.32 14.32 C18.51 14.23 18.64 14.08 18.69 13.88 C18.72
							 13.79 18.73 12.4 18.72 9.57 L18.71 5.4 L18.6 5.24 C18.54 5.14 18.43 5.05 18.32 4.99 L18.14 4.91 L13.3
							 4.93 L8.46 4.97 L7.56 4.07 L6.66 3.17 L6.66 4.07 L6.66 4.96 L5.53 4.95 L4.4 4.93 L4.23 5.04 C4.14 5.1
							 4.04 5.21 3.99 5.32 C3.91 5.49 3.91 5.53 3.91 9.65 C3.91 13.65 3.91 13.81 3.98 13.97 C4.06 14.15 4.23
							 14.3 4.41 14.35 C4.47 14.37 7.59 14.39 11.34 14.39 C17.9 14.39 18.17 14.39 18.32 14.32 Z" class="st1"/>
			</g>
			<g id="shape796-4" v:mID="796" v:groupContext="shape" transform="translate(5.2641,23.9016) scale(1,-1)">
				<title>Лист.796</title>
				<path d="M0.31 18.31 C0.1 18.18 0 18.01 0 17.76 C0 17.58 0.02 17.51 0.11 17.39 C0.32 17.11 0.13 17.13 3.42 17.14
							 C6.36 17.15 6.38 17.15 6.49 17.23 C6.88 17.52 6.88 18 6.49 18.29 C6.38 18.37 6.36 18.37 3.41 18.38 C0.54
							 18.39 0.43 18.39 0.31 18.31 Z" class="st1"/>
			</g>
			<g id="shape797-6" v:mID="797" v:groupContext="shape" transform="translate(5.3821,26.5751) scale(1,-1)">
				<title>Лист.797</title>
				<path d="M0.29 18.3 C0.07 18.15 0 18.02 0 17.76 C0 17.51 0.06 17.39 0.27 17.23 C0.38 17.15 0.39 17.15 6 17.15 L11.61
							 17.15 L11.72 17.23 C12.11 17.52 12.11 18 11.72 18.29 L11.61 18.37 L6.02 18.38 L0.42 18.39 L0.29 18.3
							 Z" class="st1"/>
			</g>
			<g id="shape798-8" v:mID="798" v:groupContext="shape" transform="translate(5.18155,29.2487) scale(1,-1)">
				<title>Лист.798</title>
				<path d="M0.46 18.32 C0.05 18.1 0 17.54 0.37 17.26 L0.51 17.15 L4.8 17.15 L9.1 17.15 L9.21 17.23 C9.6 17.52 9.6 18
							 9.21 18.29 C9.1 18.37 9.09 18.37 4.85 18.38 C0.76 18.39 0.59 18.39 0.46 18.32 Z" class="st1"/>
			</g>
		</g>
	</g>
</svg>
