<?xml version="1.0" encoding="UTF-8" standalone="no"?>
<!DOCTYPE svg PUBLIC "-//W3C//DTD SVG 1.1//EN" "http://www.w3.org/Graphics/SVG/1.1/DTD/svg11.dtd">
<!-- Создано Microsoft Visio, экспорт SVG Конфигурация 3.svg Страница-1 -->
<svg xmlns="http://www.w3.org/2000/svg" xmlns:xlink="http://www.w3.org/1999/xlink" xmlns:ev="http://www.w3.org/2001/xml-events"
		xmlns:v="http://schemas.microsoft.com/visio/2003/SVGExtensions/" width="0.332579in" height="0.267263in"
		viewBox="0 0 23.9457 19.2429" xml:space="preserve" color-interpolation-filters="sRGB" class="st2">
	<v:documentProperties v:langID="1049" v:metric="true" v:viewMarkup="false"/>

	<style type="text/css">
	<![CDATA[
		.st1 {fill:#000000;stroke:none;stroke-width:0.75}
		.st2 {fill:none;fill-rule:evenodd;font-size:12px;overflow:visible;stroke-linecap:square;stroke-miterlimit:3}
	]]>
	</style>

	<g v:mID="0" v:index="1" v:groupContext="foregroundPage">
		<title>Страница-1</title>
		<v:pageProperties v:drawingScale="0.0393701" v:pageScale="0.0393701" v:drawingUnits="24" v:shadowOffsetX="9"
				v:shadowOffsetY="-9"/>
		<g id="shape1875-1" v:mID="1875" v:groupContext="shape">
			<title>Лист.1875</title>
			<path d="M20.14 7.41 L20.05 7.26 C19.89 7.27 19.75 7.27 19.59 7.26 L19.5 7.41 C19.28 7.75 18.86 7.91 18.48 7.79 C17.96
						 7.63 17.62 7.46 17.2 7.11 C16.86 6.84 16.78 6.36 17 5.98 L17.09 5.82 C17.01 5.69 16.93 5.56 16.86 5.43 L16.52
						 5.43 C16.09 5.43 15.73 5.12 15.65 4.7 C15.55 4.19 15.55 3.79 15.65 3.26 C15.73 2.84 16.1 2.54 16.53 2.54
						 L16.86 2.54 C16.93 2.4 17.01 2.27 17.09 2.14 L16.99 1.97 C16.78 1.6 16.86 1.13 17.19 0.85 C17.58 0.51 17.92
						 0.31 18.43 0.14 C18.84 -0 19.28 0.16 19.5 0.53 L19.59 0.7 C19.75 0.69 19.89 0.69 20.05 0.7 L20.14 0.53 C20.36
						 0.16 20.8 -0 21.21 0.14 C21.7 0.31 22.04 0.5 22.46 0.85 C22.78 1.13 22.86 1.6 22.65 1.98 L22.55 2.14 C22.63
						 2.27 22.71 2.4 22.78 2.54 L22.97 2.54 C23.4 2.54 23.76 2.84 23.85 3.27 C23.94 3.78 23.95 4.17 23.84 4.7
						 C23.76 5.12 23.39 5.43 22.96 5.43 L22.78 5.43 C22.71 5.56 22.63 5.69 22.55 5.82 L22.64 5.98 C22.86 6.36
						 22.77 6.84 22.44 7.12 C22.04 7.44 21.7 7.61 21.17 7.78 C20.78 7.9 20.36 7.75 20.14 7.41 ZM20.59 6.12 L20.99
						 6.8 C21.24 6.7 21.47 6.56 21.69 6.4 L21.29 5.72 L21.53 5.44 C21.71 5.23 21.85 4.99 21.94 4.73 L22.06 4.38
						 L22.85 4.38 C22.88 4.12 22.88 3.85 22.85 3.58 L22.06 3.58 L21.94 3.24 C21.85 2.98 21.71 2.74 21.53 2.52
						 L21.29 2.25 L21.68 1.56 C21.47 1.4 21.23 1.26 20.99 1.16 L20.59 1.84 L20.23 1.77 C19.96 1.72 19.68 1.72
						 19.41 1.77 L19.05 1.84 L18.65 1.16 C18.41 1.26 18.17 1.4 17.96 1.56 L18.35 2.24 L18.11 2.52 C17.94 2.73
						 17.79 2.97 17.71 3.23 L17.58 3.58 L16.8 3.58 C16.76 3.84 16.76 4.11 16.8 4.38 L17.58 4.38 L17.71 4.73 C17.8
						 4.99 17.94 5.22 18.11 5.44 L18.35 5.72 L17.96 6.4 C18.17 6.56 18.41 6.7 18.65 6.8 L19.05 6.12 L19.41 6.19
						 C19.68 6.24 19.96 6.24 20.23 6.19 L20.59 6.12 ZM5.5 17.01 L5.5 15.84 C5.02 15.63 4.56 15.37 4.14 15.05 L3.12
						 15.64 C2.75 15.85 2.29 15.78 2.01 15.47 C1.11 14.49 0.58 13.63 0.13 12.19 C0 11.79 0.17 11.36 0.53 11.15
						 L1.55 10.56 C1.48 10.03 1.48 9.51 1.55 8.99 L0.53 8.4 C0.17 8.19 0 7.76 0.13 7.36 C0.58 5.93 1.1 5.06 2.01
						 4.08 C2.29 3.77 2.76 3.7 3.12 3.91 L4.14 4.5 C4.56 4.18 5.01 3.92 5.49 3.71 L5.49 2.54 C5.49 2.11 5.78 1.75
						 6.19 1.66 C7.48 1.37 8.5 1.34 9.98 1.66 C10.39 1.75 10.68 2.12 10.68 2.54 L10.68 3.71 C11.16 3.92 11.62
						 4.18 12.04 4.49 L13.06 3.91 C13.42 3.7 13.88 3.77 14.17 4.08 C15.17 5.18 15.71 6.16 16.11 7.37 C16.23 7.76
						 16.08 8.19 15.73 8.4 L14.8 8.99 C14.86 9.51 14.86 10.04 14.8 10.56 L15.84 11.21 C16.16 11.41 16.33 11.79
						 16.25 12.16 C15.99 13.33 15.02 14.57 14.16 15.48 C13.88 15.79 13.42 15.85 13.06 15.65 L12.04 15.05 C11.62
						 15.37 11.16 15.63 10.68 15.84 L10.68 17.02 C10.68 17.43 10.39 17.8 9.98 17.89 C8.59 18.2 7.57 18.19 6.19
						 17.89 C5.79 17.79 5.5 17.43 5.5 17.01 ZM6.69 16.78 C7.61 16.97 8.57 16.97 9.49 16.78 L9.49 15.01 L9.89 14.86
						 C10.52 14.64 11.09 14.31 11.6 13.88 L11.92 13.6 L13.46 14.49 C14.09 13.78 14.73 12.95 15.03 12.06 L13.49
						 11.17 L13.56 10.76 C13.68 10.11 13.68 9.44 13.56 8.78 L13.49 8.37 L15.03 7.48 C14.73 6.59 14.09 5.76 13.46
						 5.05 L11.92 5.94 L11.6 5.67 C11.09 5.23 10.52 4.9 9.89 4.68 L9.49 4.54 L9.49 2.77 C8.57 2.58 7.61 2.58 6.69
						 2.77 L6.69 4.54 L6.29 4.68 C5.66 4.9 5.09 5.24 4.58 5.67 L4.26 5.95 L2.72 5.06 A7.15615 7.15615 -180 0 0
						 1.31 7.48 L2.86 8.37 L2.78 8.79 C2.66 9.44 2.66 10.11 2.78 10.76 L2.86 11.18 L1.31 12.07 C1.62 12.96 2.09
						 13.79 2.72 14.5 L4.26 13.61 L4.58 13.88 C5.09 14.32 5.66 14.65 6.29 14.87 L6.69 15.01 L6.69 16.78 ZM8.12
						 12.86 C6.42 12.86 5.03 11.48 5.03 9.77 C5.03 8.07 6.42 6.69 8.12 6.69 C9.82 6.69 11.2 8.07 11.2 9.77 C11.2
						 11.48 9.82 12.86 8.12 12.86 ZM8.12 7.88 C7.07 7.88 6.22 8.73 6.22 9.77 C6.22 10.82 7.07 11.67 8.12 11.67
						 C9.16 11.67 10.01 10.82 10.01 9.77 C10.01 8.73 9.16 7.88 8.12 7.88 ZM20.14 18.74 L20.05 18.6 C19.89 18.61
						 19.75 18.61 19.59 18.6 L19.5 18.74 C19.28 19.09 18.86 19.24 18.48 19.12 C17.96 18.96 17.62 18.79 17.2 18.45
						 C16.86 18.17 16.78 17.69 17 17.31 L17.09 17.15 C17.01 17.03 16.93 16.9 16.86 16.76 L16.52 16.76 C16.09 16.76
						 15.73 16.45 15.65 16.03 C15.55 15.52 15.55 15.13 15.65 14.6 C15.73 14.18 16.1 13.87 16.53 13.87 L16.86 13.87
						 C16.93 13.73 17.01 13.6 17.09 13.48 L16.99 13.31 C16.78 12.94 16.86 12.46 17.19 12.18 C17.58 11.84 17.92
						 11.65 18.43 11.47 C18.84 11.33 19.28 11.5 19.5 11.87 L19.59 12.03 C19.75 12.02 19.89 12.02 20.05 12.03 L20.14
						 11.87 C20.36 11.5 20.8 11.33 21.21 11.48 C21.7 11.64 22.04 11.83 22.46 12.19 C22.78 12.47 22.86 12.94 22.65
						 13.31 L22.55 13.48 C22.63 13.6 22.71 13.73 22.78 13.87 L22.97 13.87 C23.4 13.87 23.76 14.18 23.85 14.6 C23.94
						 15.11 23.95 15.5 23.84 16.03 C23.76 16.45 23.39 16.76 22.96 16.76 L22.78 16.76 C22.71 16.9 22.63 17.03 22.55
						 17.15 L22.64 17.31 C22.86 17.69 22.77 18.17 22.44 18.45 C22.04 18.78 21.7 18.95 21.17 19.12 C20.78 19.24
						 20.36 19.08 20.14 18.74 ZM20.59 17.45 L20.99 18.13 C21.24 18.03 21.47 17.9 21.69 17.73 L21.29 17.05 L21.53
						 16.77 C21.71 16.56 21.85 16.32 21.94 16.06 L22.06 15.71 L22.85 15.71 C22.88 15.45 22.88 15.18 22.85 14.91
						 L22.06 14.91 L21.94 14.57 C21.85 14.31 21.71 14.07 21.53 13.86 L21.29 13.58 L21.69 12.89 C21.47 12.73 21.24
						 12.6 20.99 12.49 L20.59 13.17 L20.23 13.11 C19.96 13.05 19.68 13.05 19.41 13.11 L19.05 13.17 L18.65 12.49
						 C18.41 12.6 18.17 12.73 17.96 12.89 L18.35 13.58 L18.11 13.86 C17.94 14.07 17.79 14.31 17.71 14.57 L17.58
						 14.91 L16.8 14.91 C16.76 15.18 16.76 15.45 16.8 15.71 L17.58 15.71 L17.71 16.06 C17.8 16.32 17.94 16.56
						 18.11 16.77 L18.35 17.05 L17.96 17.73 C18.17 17.9 18.41 18.03 18.65 18.13 L19.05 17.45 L19.41 17.52 C19.68
						 17.57 19.96 17.57 20.23 17.52 L20.59 17.45 ZM20.94 15.28 C20.94 14.63 20.4 14.09 19.75 14.09 C19.09 14.09
						 18.55 14.63 18.55 15.28 C18.55 15.94 19.09 16.48 19.75 16.48 C20.4 16.48 20.94 15.94 20.94 15.28 ZM20.94
						 3.95 C20.94 3.3 20.4 2.76 19.75 2.76 C19.09 2.76 18.55 3.3 18.55 3.95 C18.55 4.61 19.09 5.15 19.75 5.15
						 C20.4 5.15 20.94 4.61 20.94 3.95 Z" class="st1"/>
		</g>
	</g>
</svg>
