<?xml version="1.0" encoding="UTF-8" standalone="no"?>
<!DOCTYPE svg PUBLIC "-//W3C//DTD SVG 1.1//EN" "http://www.w3.org/Graphics/SVG/1.1/DTD/svg11.dtd">
<!-- Создано Microsoft Visio, экспорт SVG КТР - PMM - 1.svg Страница-1 -->
<svg xmlns="http://www.w3.org/2000/svg" xmlns:xlink="http://www.w3.org/1999/xlink" xmlns:ev="http://www.w3.org/2001/xml-events"
		xmlns:v="http://schemas.microsoft.com/visio/2003/SVGExtensions/" width="0.333432in" height="0.287868in"
		viewBox="0 0 24.0071 20.7265" xml:space="preserve" color-interpolation-filters="sRGB" class="st3">
	<v:documentProperties v:langID="1049" v:metric="true" v:viewMarkup="false"/>

	<style type="text/css">
	<![CDATA[
		.st1 {fill:#ffffff;stroke:none;stroke-linecap:butt;stroke-width:1.19531}
		.st2 {fill:#ffffff;stroke:none;stroke-linecap:round;stroke-linejoin:round;stroke-width:0.75}
		.st3 {fill:none;fill-rule:evenodd;font-size:12px;overflow:visible;stroke-linecap:square;stroke-miterlimit:3}
	]]>
	</style>

	<g v:mID="0" v:index="1" v:groupContext="foregroundPage">
		<title>Страница-1</title>
		<v:pageProperties v:drawingScale="0.0393701" v:pageScale="0.0393701" v:drawingUnits="24" v:shadowOffsetX="9"
				v:shadowOffsetY="-9"/>
		<g id="group3296-1" transform="translate(0.375,-0.375)" v:mID="3296" v:groupContext="group">
			<title>Лист.3296</title>
			<g id="shape3297-2" v:mID="3297" v:groupContext="shape" transform="translate(11.9599,-6.49202)">
				<title>Лист.544</title>
				<path d="M3.68 20.63 L0.21 18.1 C0.07 18.01 0 17.85 0 17.7 L0 10.88 C0 10.6 0.24 10.36 0.52 10.36 L1.11 10.36 C1.4
							 10.36 1.62 10.6 1.62 10.88 L1.62 17.12 L4.63 19.32 C4.87 19.48 4.92 19.81 4.75 20.03 L4.4 20.52 C4.23
							 20.75 3.91 20.79 3.68 20.63 Z" class="st1"/>
			</g>
			<g id="shape3298-4" v:mID="3298" v:groupContext="shape">
				<title>Лист.3298</title>
				<path d="M5.14 7.12 L10 11.56 L6.1 11.56 A7.77157 7.77157 -180 1 0 14.02 2.29 L14.02 0.75 A10.0028 10.0028 0 1 1
							 3.29 11.56 L0 11.56 L5.14 7.12 Z" class="st2"/>
			</g>
		</g>
	</g>
</svg>
