<?xml version="1.0" encoding="UTF-8" standalone="no"?>
<!DOCTYPE svg PUBLIC "-//W3C//DTD SVG 1.1//EN" "http://www.w3.org/Graphics/SVG/1.1/DTD/svg11.dtd">
<!-- Создано Microsoft Visio, экспорт SVG Настройки 1.svg Страница-1 -->
<svg xmlns="http://www.w3.org/2000/svg" xmlns:xlink="http://www.w3.org/1999/xlink" xmlns:ev="http://www.w3.org/2001/xml-events"
		xmlns:v="http://schemas.microsoft.com/visio/2003/SVGExtensions/" width="0.398551in" height="0.353412in"
		viewBox="0 0 28.6957 25.4457" xml:space="preserve" color-interpolation-filters="sRGB" class="st2">
	<v:documentProperties v:langID="1049" v:metric="true" v:viewMarkup="false"/>

	<style type="text/css">
	<![CDATA[
		.st1 {fill:#000000;stroke:none;stroke-linecap:butt;stroke-width:0.75}
		.st2 {fill:none;fill-rule:evenodd;font-size:12px;overflow:visible;stroke-linecap:square;stroke-miterlimit:3}
	]]>
	</style>

	<g v:mID="0" v:index="1" v:groupContext="foregroundPage">
		<title>Страница-1</title>
		<v:pageProperties v:drawingScale="0.0393701" v:pageScale="0.0393701" v:drawingUnits="24" v:shadowOffsetX="9"
				v:shadowOffsetY="-9"/>
		<g id="shape1881-1" v:mID="1881" v:groupContext="shape" transform="translate(0.75,-0.75)">
			<title>Настройка.1881</title>
			<v:userDefs>
				<v:ud v:nameU="msvShapeCategories" v:prompt="" v:val="VT4(Icon)"/>
				<v:ud v:nameU="visVersion" v:prompt="" v:val="VT0(15):26"/>
			</v:userDefs>
			<path d="M21.96 16.53 C21.5 16.33 20.01 15.7 20.01 15.7 L20.11 14.47 L20.19 13.43 L20.06 11.45 L21.04 10.89 C21.04 10.89
						 21.53 10.68 21.99 10.49 C21.66 9.68 21.52 9.35 21.19 8.53 C20.72 8.73 19.19 9.36 19.19 9.36 L18.43 8.41
						 C18.06 7.95 17.61 7.51 17.04 7.07 L16.14 6.37 L16.5 5.27 C16.5 5.27 16.71 4.75 16.92 4.26 C16.11 3.92 15.77
						 3.79 14.96 3.45 C14.75 3.97 14.11 5.53 14.11 5.53 L12.92 5.42 C12.31 5.36 11.68 5.37 11.05 5.45 L9.92 5.61
						 L9.39 4.56 C9.39 4.56 9.16 4.01 8.93 3.48 C8.13 3.82 7.79 3.96 6.99 4.3 C7.23 4.87 7.9 6.47 7.9 6.47 L6.98
						 7.24 C6.55 7.6 6.14 8.03 5.74 8.55 L5.05 9.45 L3.94 9.09 C3.94 9.09 3.34 8.85 2.75 8.61 C2.43 9.43 2.29
						 9.77 1.97 10.58 C2.57 10.82 4.17 11.46 4.17 11.46 C4.17 11.46 4.07 13.28 4.06 13.43 C4.07 13.56 4.1 13.96
						 4.1 13.97 C4.1 13.97 4.19 14.94 4.19 14.94 L3.61 15.46 C3.44 15.64 3.38 15.68 1.94 16.25 C2.25 17.06 2.39
						 17.4 2.71 18.22 C3.3 17.99 4.98 17.33 4.98 17.33 L5.85 18.52 C6.11 18.85 6.48 19.22 6.94 19.6 L7.79 20.32
						 L7.41 21.39 C7.41 21.39 7.15 21.98 6.9 22.58 C7.7 22.92 8.03 23.07 8.84 23.41 C9.07 22.87 9.77 21.26 9.77
						 21.26 L10.99 21.42 C11.56 21.51 12.18 21.52 12.82 21.46 L13.93 21.37 L14.43 22.39 C14.43 22.39 14.65 22.95
						 14.87 23.5 C15.68 23.17 16.02 23.04 16.83 22.71 C16.63 22.21 15.98 20.6 15.98 20.6 L17.2 19.72 C17.54 19.44
						 17.94 19.04 18.35 18.55 L19.06 17.68 L20.14 18.05 C20.14 18.05 20.65 18.27 21.14 18.48 C21.48 17.67 21.62
						 17.33 21.96 16.53 ZM21.6 14.66 C21.6 14.66 21.59 14.7 21.58 14.74 C21.79 14.83 23.92 15.73 23.92 15.73 L21.94
						 20.44 C21.94 20.44 19.76 19.52 19.56 19.43 C19.53 19.46 19.5 19.5 19.5 19.5 C19.03 20.07 18.57 20.54 18.07
						 20.93 C18.07 20.93 17.92 21.05 17.81 21.13 C17.89 21.34 18.77 23.54 18.77 23.54 L14.04 25.45 C14.04 25.45
						 13.12 23.15 13.04 22.95 C13 22.95 12.95 22.95 12.95 22.95 C12.19 23.02 11.46 23 10.78 22.91 C10.78 22.91
						 10.73 22.9 10.69 22.89 C10.6 23.1 9.62 25.38 9.62 25.38 L4.93 23.36 C4.93 23.36 5.95 21.01 6.04 20.8 C6.01
						 20.78 5.97 20.75 5.97 20.75 C5.44 20.3 5.01 19.86 4.64 19.4 C4.64 19.4 4.53 19.25 4.45 19.14 C4.24 19.23
						 1.86 20.16 1.86 20.16 L0 15.4 C0 15.4 2.55 14.4 2.56 14.4 C2.56 14.4 2.6 14.38 2.63 14.37 C2.62 14.25 2.6
						 14.07 2.6 14.07 L2.56 13.43 C2.56 13.43 2.61 12.64 2.62 12.45 C2.42 12.37 0.02 11.41 0.02 11.41 L1.92 6.67
						 C1.92 6.67 4.29 7.62 4.5 7.7 C4.53 7.67 4.55 7.64 4.55 7.64 C5.02 7.03 5.5 6.52 6.03 6.08 C6.03 6.08 6.06
						 6.06 6.09 6.03 C6.01 5.83 5.03 3.5 5.03 3.5 L9.73 1.52 C9.73 1.52 10.68 3.77 10.77 3.98 C10.81 3.97 10.85
						 3.97 10.85 3.97 C11.6 3.87 12.35 3.85 13.07 3.93 C13.07 3.93 13.11 3.93 13.15 3.93 C13.23 3.73 14.15 1.5
						 14.15 1.5 L18.87 3.44 C18.87 3.44 17.97 5.63 17.89 5.84 C17.92 5.86 17.95 5.89 17.95 5.89 C18.62 6.4 19.15
						 6.92 19.59 7.47 C19.59 7.47 19.62 7.51 19.66 7.55 C19.86 7.46 22 6.58 22 6.58 L23.95 11.31 C23.95 11.31
						 21.81 12.19 21.6 12.27 C21.61 12.31 21.61 12.35 21.61 12.35 C21.66 12.77 21.68 13.11 21.68 13.43 C21.68
						 13.8 21.66 14.19 21.6 14.66 ZM14.13 15.96 C15.52 14.85 15.74 12.82 14.63 11.44 C13.53 10.05 11.5 9.82 10.12
						 10.93 C8.73 12.04 8.51 14.07 9.61 15.45 C10.72 16.84 12.74 17.07 14.13 15.96 ZM12.64 8.76 C13.9 8.9 15.02
						 9.52 15.8 10.5 C17.42 12.53 17.09 15.5 15.07 17.13 C14.08 17.91 12.85 18.27 11.6 18.13 C10.35 17.99 9.23
						 17.37 8.44 16.39 C7.75 15.52 7.41 14.48 7.41 13.45 C7.41 12.06 8.02 10.69 9.18 9.76 C10.16 8.98 11.39 8.62
						 12.64 8.76 Z" class="st1"/>
		</g>
	</g>
</svg>
