<?xml version="1.0" encoding="UTF-8" standalone="no"?>
<!DOCTYPE svg PUBLIC "-//W3C//DTD SVG 1.1//EN" "http://www.w3.org/Graphics/SVG/1.1/DTD/svg11.dtd">
<!-- Создано Microsoft Visio, экспорт SVG Настройки 6.svg Страница-1 -->
<svg xmlns="http://www.w3.org/2000/svg" xmlns:xlink="http://www.w3.org/1999/xlink" xmlns:ev="http://www.w3.org/2001/xml-events"
		xmlns:v="http://schemas.microsoft.com/visio/2003/SVGExtensions/" width="0.37078in" height="0.328583in"
		viewBox="0 0 26.6961 23.658" xml:space="preserve" color-interpolation-filters="sRGB" class="st2">
	<v:documentProperties v:langID="1049" v:metric="true" v:viewMarkup="false"/>

	<style type="text/css">
	<![CDATA[
		.st1 {fill:#000000;stroke:none;stroke-linecap:butt;stroke-width:1.19531}
		.st2 {fill:none;fill-rule:evenodd;font-size:12px;overflow:visible;stroke-linecap:square;stroke-miterlimit:3}
	]]>
	</style>

	<g v:mID="0" v:index="1" v:groupContext="foregroundPage">
		<title>Страница-1</title>
		<v:pageProperties v:drawingScale="0.0393701" v:pageScale="0.0393701" v:drawingUnits="24" v:shadowOffsetX="9"
				v:shadowOffsetY="-9"/>
		<g id="shape1886-1" v:mID="1886" v:groupContext="shape" transform="translate(1.19531,-1.19531)">
			<title>Лист.1886</title>
			<path d="M23.55 19.1 L7.6 19.1 L7.6 18.34 C7.6 17.92 7.25 17.58 6.84 17.58 L5.32 17.58 C4.9 17.58 4.56 17.92 4.56 18.34
						 L4.56 19.1 L0.76 19.1 C0.34 19.1 0 19.44 0 19.86 L0 21.38 C0 21.8 0.34 22.14 0.76 22.14 L4.56 22.14 L4.56
						 22.9 C4.56 23.32 4.9 23.66 5.32 23.66 L6.84 23.66 C7.25 23.66 7.6 23.32 7.6 22.9 L7.6 22.14 L23.55 22.14
						 C23.96 22.14 24.31 21.8 24.31 21.38 L24.31 19.86 C24.31 19.44 23.96 19.1 23.55 19.1 ZM23.55 11.51 L19.75
						 11.51 L19.75 10.75 C19.75 10.33 19.41 9.99 18.99 9.99 L17.47 9.99 C17.05 9.99 16.71 10.33 16.71 10.75 L16.71
						 11.51 L0.76 11.51 C0.34 11.51 0 11.85 0 12.26 L0 13.78 C0 14.2 0.34 14.54 0.76 14.54 L16.71 14.54 L16.71
						 15.3 C16.71 15.72 17.05 16.06 17.47 16.06 L18.99 16.06 C19.41 16.06 19.75 15.72 19.75 15.3 L19.75 14.54
						 L23.55 14.54 C23.96 14.54 24.31 14.2 24.31 13.78 L24.31 12.26 C24.31 11.85 23.96 11.51 23.55 11.51 ZM23.55
						 3.91 L13.67 3.91 L13.67 3.15 C13.67 2.73 13.33 2.39 12.91 2.39 L11.39 2.39 C10.98 2.39 10.63 2.73 10.63
						 3.15 L10.63 3.91 L0.76 3.91 C0.34 3.91 0 4.25 0 4.67 L0 6.19 C0 6.61 0.34 6.95 0.76 6.95 L10.63 6.95 L10.63
						 7.71 C10.63 8.13 10.98 8.47 11.39 8.47 L12.91 8.47 C13.33 8.47 13.67 8.13 13.67 7.71 L13.67 6.95 L23.55
						 6.95 C23.96 6.95 24.31 6.61 24.31 6.19 L24.31 4.67 C24.31 4.25 23.96 3.91 23.55 3.91 Z" class="st1"/>
		</g>
	</g>
</svg>
