<?xml version="1.0" encoding="UTF-8" standalone="no"?>
<!DOCTYPE svg PUBLIC "-//W3C//DTD SVG 1.1//EN" "http://www.w3.org/Graphics/SVG/1.1/DTD/svg11.dtd">
<!-- Создано Microsoft Visio, экспорт SVG Настройки 3.svg Страница-1 -->
<svg xmlns="http://www.w3.org/2000/svg" xmlns:xlink="http://www.w3.org/1999/xlink" xmlns:ev="http://www.w3.org/2001/xml-events"
		xmlns:v="http://schemas.microsoft.com/visio/2003/SVGExtensions/" width="0.342995in" height="0.343301in"
		viewBox="0 0 24.6957 24.7177" xml:space="preserve" color-interpolation-filters="sRGB" class="st3">
	<v:documentProperties v:langID="1049" v:metric="true" v:viewMarkup="false"/>

	<style type="text/css">
	<![CDATA[
		.st1 {fill:#262626;stroke:none;stroke-linecap:round;stroke-linejoin:round;stroke-width:0.75}
		.st2 {fill:#ffffff;stroke:none;stroke-linecap:round;stroke-linejoin:round;stroke-width:0.75}
		.st3 {fill:none;fill-rule:evenodd;font-size:12px;overflow:visible;stroke-linecap:square;stroke-miterlimit:3}
	]]>
	</style>

	<g v:mID="0" v:index="1" v:groupContext="foregroundPage">
		<title>Страница-1</title>
		<v:pageProperties v:drawingScale="0.0393701" v:pageScale="0.0393701" v:drawingUnits="24" v:shadowOffsetX="9"
				v:shadowOffsetY="-9"/>
		<g id="group1907-1" transform="translate(0.375,-0.375)" v:mID="1907" v:groupContext="group">
			<title>Лист.1907</title>
			<g id="shape1905-2" v:mID="1905" v:groupContext="shape">
				<title>Лист.1905</title>
				<path d="M9.59 3.42 A2.41147 2.41147 0 1 1 14.38 3.47 A7.67066 7.67066 0 0 1 16.99 4.57 A2.39331 2.39331 0 1 1 20.17
							 7.72 A12.1853 12.1853 0 0 1 21.24 10.35 A2.39203 2.39203 0 1 1 21.24 15.09 A8.80187 8.80187 0 0 1 20.15
							 17.71 A2.3986 2.3986 0 1 1 16.99 20.86 A7.15342 7.15342 0 0 1 14.32 22 A2.37588 2.37588 0 1 1 9.62 21.98
							 A7.28238 7.28238 0 0 1 6.97 20.86 A2.36368 2.36368 0 1 1 3.84 17.77 A10.4907 10.4907 0 0 1 2.68 15.09
							 A2.38975 2.38975 0 1 1 2.68 10.35 A11.3468 11.3468 0 0 1 3.84 7.71 A2.37001 2.37001 0 1 1 6.97 4.57
							 A11.8651 11.8651 0 0 1 9.59 3.42 Z" class="st1"/>
			</g>
			<g id="shape1906-4" v:mID="1906" v:groupContext="shape" transform="translate(8.41896,-8.43614)">
				<title>Лист.1906</title>
				<ellipse cx="3.55388" cy="21.17" rx="3.55388" ry="3.54771" class="st2"/>
			</g>
		</g>
	</g>
</svg>
