<?xml version="1.0" encoding="UTF-8" standalone="no"?>
<!DOCTYPE svg PUBLIC "-//W3C//DTD SVG 1.1//EN" "http://www.w3.org/Graphics/SVG/1.1/DTD/svg11.dtd">
<!-- Создано Microsoft Visio, экспорт SVG Настройки 2.svg Страница-1 -->
<svg xmlns="http://www.w3.org/2000/svg" xmlns:xlink="http://www.w3.org/1999/xlink" xmlns:ev="http://www.w3.org/2001/xml-events"
		xmlns:v="http://schemas.microsoft.com/visio/2003/SVGExtensions/" width="0.37412in" height="0.387366in"
		viewBox="0 0 26.9366 27.8903" xml:space="preserve" color-interpolation-filters="sRGB" class="st2">
	<v:documentProperties v:langID="1049" v:metric="true" v:viewMarkup="false"/>

	<style type="text/css">
	<![CDATA[
		.st1 {fill:#000000;stroke:none;stroke-linecap:butt;stroke-width:1.19531}
		.st2 {fill:none;fill-rule:evenodd;font-size:12px;overflow:visible;stroke-linecap:square;stroke-miterlimit:3}
	]]>
	</style>

	<g v:mID="0" v:index="1" v:groupContext="foregroundPage">
		<title>Страница-1</title>
		<v:pageProperties v:drawingScale="0.0393701" v:pageScale="0.0393701" v:drawingUnits="24" v:shadowOffsetX="9"
				v:shadowOffsetY="-9"/>
		<g id="shape1883-1" v:mID="1883" v:groupContext="shape" transform="translate(1.08392,-1.08078)">
			<title>Лист.1883</title>
			<path d="M24.04 17.25 L22.36 16.28 A10.0337 10.0337 -180 0 0 22.36 13.77 L24.04 12.8 C24.53 12.52 24.77 11.93 24.61 11.39
						 C24.03 9.45 23 7.7 21.65 6.27 C21.26 5.85 20.63 5.76 20.14 6.05 L18.46 7.01 A9.98011 9.98011 -180 0 0 16.28
						 5.75 L16.28 3.82 C16.28 3.25 15.89 2.75 15.33 2.62 C13.4 2.16 11.37 2.16 9.43 2.62 C8.88 2.75 8.48 3.25
						 8.48 3.82 L8.48 5.75 A9.97888 9.97888 -180 0 0 6.31 7.01 L4.63 6.05 C4.14 5.76 3.51 5.85 3.12 6.27 C1.76
						 7.7 0.74 9.45 0.16 11.39 C0 11.93 0.24 12.52 0.73 12.8 L2.41 13.77 A10.0337 10.0337 -180 0 0 2.41 16.28
						 L0.73 17.25 C0.24 17.54 0 18.12 0.16 18.66 C0.74 20.61 1.76 22.35 3.12 23.78 C3.51 24.2 4.14 24.29 4.63
						 24.01 L6.31 23.04 A9.9778 9.9778 -180 0 0 8.48 24.3 L8.48 26.23 C8.48 26.8 8.88 27.3 9.43 27.43 C11.37 27.89
						 13.4 27.89 15.33 27.43 C15.89 27.3 16.28 26.8 16.28 26.23 L16.28 24.3 A9.98078 9.98078 -180 0 0 18.46 23.04
						 L20.14 24.01 C20.63 24.29 21.26 24.2 21.65 23.78 C23 22.35 24.03 20.61 24.61 18.66 C24.77 18.12 24.53 17.54
						 24.04 17.25 ZM20.67 22.42 L18.29 21.04 C16.9 22.23 16.41 22.53 14.64 23.15 L14.64 25.9 A11.1636 11.1636
						 0 0 1 10.13 25.9 L10.13 23.15 C8.4 22.54 7.9 22.26 6.48 21.04 L4.1 22.42 C3.08 21.28 2.31 19.95 1.84 18.51
						 L4.22 17.14 C3.88 15.31 3.88 14.74 4.22 12.92 L1.84 11.54 C2.31 10.1 3.08 8.77 4.1 7.64 L6.48 9.01 C7.88
						 7.81 8.38 7.52 10.13 6.9 L10.13 4.15 A11.1453 11.1453 0 0 1 14.64 4.15 L14.64 6.9 C16.39 7.52 16.88 7.81
						 18.29 9.01 L20.67 7.64 C21.69 8.77 22.46 10.1 22.93 11.54 L20.55 12.92 C20.89 14.74 20.89 15.31 20.55 17.14
						 L22.93 18.51 C22.46 19.95 21.69 21.28 20.67 22.42 ZM12.38 10.09 C9.66 10.09 7.45 12.3 7.45 15.03 C7.45 17.75
						 9.66 19.96 12.38 19.96 C15.11 19.96 17.32 17.75 17.32 15.03 C17.32 12.3 15.11 10.09 12.38 10.09 ZM12.38
						 18.32 C10.57 18.32 9.09 16.84 9.09 15.03 C9.09 13.21 10.57 11.74 12.38 11.74 C14.2 11.74 15.67 13.21 15.67
						 15.03 C15.67 16.84 14.2 18.32 12.38 18.32 Z" class="st1"/>
		</g>
	</g>
</svg>
