<?xml version="1.0" encoding="UTF-8" standalone="no"?>
<!DOCTYPE svg PUBLIC "-//W3C//DTD SVG 1.1//EN" "http://www.w3.org/Graphics/SVG/1.1/DTD/svg11.dtd">
<!-- Создано Microsoft Visio, экспорт SVG Назад (сдвиг назад) - lite.svg Страница-1 -->
<svg xmlns="http://www.w3.org/2000/svg" xmlns:xlink="http://www.w3.org/1999/xlink" xmlns:ev="http://www.w3.org/2001/xml-events"
		xmlns:v="http://schemas.microsoft.com/visio/2003/SVGExtensions/" width="0.369658in" height="0.227496in"
		viewBox="0 0 26.6154 16.3797" xml:space="preserve" color-interpolation-filters="sRGB" class="st2">
	<v:documentProperties v:langID="1049" v:metric="true" v:viewMarkup="false"/>

	<style type="text/css">
	<![CDATA[
		.st1 {fill:#000000;stroke:none;stroke-linecap:butt;stroke-width:1.36607}
		.st2 {fill:none;fill-rule:evenodd;font-size:12px;overflow:visible;stroke-linecap:square;stroke-miterlimit:3}
	]]>
	</style>

	<g v:mID="0" v:index="1" v:groupContext="foregroundPage">
		<title>Страница-1</title>
		<v:pageProperties v:drawingScale="0.0393701" v:pageScale="0.0393701" v:drawingUnits="24" v:shadowOffsetX="9"
				v:shadowOffsetY="-9"/>
		<g id="group286-1" transform="translate(1.30362,-1.30361)" v:mID="286" v:groupContext="group">
			<title>Лист.286</title>
			<g id="shape287-2" v:mID="287" v:groupContext="shape">
				<title>Лист.287</title>
				<path d="M7.36 16.13 L7.74 15.75 C7.99 15.5 7.99 15.1 7.74 14.85 L3.27 10.4 L23.31 10.4 C23.66 10.4 23.95 10.11 23.95
							 9.76 L23.95 9.23 C23.95 8.87 23.66 8.59 23.31 8.59 L3.27 8.59 L7.74 4.14 C7.99 3.89 7.99 3.48 7.74 3.23
							 L7.36 2.86 C7.11 2.61 6.71 2.61 6.46 2.86 L0.25 9.04 C0 9.29 0 9.7 0.25 9.95 L6.46 16.13 C6.71 16.38
							 7.11 16.38 7.36 16.13 Z" class="st1"/>
			</g>
		</g>
	</g>
</svg>
