<?xml version="1.0" encoding="UTF-8" standalone="no"?>
<!DOCTYPE svg PUBLIC "-//W3C//DTD SVG 1.1//EN" "http://www.w3.org/Graphics/SVG/1.1/DTD/svg11.dtd">
<!-- Создано Microsoft Visio, экспорт SVG Обновить .svg Страница-1 -->
<svg xmlns="http://www.w3.org/2000/svg" xmlns:xlink="http://www.w3.org/1999/xlink" xmlns:ev="http://www.w3.org/2001/xml-events"
		xmlns:v="http://schemas.microsoft.com/visio/2003/SVGExtensions/" width="0.346279in" height="0.26491in"
		viewBox="0 0 24.9321 19.0735" xml:space="preserve" color-interpolation-filters="sRGB" class="st2">
	<v:documentProperties v:langID="1049" v:metric="true" v:viewMarkup="false"/>

	<style type="text/css">
	<![CDATA[
		.st1 {fill:#000000;stroke:none;stroke-linecap:butt;stroke-width:0.75}
		.st2 {fill:none;fill-rule:evenodd;font-size:12px;overflow:visible;stroke-linecap:square;stroke-miterlimit:3}
	]]>
	</style>

	<g v:mID="0" v:index="1" v:groupContext="foregroundPage">
		<title>Страница-1</title>
		<v:pageProperties v:drawingScale="0.0393701" v:pageScale="0.0393701" v:drawingUnits="24" v:shadowOffsetX="9"
				v:shadowOffsetY="-9"/>
		<g id="shape1781-1" v:mID="1781" v:groupContext="shape" transform="translate(0.75,-0.75)">
			<title>Обновить</title>
			<v:userDefs>
				<v:ud v:nameU="msvShapeCategories" v:prompt="" v:val="VT4(Icon)"/>
				<v:ud v:nameU="visVersion" v:prompt="" v:val="VT0(15):26"/>
			</v:userDefs>
			<path d="M9.64 8.7 L7.18 8.7 A5.72618 5.8178 0 0 1 13.26 2.12 A5.12588 5.2079 -180 0 0 10.92 1.52 A7.69685 7.82 -180
						 0 0 2.63 8.69 L0.17 8.69 L0 9.04 L4.59 14.13 L4.91 14.27 L5.23 14.13 L9.8 9.04 L9.64 8.7 ZM10.55 11.87 L13.01
						 11.87 A5.72937 5.82104 0 0 1 6.92 18.45 A5.14527 5.2276 -180 0 0 9.27 19.05 A7.69808 7.82125 -180 0 0 17.55
						 11.88 L20.01 11.88 L20.18 11.54 L15.6 6.45 L15.27 6.3 L14.95 6.45 L10.38 11.53 L10.55 11.87 Z" class="st1"/>
		</g>
	</g>
</svg>
