<?xml version="1.0" encoding="UTF-8" standalone="no"?>
<!DOCTYPE svg PUBLIC "-//W3C//DTD SVG 1.1//EN" "http://www.w3.org/Graphics/SVG/1.1/DTD/svg11.dtd">
<!-- Создано Microsoft Visio, экспорт SVG Печать 1.svg Страница-1 -->
<svg xmlns="http://www.w3.org/2000/svg" xmlns:xlink="http://www.w3.org/1999/xlink" xmlns:ev="http://www.w3.org/2001/xml-events"
		xmlns:v="http://schemas.microsoft.com/visio/2003/SVGExtensions/" width="0.365782in" height="0.365782in"
		viewBox="0 0 26.3363 26.3363" xml:space="preserve" color-interpolation-filters="sRGB" class="st2">
	<v:documentProperties v:langID="1049" v:metric="true" v:viewMarkup="false"/>

	<style type="text/css">
	<![CDATA[
		.st1 {fill:#000000;stroke:none;stroke-linecap:butt;stroke-width:1.19531}
		.st2 {fill:none;fill-rule:evenodd;font-size:12px;overflow:visible;stroke-linecap:square;stroke-miterlimit:3}
	]]>
	</style>

	<g v:mID="0" v:index="1" v:groupContext="foregroundPage">
		<title>Страница-1</title>
		<v:pageProperties v:drawingScale="0.0393701" v:pageScale="0.0393701" v:drawingUnits="24" v:shadowOffsetX="9"
				v:shadowOffsetY="-9"/>
		<g id="group288-1" transform="translate(1.19531,-1.19531)" v:mID="288" v:groupContext="group">
			<title>Лист.288</title>
			<g id="shape289-2" v:mID="289" v:groupContext="shape">
				<title>Лист.289</title>
				<path d="M19.46 11.37 L19.46 6.22 C19.46 5.92 19.34 5.64 19.13 5.43 L16.42 2.72 C16.21 2.51 15.92 2.39 15.62 2.39
							 L5.61 2.39 C4.99 2.39 4.49 2.9 4.49 3.51 L4.49 11.37 C2.01 11.37 0 13.38 0 15.86 L0 22.22 C0 22.84 0.51
							 23.34 1.12 23.34 L4.49 23.34 L4.49 25.21 C4.49 25.83 4.99 26.34 5.61 26.34 L18.33 26.34 C18.95 26.34
							 19.46 25.83 19.46 25.21 L19.46 23.34 L22.82 23.34 C23.44 23.34 23.95 22.84 23.95 22.22 L23.95 15.86
							 C23.95 13.38 21.93 11.37 19.46 11.37 ZM5.99 3.89 L15.47 3.89 L17.96 6.38 L17.96 14.36 L5.99 14.36 L5.99
							 3.89 ZM17.96 24.84 L5.99 24.84 L5.99 20.35 L17.96 20.35 L17.96 24.84 ZM22.45 21.85 L19.46 21.85 L19.46
							 19.98 C19.46 19.36 18.95 18.85 18.33 18.85 L5.61 18.85 C4.99 18.85 4.49 19.36 4.49 19.98 L4.49 21.85
							 L1.5 21.85 L1.5 15.86 C1.5 14.21 2.84 12.87 4.49 12.87 L4.49 14.74 C4.49 15.35 4.99 15.86 5.61 15.86
							 L18.33 15.86 C18.95 15.86 19.46 15.35 19.46 14.74 L19.46 12.87 C21.11 12.87 22.45 14.21 22.45 15.86
							 L22.45 21.85 ZM21.14 16.61 C21.14 17.12 20.72 17.54 20.2 17.54 C19.69 17.54 19.27 17.12 19.27 16.61
							 C19.27 16.09 19.69 15.67 20.2 15.67 C20.72 15.67 21.14 16.09 21.14 16.61 Z" class="st1"/>
			</g>
		</g>
	</g>
</svg>
