<?xml version="1.0" encoding="UTF-8" standalone="no"?>
<!DOCTYPE svg PUBLIC "-//W3C//DTD SVG 1.1//EN" "http://www.w3.org/Graphics/SVG/1.1/DTD/svg11.dtd">
<!-- Создано Microsoft Visio, экспорт SVG Показать связанную информацию (форму, документы).svg Страница-1 -->
<svg xmlns="http://www.w3.org/2000/svg" xmlns:xlink="http://www.w3.org/1999/xlink" xmlns:ev="http://www.w3.org/2001/xml-events"
		xmlns:v="http://schemas.microsoft.com/visio/2003/SVGExtensions/" width="2.79556in" height="2.48682in"
		viewBox="0 0 201.28 179.051" xml:space="preserve" color-interpolation-filters="sRGB" class="st3">
	<v:documentProperties v:langID="1049" v:metric="true" v:viewMarkup="false"/>

	<style type="text/css">
	<![CDATA[
		.st1 {fill:#000000;stroke:none;stroke-linecap:butt;stroke-width:1.0625}
		.st2 {fill:#000000;stroke:#000000;stroke-linecap:round;stroke-linejoin:round;stroke-width:0.75}
		.st3 {fill:none;fill-rule:evenodd;font-size:12px;overflow:visible;stroke-linecap:square;stroke-miterlimit:3}
	]]>
	</style>

	<g v:mID="0" v:index="1" v:groupContext="foregroundPage">
		<title>Страница-1</title>
		<v:pageProperties v:drawingScale="0.0393701" v:pageScale="0.0393701" v:drawingUnits="24" v:shadowOffsetX="9"
				v:shadowOffsetY="-9"/>
		<g id="shape2529-1" v:mID="2529" v:groupContext="shape" transform="translate(67.0785,-44.8499)">
			<title>Лист.2529</title>
			<path d="M133.14 58.86 C133.14 51.71 127.34 45.91 120.2 45.91 L65.18 45.91 C59.82 45.91 55.47 50.26 55.47 55.62 L55.47
						 61.82 C55.47 67.29 59.99 71.68 65.45 71.53 L88.75 70.86 L2.46 156.55 C-0.81 159.79 -0.82 165.08 2.44 168.33
						 L10.72 176.61 C13.97 179.87 19.26 179.86 22.5 176.59 L108.19 90.3 L107.53 113.6 C107.37 119.07 111.76 123.58
						 117.23 123.58 L123.43 123.58 C128.79 123.58 133.14 119.23 133.14 113.87 L133.14 58.86 Z" class="st1"/>
		</g>
		<g id="shape2532-3" v:mID="2532" v:groupContext="shape" transform="translate(0.375,-0.375)">
			<title>Лист.2532</title>
			<path d="M101.21 23.63 L17.73 23.63 A8.50394 8.50394 -180 0 0 15.47 23.93 A21.0529 21.0529 -180 0 0 0.07 45.7 A8.50394
						 8.50394 0 0 1 0.09 46.3 L0.09 156.41 A8.50394 8.50394 0 0 1 0.06 157.06 A20.682 20.682 -91.46 0 0 15.55
						 178.69 A8.50394 8.50394 -180 0 0 17.66 178.96 L132.78 178.92 A8.50394 8.50394 0 0 1 133.6 178.96 A20.0153
						 20.0153 -180 0 0 155.45 157.13 A8.50394 8.50394 0 0 1 155.42 156.33 L155.42 101.84 A8.50394 8.50394 -180
						 0 0 155.21 99.99 A36.9506 36.9506 -180 0 0 151.74 90.61 A4.25197 4.25197 -180 0 0 145.03 89.56 L135.82 98.46
						 A8.50394 8.50394 -180 0 0 133.23 104.57 L133.23 148.26 A8.50394 8.50394 0 0 1 124.72 156.77 L30.78 156.77
						 A8.50394 8.50394 0 0 1 22.28 148.26 L22.28 54.32 A8.50394 8.50394 0 0 1 30.78 45.82 L108.25 45.82 A4.25197
						 4.25197 -180 0 0 108.27 45.82 A8.36506 8.36506 -180 0 0 116.57 36.7 A4.25197 4.25197 -180 0 0 116.13 35.18
						 A22.9381 22.9381 -180 0 0 104.5 24.29 A8.50394 8.50394 -180 0 0 101.21 23.63 Z" class="st2"/>
		</g>
	</g>
</svg>
