<?xml version="1.0" encoding="UTF-8" standalone="no"?>
<!DOCTYPE svg PUBLIC "-//W3C//DTD SVG 1.1//EN" "http://www.w3.org/Graphics/SVG/1.1/DTD/svg11.dtd">
<!-- Создано Microsoft Visio, экспорт SVG Повторить (зациклить) 2.svg Страница-1 -->
<svg xmlns="http://www.w3.org/2000/svg" xmlns:xlink="http://www.w3.org/1999/xlink" xmlns:ev="http://www.w3.org/2001/xml-events"
		xmlns:v="http://schemas.microsoft.com/visio/2003/SVGExtensions/" width="0.333795in" height="0.331724in"
		viewBox="0 0 24.0333 23.8841" xml:space="preserve" color-interpolation-filters="sRGB" class="st2">
	<v:documentProperties v:langID="1049" v:metric="true" v:viewMarkup="false"/>

	<style type="text/css">
	<![CDATA[
		.st1 {fill:#24c4ff;stroke:#24c4ff;stroke-linecap:butt;stroke-width:0.5}
		.st2 {fill:none;fill-rule:evenodd;font-size:12px;overflow:visible;stroke-linecap:square;stroke-miterlimit:3}
	]]>
	</style>

	<g v:mID="0" v:index="1" v:groupContext="foregroundPage">
		<title>Страница-1</title>
		<v:pageProperties v:drawingScale="0.0393701" v:pageScale="0.0393701" v:drawingUnits="24" v:shadowOffsetX="9"
				v:shadowOffsetY="-9"/>
		<g id="shape438-1" v:mID="438" v:groupContext="shape" transform="translate(0.5,-0.447298)">
			<title>Лист.438</title>
			<path d="M23.03 12.39 C23.03 16.36 19.8 19.59 15.84 19.59 L4.98 19.59 L8.04 22.66 C8.26 22.87 8.26 23.21 8.04 23.42 L7.79
						 23.67 C7.58 23.88 7.24 23.88 7.03 23.67 L2.6 19.25 C2.39 19.04 2.39 18.7 2.6 18.49 L7.03 14.06 C7.24 13.85
						 7.58 13.85 7.79 14.06 L8.04 14.32 C8.26 14.53 8.26 14.87 8.04 15.08 L4.98 18.15 L15.84 18.15 C19.01 18.15
						 21.59 15.56 21.59 12.39 C21.59 11.1 21.17 9.92 20.46 8.96 C20.3 8.74 20.32 8.44 20.51 8.25 L20.76 8 C21
						 7.76 21.38 7.79 21.58 8.05 C22.49 9.26 23.03 10.76 23.03 12.39 ZM2.58 15.82 C1.86 14.86 1.44 13.67 1.44
						 12.39 C1.44 9.21 4.02 6.63 7.2 6.63 L18.06 6.63 L14.99 9.7 C14.78 9.91 14.78 10.25 14.99 10.46 L15.24 10.72
						 C15.45 10.93 15.8 10.93 16.01 10.72 L20.43 6.29 C20.64 6.08 20.64 5.74 20.43 5.53 L16.01 1.11 C15.8 0.89
						 15.45 0.89 15.24 1.11 L14.99 1.36 C14.78 1.57 14.78 1.91 14.99 2.12 L18.06 5.19 L7.2 5.19 C3.23 5.19 0 8.42
						 0 12.39 C0 14.02 0.54 15.52 1.46 16.73 C1.65 16.99 2.04 17.01 2.27 16.78 L2.53 16.53 C2.72 16.34 2.74 16.04
						 2.58 15.82 Z" class="st1"/>
		</g>
	</g>
</svg>
