<?xml version="1.0" encoding="UTF-8" standalone="no"?>
<!DOCTYPE svg PUBLIC "-//W3C//DTD SVG 1.1//EN" "http://www.w3.org/Graphics/SVG/1.1/DTD/svg11.dtd">
<!-- Создано Microsoft Visio, экспорт SVG Повторить (зациклить) 1.svg Страница-1 -->
<svg xmlns="http://www.w3.org/2000/svg" xmlns:xlink="http://www.w3.org/1999/xlink" xmlns:ev="http://www.w3.org/2001/xml-events"
		xmlns:v="http://schemas.microsoft.com/visio/2003/SVGExtensions/" width="0.332579in" height="0.318613in"
		viewBox="0 0 23.9457 22.9401" xml:space="preserve" color-interpolation-filters="sRGB" class="st2">
	<v:documentProperties v:langID="1049" v:metric="true" v:viewMarkup="false"/>

	<style type="text/css">
	<![CDATA[
		.st1 {fill:#24c4ff;stroke:#24c4ff;stroke-width:0.5}
		.st2 {fill:none;fill-rule:evenodd;font-size:12px;overflow:visible;stroke-linecap:square;stroke-miterlimit:3}
	]]>
	</style>

	<g v:mID="0" v:index="1" v:groupContext="foregroundPage">
		<title>Страница-1</title>
		<v:pageProperties v:drawingScale="0.0393701" v:pageScale="0.0393701" v:drawingUnits="24" v:shadowOffsetX="9"
				v:shadowOffsetY="-9"/>
		<g id="shape433-1" v:mID="433" v:groupContext="shape" transform="translate(0,-0.450121)">
			<title>Лист.433</title>
			<path d="M9.66 3.73 L7.81 6.69 C7.66 6.93 7.35 7 7.11 6.85 L6.82 6.67 C6.58 6.52 6.51 6.21 6.66 5.97 L8.51 3.01 C10.11
						 0.45 13.84 0.45 15.44 3.01 L17.41 6.16 L17.92 3.94 C17.98 3.67 18.26 3.49 18.53 3.56 L18.86 3.63 C19.14
						 3.7 19.31 3.97 19.25 4.25 L18.33 8.24 C18.26 8.51 17.99 8.68 17.71 8.62 L13.72 7.7 C13.45 7.64 13.28 7.36
						 13.34 7.09 L13.42 6.75 C13.48 6.48 13.75 6.31 14.03 6.37 L16.25 6.88 L14.28 3.73 C13.22 2.03 10.73 2.02
						 9.66 3.73 ZM22.25 13.91 L19.99 10.3 C19.84 10.06 19.53 9.99 19.29 10.14 L19 10.32 C18.76 10.47 18.69 10.78
						 18.84 11.02 L21.09 14.63 C22.22 16.45 20.92 18.8 18.78 18.8 L14.3 18.8 L15.91 17.19 C16.11 16.99 16.11 16.67
						 15.91 16.47 L15.67 16.23 C15.47 16.03 15.15 16.03 14.95 16.23 L12.05 19.12 C11.85 19.32 11.85 19.65 12.05
						 19.85 L14.95 22.74 C15.15 22.94 15.47 22.94 15.67 22.74 L15.91 22.5 C16.11 22.3 16.11 21.98 15.91 21.78
						 L14.3 20.17 L18.78 20.17 C21.98 20.17 23.95 16.63 22.25 13.91 ZM2.85 14.63 L5.23 10.83 L5.74 13.05 C5.8
						 13.33 6.08 13.5 6.35 13.43 L6.69 13.36 C6.96 13.29 7.13 13.02 7.07 12.74 L6.15 8.75 C6.08 8.48 5.81 8.31
						 5.54 8.37 L1.55 9.29 C1.27 9.36 1.1 9.63 1.16 9.91 L1.24 10.24 C1.3 10.51 1.58 10.68 1.85 10.62 L4.07 10.11
						 L1.7 13.91 C0 16.63 1.96 20.17 5.16 20.17 L9.42 20.17 C9.7 20.17 9.93 19.94 9.93 19.65 L9.93 19.31 C9.93
						 19.03 9.7 18.8 9.42 18.8 L5.16 18.8 C3.03 18.8 1.72 16.45 2.85 14.63 Z" class="st1"/>
		</g>
	</g>
</svg>
