<?xml version="1.0" encoding="UTF-8" standalone="no"?>
<!DOCTYPE svg PUBLIC "-//W3C//DTD SVG 1.1//EN" "http://www.w3.org/Graphics/SVG/1.1/DTD/svg11.dtd">
<!-- Создано Microsoft Visio, экспорт SVG Поиск.svg Страница-1 -->
<svg xmlns="http://www.w3.org/2000/svg" xmlns:xlink="http://www.w3.org/1999/xlink" xmlns:ev="http://www.w3.org/2001/xml-events"
		xmlns:v="http://schemas.microsoft.com/visio/2003/SVGExtensions/" width="0.195138in" height="0.198259in"
		viewBox="0 0 14.0499 14.2747" xml:space="preserve" color-interpolation-filters="sRGB" class="st2">
	<v:documentProperties v:langID="1049" v:metric="true" v:viewMarkup="false"/>

	<style type="text/css">
	<![CDATA[
		.st1 {fill:#000000;stroke:none;stroke-linecap:butt;stroke-width:0.75}
		.st2 {fill:none;fill-rule:evenodd;font-size:12px;overflow:visible;stroke-linecap:square;stroke-miterlimit:3}
	]]>
	</style>

	<g v:mID="0" v:index="1" v:groupContext="foregroundPage">
		<title>Страница-1</title>
		<v:pageProperties v:drawingScale="0.0393701" v:pageScale="0.0393701" v:drawingUnits="24" v:shadowOffsetX="9"
				v:shadowOffsetY="-9"/>
		<g id="shape862-1" v:mID="862" v:groupContext="shape" transform="translate(-0.224764,14.2747) rotate(-90)">
			<title>Поиск.170</title>
			<v:userDefs>
				<v:ud v:nameU="msvShapeCategories" v:prompt="" v:val="VT4(Icon)"/>
				<v:ud v:nameU="visVersion" v:prompt="" v:val="VT0(15):26"/>
			</v:userDefs>
			<path d="M9.37 0.22 A4.90705 4.82977 -180 0 0 4.46 5.05 A4.88105 4.80418 -180 0 0 5.51 8.03 A1.24207 1.22251 -180 0 0
						 5.11 8.25 L0.31 12.27 a0.832247 0.819141 -180 0 0 -0.0740506 1.20172 L0.76 14.02 a0.783418 0.771081 -180
						 0 0 1.19016 -0.0281 L6.11 9.24 A1.22413 1.20485 -180 0 0 6.34 8.85 A4.88148 4.80461 -180 0 0 9.37 9.88 A4.90705
						 4.82977 -180 0 0 14.27 5.05 A4.90705 4.82977 -180 0 0 9.37 0.22 ZM9.37 9.01 A4.01969 3.95639 0 0 1 5.35
						 5.05 A4.01969 3.95639 0 0 1 9.37 1.1 A4.01969 3.95639 0 0 1 13.38 5.05 A4.01969 3.95639 0 0 1 9.37 9.01
						 Z" class="st1"/>
		</g>
	</g>
</svg>
