<?xml version="1.0" encoding="UTF-8" standalone="no"?>
<!DOCTYPE svg PUBLIC "-//W3C//DTD SVG 1.1//EN" "http://www.w3.org/Graphics/SVG/1.1/DTD/svg11.dtd">
<!-- Создано Microsoft Visio, экспорт SVG Поиск lite.svg Страница-1 -->
<svg xmlns="http://www.w3.org/2000/svg" xmlns:xlink="http://www.w3.org/1999/xlink" xmlns:ev="http://www.w3.org/2001/xml-events"
		xmlns:v="http://schemas.microsoft.com/visio/2003/SVGExtensions/" width="0.227894in" height="0.227894in"
		viewBox="0 0 16.4084 16.4084" xml:space="preserve" color-interpolation-filters="sRGB" class="st2">
	<v:documentProperties v:langID="1049" v:metric="true" v:viewMarkup="false"/>

	<style type="text/css">
	<![CDATA[
		.st1 {fill:#000000;stroke:none;stroke-linecap:butt;stroke-width:1.19531}
		.st2 {fill:none;fill-rule:evenodd;font-size:12px;overflow:visible;stroke-linecap:square;stroke-miterlimit:3}
	]]>
	</style>

	<g v:mID="0" v:index="1" v:groupContext="foregroundPage">
		<title>Страница-1</title>
		<v:pageProperties v:drawingScale="0.0393701" v:pageScale="0.0393701" v:drawingUnits="24" v:shadowOffsetX="9"
				v:shadowOffsetY="-9"/>
		<g id="shape865-1" v:mID="865" v:groupContext="shape" transform="translate(1.19531,-1.16314)">
			<title>Лист.865</title>
			<path d="M13.92 15.54 L10.39 12.01 C10.33 11.95 10.24 11.92 10.16 11.92 L9.87 11.92 C10.81 10.9 11.39 9.54 11.39 8.05
						 C11.39 4.91 8.84 2.36 5.69 2.36 C2.55 2.36 0 4.91 0 8.05 C0 11.2 2.55 13.75 5.69 13.75 C7.19 13.75 8.54
						 13.17 9.56 12.24 L9.56 12.52 C9.56 12.6 9.59 12.69 9.65 12.75 L13.18 16.28 C13.31 16.41 13.52 16.41 13.65
						 16.28 L13.92 16.01 C14.05 15.88 14.05 15.67 13.92 15.54 ZM5.69 12.87 C3.03 12.87 0.88 10.72 0.88 8.05 C0.88
						 5.39 3.03 3.23 5.69 3.23 C8.36 3.23 10.51 5.39 10.51 8.05 C10.51 10.72 8.36 12.87 5.69 12.87 Z"
					class="st1"/>
		</g>
	</g>
</svg>
