<?xml version="1.0" encoding="UTF-8" standalone="no"?>
<!DOCTYPE svg PUBLIC "-//W3C//DTD SVG 1.1//EN" "http://www.w3.org/Graphics/SVG/1.1/DTD/svg11.dtd">
<!-- Создано Microsoft Visio, экспорт SVG Пользователи (общий набор) 1.svg Страница-1 -->
<svg xmlns="http://www.w3.org/2000/svg" xmlns:xlink="http://www.w3.org/1999/xlink" xmlns:ev="http://www.w3.org/2001/xml-events"
		xmlns:v="http://schemas.microsoft.com/visio/2003/SVGExtensions/" width="0.359141in" height="0.259368in"
		viewBox="0 0 25.8582 18.6745" xml:space="preserve" color-interpolation-filters="sRGB" class="st2">
	<v:documentProperties v:langID="1049" v:metric="true" v:viewMarkup="false"/>

	<style type="text/css">
	<![CDATA[
		.st1 {fill:#000000;stroke:none;stroke-linecap:butt;stroke-width:0.95625}
		.st2 {fill:none;fill-rule:evenodd;font-size:12px;overflow:visible;stroke-linecap:square;stroke-miterlimit:3}
	]]>
	</style>

	<g v:mID="0" v:index="1" v:groupContext="foregroundPage">
		<title>Страница-1</title>
		<v:pageProperties v:drawingScale="0.0393701" v:pageScale="0.0393701" v:drawingUnits="24" v:shadowOffsetX="9"
				v:shadowOffsetY="-9"/>
		<g id="shape1868-1" v:mID="1868" v:groupContext="shape" transform="translate(0.95625,-0.95625)">
			<title>Лист.1868</title>
			<path d="M20.35 9.1 C22.01 9.1 23.35 7.76 23.35 6.1 C23.35 4.45 22.01 3.11 20.35 3.11 C18.7 3.11 17.36 4.45 17.36 6.1
						 C17.36 7.76 18.7 9.1 20.35 9.1 ZM20.35 4.31 C21.35 4.31 22.15 5.11 22.15 6.1 C22.15 7.09 21.35 7.9 20.35
						 7.9 C19.36 7.9 18.56 7.09 18.56 6.1 C18.56 5.11 19.36 4.31 20.35 4.31 ZM11.97 10.29 C14.29 10.29 16.16 8.42
						 16.16 6.1 C16.16 3.79 14.29 1.91 11.97 1.91 C9.66 1.91 7.78 3.79 7.78 6.1 C7.78 8.42 9.66 10.29 11.97 10.29
						 ZM11.97 3.11 C13.62 3.11 14.97 4.45 14.97 6.1 C14.97 7.75 13.62 9.1 11.97 9.1 C10.32 9.1 8.98 7.75 8.98
						 6.1 C8.98 4.45 10.32 3.11 11.97 3.11 ZM21.1 10.29 L19.61 10.29 C19.04 10.29 18.51 10.47 18.07 10.78 C18.42
						 11.02 18.74 11.3 19.02 11.61 C19.2 11.54 19.4 11.49 19.61 11.49 L21.1 11.49 C22.01 11.49 22.75 12.3 22.75
						 13.29 C22.75 13.62 23.02 13.89 23.35 13.89 C23.68 13.89 23.95 13.62 23.95 13.29 C23.95 11.64 22.67 10.29
						 21.1 10.29 ZM3.59 9.1 C5.25 9.1 6.59 7.76 6.59 6.1 C6.59 4.45 5.25 3.11 3.59 3.11 C1.94 3.11 0.6 4.45 0.6
						 6.1 C0.6 7.76 1.94 9.1 3.59 9.1 ZM3.59 4.31 C4.58 4.31 5.39 5.11 5.39 6.1 C5.39 7.09 4.58 7.9 3.59 7.9 C2.6
						 7.9 1.8 7.09 1.8 6.1 C1.8 5.11 2.6 4.31 3.59 4.31 ZM14.97 11.04 C13.72 11.04 13.41 11.49 11.97 11.49 C10.54
						 11.49 10.23 11.04 8.98 11.04 C7.62 11.04 6.3 11.65 5.52 12.8 C5.06 13.48 4.79 14.31 4.79 15.2 L4.79 16.88
						 C4.79 17.87 5.59 18.67 6.59 18.67 L17.36 18.67 C18.35 18.67 19.16 17.87 19.16 16.88 L19.16 15.2 C19.16 14.31
						 18.89 13.48 18.42 12.8 C17.65 11.65 16.33 11.04 14.97 11.04 ZM17.96 16.88 C17.96 17.21 17.69 17.48 17.36
						 17.48 L6.59 17.48 C6.26 17.48 5.99 17.21 5.99 16.88 L5.99 15.2 C5.99 14.58 6.17 13.98 6.51 13.47 C7.03 12.7
						 7.95 12.24 8.97 12.24 C10 12.24 10.36 12.69 11.97 12.69 C13.58 12.69 13.95 12.24 14.97 12.24 C15.99 12.24
						 16.91 12.7 17.43 13.47 C17.77 13.98 17.96 14.58 17.96 15.2 L17.96 16.88 L17.96 16.88 ZM5.88 10.78 C5.43
						 10.47 4.91 10.29 4.34 10.29 L2.84 10.29 C1.28 10.29 0 11.64 0 13.29 C0 13.62 0.27 13.89 0.6 13.89 C0.93
						 13.89 1.2 13.62 1.2 13.29 C1.2 12.3 1.94 11.49 2.84 11.49 L4.34 11.49 C4.55 11.49 4.74 11.54 4.93 11.61
						 C5.21 11.3 5.53 11.02 5.88 10.78 Z" class="st1"/>
		</g>
	</g>
</svg>
