<?xml version="1.0" encoding="UTF-8" standalone="no"?>
<!DOCTYPE svg PUBLIC "-//W3C//DTD SVG 1.1//EN" "http://www.w3.org/Graphics/SVG/1.1/DTD/svg11.dtd">
<!-- Создано Microsoft Visio, экспорт SVG Сбросить настройки - восстановить настройки.svg Страница-1 -->
<svg xmlns="http://www.w3.org/2000/svg" xmlns:xlink="http://www.w3.org/1999/xlink" xmlns:ev="http://www.w3.org/2001/xml-events"
		xmlns:v="http://schemas.microsoft.com/visio/2003/SVGExtensions/" width="0.333318in" height="0.334014in"
		viewBox="0 0 23.9989 24.049" xml:space="preserve" color-interpolation-filters="sRGB" class="st3">
	<v:documentProperties v:langID="1049" v:metric="true" v:viewMarkup="false"/>

	<style type="text/css">
	<![CDATA[
		.st1 {fill:#000000;stroke:none;stroke-linecap:round;stroke-linejoin:round;stroke-width:0.75}
		.st2 {fill:#000000;stroke:#000000;stroke-width:0.5}
		.st3 {fill:none;fill-rule:evenodd;font-size:12px;overflow:visible;stroke-linecap:square;stroke-miterlimit:3}
	]]>
	</style>

	<g v:mID="0" v:index="1" v:groupContext="foregroundPage">
		<title>Страница-1</title>
		<v:pageProperties v:drawingScale="0.0393701" v:pageScale="0.0393701" v:drawingUnits="24" v:shadowOffsetX="9"
				v:shadowOffsetY="-9"/>
		<g id="group1913-1" transform="translate(0.375,-0.5)" v:mID="1913" v:groupContext="group">
			<title>Лист.1913</title>
			<g id="shape1914-2" v:mID="1914" v:groupContext="shape" transform="translate(-7.19425E-14,-1.65776)">
				<title>Лист.1914</title>
				<v:textBlock v:margins="rect(4,4,4,4)" v:tabSpace="42.5197"/>
				<path d="M14.5 6.15 L14.56 6.18 A1.76687 1.76687 -180 0 0 16.05 6.28 L17.53 5.71 A1.32409 1.32409 0 0 1 18.59 5.84
							 L20.9 9.79 A1.07097 1.07097 0 0 1 20.74 10.82 L18.65 12.49 A7.09095 7.09095 0 0 1 18.65 13.4 A1.41095
							 1.41095 0 0 1 18.33 13.8 A10.856 10.856 -180 0 0 15.12 14.04 A1.07965 1.07965 0 0 1 14.72 13.76 A4.22106
							 4.22106 -180 1 0 10.78 17.46 a0.517433 0.517433 0 0 1 0.44964 0.634316 A6.33541 6.33541 -180 0 0 12.07
							 23.28 a0.530926 0.530926 0 0 1 -0.272995 0.770811 L8.45 24.05 A1.10084 1.10084 0 0 1 7.49 23.28 L7.19
							 21.44 A1.41732 1.41732 -180 0 0 6.52 20.45 A76.9534 76.9534 -180 0 0 6.31 20.33 A1.41732 1.41732 -180
							 0 0 5.1 20.22 L3.3 20.89 A5.66929 5.66929 -180 0 0 3.21 20.93 a0.722015 0.722015 0 0 1 -0.861317 -0.26597
							 L0.02 16.61 A1.0406 1.0406 0 0 1 0.15 15.85 L1.73 14.57 A1.61392 1.61392 -180 0 0 2.32 13.32 L2.32 13.32
							 A1.66013 1.66013 -180 0 0 1.74 12.05 L0.26 10.8 a0.701808 0.701808 0 0 1 -0.240878 -0.449643 L0.02 10.35
							 A1.5171 1.5171 0 0 1 0.22 9.6 L2.27 6 a0.863414 0.863414 0 0 1 0.851106 -0.345261 L4.98 6.31 A1.71429
							 1.71429 -180 0 0 6.41 6.19 L6.41 6.19 A1.61996 1.61996 -180 0 0 7.21 5.02 L7.49 3.12 A1.0123 1.0123
							 0 0 1 8.29 2.53 L12.71 2.53 a0.880191 0.880191 0 0 1 0.797227 0.717694 A5.66929 5.66929 -180 0 0 13.53
							 3.37 A15.6469 15.6469 0 0 1 13.78 5.04 A1.41732 1.41732 -180 0 0 14.5 6.15 Z" class="st1"/>
			</g>
			<g id="shape1915-4" v:mID="1915" v:groupContext="shape" transform="translate(11.9468,3.19744E-14)">
				<title>Лист.1915</title>
				<path d="M10.91 12.88 L10.68 12.88 C10.53 12.88 10.41 13 10.41 13.15 L10.41 15.64 C9.44 13.98 7.64 12.87 5.57 12.88
							 C2.5 12.89 0 15.4 0 18.47 C0.01 21.55 2.51 24.05 5.59 24.05 C7.03 24.05 8.34 23.5 9.33 22.61 C9.45 22.51
							 9.45 22.33 9.34 22.22 L9.19 22.06 C9.08 21.96 8.92 21.95 8.81 22.05 C7.96 22.82 6.83 23.28 5.59 23.28
							 C2.94 23.28 0.77 21.14 0.77 18.46 C0.77 15.81 2.92 13.64 5.59 13.64 C7.46 13.64 9.08 14.7 9.88 16.26
							 L7.3 16.26 C7.15 16.26 7.03 16.38 7.03 16.53 L7.03 16.75 C7.03 16.9 7.15 17.02 7.3 17.02 L10.91 17.02
							 C11.06 17.02 11.18 16.9 11.18 16.75 L11.18 13.15 C11.18 13 11.06 12.88 10.91 12.88 Z" class="st2"/>
			</g>
		</g>
	</g>
</svg>
