<?xml version="1.0" encoding="UTF-8" standalone="no"?>
<!DOCTYPE svg PUBLIC "-//W3C//DTD SVG 1.1//EN" "http://www.w3.org/Graphics/SVG/1.1/DTD/svg11.dtd">
<!-- Создано Microsoft Visio, экспорт SVG Скрыть - показать 1.svg Страница-1 -->
<svg xmlns="http://www.w3.org/2000/svg" xmlns:xlink="http://www.w3.org/1999/xlink" xmlns:ev="http://www.w3.org/2001/xml-events"
		xmlns:v="http://schemas.microsoft.com/visio/2003/SVGExtensions/" width="0.231626in" height="0.158641in"
		viewBox="0 0 16.6771 11.4222" xml:space="preserve" color-interpolation-filters="sRGB" class="st2">
	<v:documentProperties v:langID="1049" v:metric="true" v:viewMarkup="false"/>

	<style type="text/css">
	<![CDATA[
		.st1 {fill:#000000;stroke:none;stroke-linecap:butt;stroke-width:1.0625}
		.st2 {fill:none;fill-rule:evenodd;font-size:12px;overflow:visible;stroke-linecap:square;stroke-miterlimit:3}
	]]>
	</style>

	<g v:mID="0" v:index="1" v:groupContext="foregroundPage">
		<title>Страница-1</title>
		<v:pageProperties v:drawingScale="0.0393701" v:pageScale="0.0393701" v:drawingUnits="24" v:shadowOffsetX="9"
				v:shadowOffsetY="-9"/>
		<g id="shape832-1" v:mID="832" v:groupContext="shape" transform="translate(1.0625,-1.0625)">
			<title>Лист.832</title>
			<path d="M14.38 6.16 C12.96 3.74 10.3 2.12 7.28 2.12 C4.25 2.12 1.59 3.74 0.17 6.16 A1.21265 1.21265 -180 0 0 0.17 7.39
						 C1.59 9.81 4.25 11.42 7.28 11.42 C10.3 11.42 12.96 9.81 14.38 7.39 A1.21272 1.21272 -180 0 0 14.38 6.16
						 ZM10.51 6.07 C10.51 7.8 9.06 9.2 7.28 9.2 C5.49 9.2 4.04 7.8 4.04 6.07 C4.04 4.34 5.49 2.93 7.28 2.93 C9.06
						 2.93 10.51 4.34 10.51 6.07 ZM13.69 6.98 C12.38 9.21 9.95 10.61 7.28 10.61 C4.59 10.61 2.17 9.2 0.86 6.98
						 a0.404376 0.404376 0 0 1 -4.88498E-15 -0.410464 C1.6 5.32 2.72 4.28 4.09 3.64 C3.56 4.3 3.23 5.15 3.23 6.07
						 C3.23 8.23 5.03 10.01 7.28 10.01 C9.52 10.01 11.32 8.23 11.32 6.07 C11.32 5.15 10.99 4.3 10.46 3.64 C11.82
						 4.28 12.95 5.31 13.69 6.57 a0.404376 0.404376 0 0 1 -2.5264E-05 0.410439 ZM5.66 5.97 C5.66 5.69 5.73 5.43
						 5.85 5.2 L5.85 5.2 C5.85 5.57 6.15 5.87 6.52 5.87 C6.88 5.87 7.18 5.57 7.18 5.2 C7.18 4.84 6.88 4.54 6.52
						 4.54 L6.51 4.54 C6.74 4.42 7 4.35 7.28 4.35 C8.17 4.35 8.89 5.07 8.89 5.97 C8.89 6.86 8.17 7.58 7.28 7.58
						 C6.38 7.58 5.66 6.86 5.66 5.97 Z" class="st1"/>
		</g>
	</g>
</svg>
