<?xml version="1.0" encoding="UTF-8" standalone="no"?>
<!DOCTYPE svg PUBLIC "-//W3C//DTD SVG 1.1//EN" "http://www.w3.org/Graphics/SVG/1.1/DTD/svg11.dtd">
<!-- Создано Microsoft Visio, экспорт SVG Состояние - Неквитированные.svg Страница-1 -->
<svg xmlns="http://www.w3.org/2000/svg" xmlns:xlink="http://www.w3.org/1999/xlink" xmlns:ev="http://www.w3.org/2001/xml-events"
		xmlns:v="http://schemas.microsoft.com/visio/2003/SVGExtensions/" width="0.501797in" height="0.501796in"
		viewBox="0 0 36.1294 36.1293" xml:space="preserve" color-interpolation-filters="sRGB" class="st2">
	<v:documentProperties v:langID="1049" v:metric="true" v:viewMarkup="false"/>

	<style type="text/css">
	<![CDATA[
		.st1 {fill:#24c4ff;stroke:none;stroke-linecap:butt;stroke-width:1.19531}
		.st2 {fill:none;fill-rule:evenodd;font-size:12px;overflow:visible;stroke-linecap:square;stroke-miterlimit:3}
	]]>
	</style>

	<g v:mID="0" v:index="1" v:groupContext="foregroundPage">
		<title>Страница-1</title>
		<v:pageProperties v:drawingScale="0.0393701" v:pageScale="0.0393701" v:drawingUnits="24" v:shadowOffsetX="9"
				v:shadowOffsetY="-9"/>
		<g id="group2468-1" transform="translate(1.19531,-1.19531)" v:mID="2468" v:groupContext="group">
			<title>Лист.2468</title>
			<g id="shape2469-2" v:mID="2469" v:groupContext="shape">
				<title>Лист.2469</title>
				<path d="M0 6.08 L0 21.9 C0 22.77 0.71 23.48 1.58 23.48 L6.85 23.48 C7.73 23.48 8.43 22.77 8.43 21.9 L8.43 6.08 C8.43
							 5.21 7.73 4.5 6.85 4.5 L1.58 4.5 C0.71 4.5 0 5.21 0 6.08 ZM2.64 19.26 C2.64 18.39 3.34 17.68 4.22 17.68
							 C5.09 17.68 5.8 18.39 5.8 19.26 C5.8 20.13 5.09 20.84 4.22 20.84 C3.34 20.84 2.64 20.13 2.64 19.26 ZM20.56
							 36.13 C19.23 36.13 18.62 33.54 18.32 32.32 C17.98 30.89 17.63 29.42 16.65 28.44 C14.51 26.3 13.39 23.57
							 10.78 20.99 a0.789433 0.789433 0 0 1 -0.234458 -0.561499 L10.54 6.34 C10.54 5.91 10.89 5.56 11.32 5.55
							 C12.36 5.53 13.74 4.95 14.79 4.48 C16.88 3.55 19.49 2.39 22.67 2.39 L22.86 2.39 C25.67 2.39 29.01 2.42
							 30.35 4.35 C30.91 5.14 31.04 6.13 30.76 7.29 C31.83 8.41 32.41 10.51 31.84 12.22 C32.99 13.76 33.1 15.92
							 32.45 17.45 L32.46 17.46 C33.24 18.25 33.74 19.52 33.74 20.7 C33.73 22.7 32.02 24.53 29.81 24.53 L23.11
							 24.53 C23.59 26.4 25.3 27.97 25.3 30.76 C25.3 35.6 22.14 36.13 20.56 36.13 Z" class="st1"/>
			</g>
		</g>
	</g>
</svg>
