<?xml version="1.0" encoding="UTF-8" standalone="no"?>
<!DOCTYPE svg PUBLIC "-//W3C//DTD SVG 1.1//EN" "http://www.w3.org/Graphics/SVG/1.1/DTD/svg11.dtd">
<!-- Создано Microsoft Visio, экспорт SVG Сохранить .svg Страница-1 -->
<svg xmlns="http://www.w3.org/2000/svg" xmlns:xlink="http://www.w3.org/1999/xlink" xmlns:ev="http://www.w3.org/2001/xml-events"
		xmlns:v="http://schemas.microsoft.com/visio/2003/SVGExtensions/" width="0.398551in" height="0.353412in"
		viewBox="0 0 28.6957 25.4457" xml:space="preserve" color-interpolation-filters="sRGB" class="st2">
	<v:documentProperties v:langID="1049" v:metric="true" v:viewMarkup="false"/>

	<style type="text/css">
	<![CDATA[
		.st1 {fill:#000000;stroke:none;stroke-linecap:butt;stroke-width:0.75}
		.st2 {fill:none;fill-rule:evenodd;font-size:12px;overflow:visible;stroke-linecap:square;stroke-miterlimit:3}
	]]>
	</style>

	<g v:mID="0" v:index="1" v:groupContext="foregroundPage">
		<title>Страница-1</title>
		<v:pageProperties v:drawingScale="0.0393701" v:pageScale="0.0393701" v:drawingUnits="24" v:shadowOffsetX="9"
				v:shadowOffsetY="-9"/>
		<g id="shape1685-1" v:mID="1685" v:groupContext="shape" transform="translate(0.75,-0.75)">
			<title>Сохранить.1685</title>
			<v:userDefs>
				<v:ud v:nameU="msvShapeCategories" v:prompt="" v:val="VT4(Icon)"/>
				<v:ud v:nameU="visVersion" v:prompt="" v:val="VT0(15):26"/>
			</v:userDefs>
			<path d="M18.6 1.5 L0 1.5 L0 25.45 L23.95 25.45 L23.95 6.85 L18.6 1.5 ZM6.84 3.21 L11.97 3.21 L11.97 9.2 L15.39 9.2 L15.39
						 3.21 L17.1 3.21 L17.1 10.91 L6.84 10.91 L6.84 3.21 ZM18.81 23.74 L5.13 23.74 L5.13 15.18 L18.81 15.18 L18.81
						 23.74 ZM22.24 23.74 L19.67 23.74 L19.67 14.33 L4.28 14.33 L4.28 23.74 L1.71 23.74 L1.71 3.21 L5.99 3.21
						 L5.99 11.76 L17.96 11.76 L17.96 3.21 L22.24 7.49 L22.24 23.74 Z" class="st1"/>
		</g>
	</g>
</svg>
