<?xml version="1.0" encoding="UTF-8" standalone="no"?>
<!DOCTYPE svg PUBLIC "-//W3C//DTD SVG 1.1//EN" "http://www.w3.org/Graphics/SVG/1.1/DTD/svg11.dtd">
<!-- Создано Microsoft Visio, экспорт SVG Сохранить рабочий набор.svg Страница-1 -->
<svg xmlns="http://www.w3.org/2000/svg" xmlns:xlink="http://www.w3.org/1999/xlink" xmlns:ev="http://www.w3.org/2001/xml-events"
		xmlns:v="http://schemas.microsoft.com/visio/2003/SVGExtensions/" width="0.375997in" height="0.35122in"
		viewBox="0 0 27.0718 25.2878" xml:space="preserve" color-interpolation-filters="sRGB" class="st6">
	<v:documentProperties v:langID="1049" v:metric="true" v:viewMarkup="false"/>

	<style type="text/css">
	<![CDATA[
		.st1 {fill:#000000;stroke:none;stroke-linecap:butt;stroke-width:0.75}
		.st2 {fill:#ffffff;stroke:#000000;stroke-linecap:round;stroke-linejoin:round;stroke-width:1}
		.st3 {fill:#000000;stroke:none;stroke-width:0.75}
		.st4 {fill:#000000;stroke:none;stroke-width:0.25}
		.st5 {fill:#ffffff;stroke:none;stroke-width:0.75}
		.st6 {fill:none;fill-rule:evenodd;font-size:12px;overflow:visible;stroke-linecap:square;stroke-miterlimit:3}
	]]>
	</style>

	<g v:mID="0" v:index="1" v:groupContext="foregroundPage">
		<title>Страница-1</title>
		<v:pageProperties v:drawingScale="0.0393701" v:pageScale="0.0393701" v:drawingUnits="24" v:shadowOffsetX="9"
				v:shadowOffsetY="-9"/>
		<g id="group1756-1" transform="translate(0.75,-0.5)" v:mID="1756" v:groupContext="group">
			<title>Лист.1756</title>
			<g id="group1736-2" v:mID="1736" v:groupContext="group">
				<title>Лист.1736</title>
				<g id="shape1737-3" v:mID="1737" v:groupContext="shape" transform="translate(0,-1.71607)">
					<title>Сохранить.225</title>
					<v:userDefs>
						<v:ud v:nameU="msvShapeCategories" v:prompt="" v:val="VT4(Icon)"/>
						<v:ud v:nameU="visVersion" v:prompt="" v:val="VT0(15):26"/>
					</v:userDefs>
					<path d="M17.34 2.97 L0 2.97 L0 25.29 L22.32 25.29 L22.32 7.95 L17.34 2.97 ZM6.38 4.56 L11.16 4.56 L11.16 10.14
								 L14.35 10.14 L14.35 4.56 L15.94 4.56 L15.94 11.74 L6.38 11.74 L6.38 4.56 ZM17.54 23.69 L4.78 23.69
								 L4.78 15.72 L17.54 15.72 L17.54 23.69 ZM20.73 23.69 L18.34 23.69 L18.34 14.92 L3.99 14.92 L3.99
								 23.69 L1.59 23.69 L1.59 4.56 L5.58 4.56 L5.58 12.53 L16.74 12.53 L16.74 4.56 L20.73 8.55 L20.73
								 23.69 Z" class="st1"/>
				</g>
				<g id="group1738-5" transform="translate(11.5824,5.32907E-14)" v:mID="1738" v:groupContext="group">
					<title>Лист.1738</title>
					<g id="shape1739-6" v:mID="1739" v:groupContext="shape">
						<title>Лист.1739</title>
						<ellipse cx="6.18162" cy="19.1062" rx="6.18162" ry="6.18162" class="st2"/>
					</g>
				</g>
			</g>
			<g id="group1748-8" transform="translate(13.5121,-3.42831)" v:mID="1748" v:groupContext="group">
				<title>Лист.1748</title>
				<g id="group1749-9" transform="translate(4.37397,1.35003E-13)" v:mID="1749" v:groupContext="group">
					<title>Лист.1749</title>
					<g id="shape1750-10" v:mID="1750" v:groupContext="shape">
						<title>Лист.1750</title>
						<rect x="0" y="19.7812" width="0.625753" height="5.50662" class="st3"/>
					</g>
					<g id="shape1751-12" v:mID="1751" v:groupContext="shape" transform="translate(3.50421,0)">
						<title>Лист.1751</title>
						<rect x="0" y="19.7812" width="0.625753" height="5.50662" class="st3"/>
					</g>
					<g id="shape1752-14" v:mID="1752" v:groupContext="shape" transform="translate(0,-2.50301)">
						<title>Лист.1752</title>
						<rect x="0" y="24.7872" width="4.12997" height="0.500602" class="st3"/>
					</g>
				</g>
				<g id="group1753-16" v:mID="1753" v:groupContext="group">
					<title>Лист.1753</title>
					<g id="shape1754-17" v:mID="1754" v:groupContext="shape">
						<title>Лист.1754</title>
						<path d="M1.6 23.26 L0.67 23.24 L0.67 25.29 L0 25.29 L0 19.78 L0.67 19.78 L1.71 19.78 A1.74035 1.74035 0
									 0 1 1.6 23.26 Z" class="st4"/>
					</g>
					<g id="shape1755-19" v:mID="1755" v:groupContext="shape" transform="translate(0.706931,-2.69517)">
						<title>Лист.1755</title>
						<path d="M0 23.05 L0 25.29 L0.82 25.29 A1.11853 1.11853 -180 1 0 0.82 23.05 L0 23.05 Z" class="st5"/>
					</g>
				</g>
			</g>
		</g>
	</g>
</svg>
