<?xml version="1.0" encoding="UTF-8" standalone="no"?>
<!DOCTYPE svg PUBLIC "-//W3C//DTD SVG 1.1//EN" "http://www.w3.org/Graphics/SVG/1.1/DTD/svg11.dtd">
<!-- Создано Microsoft Visio, экспорт SVG Состояние - Квитированные.svg Страница-1 -->
<svg xmlns="http://www.w3.org/2000/svg" xmlns:xlink="http://www.w3.org/1999/xlink" xmlns:ev="http://www.w3.org/2001/xml-events"
		xmlns:v="http://schemas.microsoft.com/visio/2003/SVGExtensions/" width="0.501796in" height="0.501796in"
		viewBox="0 0 36.1293 36.1293" xml:space="preserve" color-interpolation-filters="sRGB" class="st2">
	<v:documentProperties v:langID="1049" v:metric="true" v:viewMarkup="false"/>

	<style type="text/css">
	<![CDATA[
		.st1 {fill:#24c4ff;stroke:none;stroke-linecap:butt;stroke-width:1.19531}
		.st2 {fill:none;fill-rule:evenodd;font-size:12px;overflow:visible;stroke-linecap:square;stroke-miterlimit:3}
	]]>
	</style>

	<g v:mID="0" v:index="1" v:groupContext="foregroundPage">
		<title>Страница-1</title>
		<v:pageProperties v:drawingScale="0.0393701" v:pageScale="0.0393701" v:drawingUnits="24" v:shadowOffsetX="9"
				v:shadowOffsetY="-9"/>
		<g id="group2470-1" transform="translate(1.19531,-1.19531)" v:mID="2470" v:groupContext="group">
			<title>Лист.2470</title>
			<g id="shape2471-2" v:mID="2471" v:groupContext="shape">
				<title>Лист.2471</title>
				<path d="M6.85 17.15 L1.58 17.15 C0.71 17.15 0 17.86 0 18.73 L0 34.55 C0 35.42 0.71 36.13 1.58 36.13 L6.85 36.13
							 C7.73 36.13 8.43 35.42 8.43 34.55 L8.43 18.73 C8.43 17.86 7.73 17.15 6.85 17.15 ZM4.22 33.49 C3.34 33.49
							 2.64 32.79 2.64 31.91 C2.64 31.04 3.34 30.33 4.22 30.33 C5.09 30.33 5.8 31.04 5.8 31.91 C5.8 32.79 5.09
							 33.49 4.22 33.49 ZM25.3 7.76 C25.3 10.55 23.59 12.12 23.11 13.99 L29.81 13.99 C32.02 13.99 33.73 15.82
							 33.74 17.82 C33.74 19 33.24 20.27 32.46 21.06 L32.45 21.07 C33.1 22.6 32.99 24.76 31.84 26.3 C32.41
							 28.01 31.83 30.1 30.76 31.23 C31.04 32.39 30.91 33.38 30.35 34.17 C29.01 36.1 25.67 36.13 22.86 36.13
							 L22.67 36.13 C19.49 36.13 16.88 34.97 14.79 34.04 C13.74 33.57 12.36 32.99 11.32 32.97 C10.89 32.96
							 10.54 32.61 10.54 32.18 L10.54 18.1 C10.54 17.88 10.63 17.68 10.78 17.53 C13.39 14.95 14.51 12.22 16.65
							 10.08 C17.63 9.1 17.98 7.63 18.32 6.2 C18.62 4.98 19.23 2.39 20.56 2.39 C22.14 2.39 25.3 2.92 25.3 7.76
							 Z" class="st1"/>
			</g>
		</g>
	</g>
</svg>
