<?xml version="1.0" encoding="UTF-8" standalone="no"?>
<!DOCTYPE svg PUBLIC "-//W3C//DTD SVG 1.1//EN" "http://www.w3.org/Graphics/SVG/1.1/DTD/svg11.dtd">
<!-- Создано Microsoft Visio, экспорт SVG Соединение разорвано.svg Страница-1 -->
<svg xmlns="http://www.w3.org/2000/svg" xmlns:xlink="http://www.w3.org/1999/xlink" xmlns:ev="http://www.w3.org/2001/xml-events"
		xmlns:v="http://schemas.microsoft.com/visio/2003/SVGExtensions/" width="0.173181in" height="0.173166in"
		viewBox="0 0 12.4691 12.4679" xml:space="preserve" color-interpolation-filters="sRGB" class="st2">
	<v:documentProperties v:langID="1049" v:metric="true" v:viewMarkup="false"/>

	<style type="text/css">
	<![CDATA[
		.st1 {fill:#c00000;stroke:none;stroke-linecap:butt;stroke-width:0.612}
		.st2 {fill:none;fill-rule:evenodd;font-size:12px;overflow:visible;stroke-linecap:square;stroke-miterlimit:3}
	]]>
	</style>

	<g v:mID="0" v:index="1" v:groupContext="foregroundPage">
		<title>Страница-1</title>
		<v:pageProperties v:drawingScale="0.0393701" v:pageScale="0.0393701" v:drawingUnits="24" v:shadowOffsetX="9"
				v:shadowOffsetY="-9"/>
		<g id="shape2127-1" v:mID="2127" v:groupContext="shape" transform="translate(-0.563522,11.9032) rotate(-90)">
			<title>Лист.2127</title>
			<path d="M1.93 3.74 L0.19 2 C0 1.81 0 1.51 0.19 1.32 C0.38 1.13 0.68 1.13 0.87 1.32 L2.61 3.05 C3.94 2.06 5.83 2.17 7.04
						 3.37 L2.24 8.17 C1.04 6.96 0.93 5.07 1.93 3.74 ZM9.09 5.43 C10.3 6.64 10.41 8.53 9.41 9.86 L11.15 11.59
						 C11.34 11.78 11.34 12.09 11.15 12.28 C10.96 12.47 10.65 12.47 10.46 12.28 L8.73 10.54 C7.4 11.54 5.51 11.43
						 4.3 10.22 L5.33 9.2 L4.47 8.34 C4.19 8.06 4.19 7.6 4.47 7.31 C4.75 7.03 5.21 7.03 5.5 7.31 L6.36 8.17 L7.04
						 7.48 L6.18 6.63 C5.9 6.34 5.9 5.88 6.18 5.6 C6.47 5.32 6.93 5.32 7.21 5.6 L8.07 6.45 L9.09 5.43 Z"
					class="st1"/>
		</g>
	</g>
</svg>
