<?xml version="1.0" encoding="UTF-8" standalone="no"?>
<!DOCTYPE svg PUBLIC "-//W3C//DTD SVG 1.1//EN" "http://www.w3.org/Graphics/SVG/1.1/DTD/svg11.dtd">
<!-- Создано Microsoft Visio, экспорт SVG Список.svg Страница-1 -->
<svg xmlns="http://www.w3.org/2000/svg" xmlns:xlink="http://www.w3.org/1999/xlink" xmlns:ev="http://www.w3.org/2001/xml-events"
		width="0.373373in" height="0.215623in" viewBox="0 0 26.8829 15.5249" xml:space="preserve"
		color-interpolation-filters="sRGB" class="st2">
	<style type="text/css">
	<![CDATA[
		.st1 {fill:#000000;stroke:none;stroke-linecap:butt;stroke-width:0.612}
		.st2 {fill:none;fill-rule:evenodd;font-size:12px;overflow:visible;stroke-linecap:square;stroke-miterlimit:3}
	]]>
	</style>

	<g>
		<title>Страница-1</title>
		<g id="group2428-1" transform="translate(0.612,-0.612)">
			<title>Лист.2428</title>
			<g id="shape2429-2">
				<title>Лист.2429</title>
				<path d="M5.68 1.22 L25.66 1.22 L25.66 4.1 L5.68 4.1 L5.68 1.22 ZM5.68 15.52 L5.68 12.65 L25.66 12.65 L25.66 15.52
							 L5.68 15.52 L5.68 15.52 ZM5.68 9.78 L5.68 6.97 L25.66 6.97 L25.66 9.78 L5.68 9.78 ZM0 4.1 L0 1.22 L2.87
							 1.22 L2.87 4.1 L0 4.1 L0 4.1 ZM0 15.52 L0 12.65 L2.87 12.65 L2.87 15.52 L0 15.52 L0 15.52 ZM0 9.78 L0
							 6.97 L2.87 6.97 L2.87 9.78 L0 9.78 Z" class="st1"/>
			</g>
		</g>
	</g>
</svg>
