<?xml version="1.0" encoding="UTF-8" standalone="no"?>
<!DOCTYPE svg PUBLIC "-//W3C//DTD SVG 1.1//EN" "http://www.w3.org/Graphics/SVG/1.1/DTD/svg11.dtd">
<!-- Создано Microsoft Visio, экспорт SVG Удалить - сбросить - очистить 1.svg Страница-1 -->
<svg xmlns="http://www.w3.org/2000/svg" xmlns:xlink="http://www.w3.org/1999/xlink" xmlns:ev="http://www.w3.org/2001/xml-events"
		xmlns:v="http://schemas.microsoft.com/visio/2003/SVGExtensions/" width="0.353412in" height="0.356066in"
		viewBox="0 0 25.4457 25.6367" xml:space="preserve" color-interpolation-filters="sRGB" class="st2">
	<v:documentProperties v:langID="1049" v:metric="true" v:viewMarkup="false"/>

	<style type="text/css">
	<![CDATA[
		.st1 {fill:#000000;stroke:none;stroke-width:0.75}
		.st2 {fill:none;fill-rule:evenodd;font-size:12px;overflow:visible;stroke-linecap:square;stroke-miterlimit:3}
	]]>
	</style>

	<g v:mID="0" v:index="1" v:groupContext="foregroundPage">
		<title>Страница-1</title>
		<v:pageProperties v:drawingScale="0.0393701" v:pageScale="0.0393701" v:drawingUnits="24" v:shadowOffsetX="9"
				v:shadowOffsetY="-9"/>
		<g id="shape302-1" v:mID="302" v:groupContext="shape" transform="translate(0.75,-0.75)">
			<title>Удалить.57</title>
			<v:userDefs>
				<v:ud v:nameU="msvShapeCategories" v:prompt="" v:val="VT4(Icon)"/>
				<v:ud v:nameU="visVersion" v:prompt="" v:val="VT0(15):26"/>
			</v:userDefs>
			<path d="M23.87 2.39 L23.71 2.09 C23.34 1.59 21.83 2.37 21.4 2.51 C20.32 2.87 19.26 3.27 18.22 3.73 C16.12 4.64 14.1
						 5.75 12.19 7.04 C10.47 5.53 8.58 4.2 6.59 3.06 C4.83 2.05 2.99 0.66 1.09 2.1 L0.69 2.5 C0.1 3.05 -0.14 3.98
						 0.08 4.76 C0.32 5.6 1.61 5.74 2.31 6.04 C4.6 7.01 6.79 8.21 8.83 9.63 C6.3 11.85 4.08 14.46 2.37 17.38 C1.31
						 19.2 -0.84 22.54 1.11 24.53 L1.9 25.19 C2.64 25.77 4.46 25.91 4.75 24.87 C5.9 19.99 8.42 15.55 11.78 11.9
						 C13.69 13.56 15.43 15.41 16.91 17.48 C17.75 18.65 18.51 19.88 19.17 21.16 C19.6 21.99 19.95 23.22 20.86
						 23.65 L21.22 23.78 C23.01 23.78 20.13 17.53 19.75 16.75 C18.4 14 16.61 11.47 14.51 9.26 C16.2 7.79 18.04
						 6.5 19.98 5.39 C20.9 4.86 21.84 4.37 22.8 3.93 C23.42 3.65 24.19 3.21 23.87 2.39 Z" class="st1"/>
		</g>
	</g>
</svg>
