<?xml version="1.0" encoding="UTF-8" standalone="no"?>
<!DOCTYPE svg PUBLIC "-//W3C//DTD SVG 1.1//EN" "http://www.w3.org/Graphics/SVG/1.1/DTD/svg11.dtd">
<!-- Создано Microsoft Visio, экспорт SVG Уменьшить - lite.svg Страница-1 -->
<svg xmlns="http://www.w3.org/2000/svg" xmlns:xlink="http://www.w3.org/1999/xlink" xmlns:ev="http://www.w3.org/2001/xml-events"
		xmlns:v="http://schemas.microsoft.com/visio/2003/SVGExtensions/" width="0.364064in" height="0.364064in"
		viewBox="0 0 26.2126 26.2126" xml:space="preserve" color-interpolation-filters="sRGB" class="st2">
	<v:documentProperties v:langID="1049" v:metric="true" v:viewMarkup="false"/>

	<style type="text/css">
	<![CDATA[
		.st1 {fill:#000000;stroke:none;stroke-linecap:butt;stroke-width:1.19531}
		.st2 {fill:none;fill-rule:evenodd;font-size:12px;overflow:visible;stroke-linecap:square;stroke-miterlimit:3}
	]]>
	</style>

	<g v:mID="0" v:index="1" v:groupContext="foregroundPage">
		<title>Страница-1</title>
		<v:pageProperties v:drawingScale="0.0393701" v:pageScale="0.0393701" v:drawingUnits="24" v:shadowOffsetX="9"
				v:shadowOffsetY="-9"/>
		<g id="shape1793-1" v:mID="1793" v:groupContext="shape" transform="translate(1.12631,-1.14063)">
			<title>Лист.1793</title>
			<path d="M14.4 12.75 L5.09 12.75 C4.78 12.75 4.53 12.5 4.53 12.19 L4.53 11.82 C4.53 11.51 4.78 11.26 5.09 11.26 L14.4
						 11.26 C14.7 11.26 14.95 11.51 14.95 11.82 L14.95 12.19 C14.95 12.5 14.7 12.75 14.4 12.75 ZM23.73 25.47 L23.2
						 25.99 C22.98 26.21 22.63 26.21 22.41 25.99 L16.41 19.99 C16.3 19.88 16.24 19.74 16.24 19.59 L16.24 19.2
						 C14.53 20.75 12.25 21.7 9.75 21.7 C4.44 21.7 0.14 17.46 0.07 12.14 C0 6.7 4.43 2.27 9.88 2.34 C15.19 2.41
						 19.43 6.7 19.43 12.02 C19.43 14.52 18.49 16.79 16.93 18.51 L17.33 18.51 C17.48 18.51 17.62 18.57 17.72 18.67
						 L23.73 24.68 C23.95 24.9 23.95 25.25 23.73 25.47 ZM17.94 12.02 C17.94 7.49 14.28 3.83 9.75 3.83 C5.22 3.83
						 1.56 7.49 1.56 12.02 C1.56 16.55 5.22 20.21 9.75 20.21 C14.28 20.21 17.94 16.55 17.94 12.02 Z" class="st1"/>
		</g>
	</g>
</svg>
