<?xml version="1.0" encoding="UTF-8" standalone="no"?>
<!DOCTYPE svg PUBLIC "-//W3C//DTD SVG 1.1//EN" "http://www.w3.org/Graphics/SVG/1.1/DTD/svg11.dtd">
<!-- Создано Microsoft Visio, экспорт SVG Чтение - Read.svg Страница-1 -->
<svg xmlns="http://www.w3.org/2000/svg" xmlns:xlink="http://www.w3.org/1999/xlink" xmlns:ev="http://www.w3.org/2001/xml-events"
		xmlns:v="http://schemas.microsoft.com/visio/2003/SVGExtensions/" width="8.347in" height="5.55815in"
		viewBox="0 0 600.984 400.187" xml:space="preserve" color-interpolation-filters="sRGB" class="st2">
	<v:documentProperties v:langID="1049" v:metric="true" v:viewMarkup="false"/>

	<style type="text/css">
	<![CDATA[
		.st1 {fill:#000000;stroke:none;stroke-linecap:butt;stroke-width:0.612}
		.st2 {fill:none;fill-rule:evenodd;font-size:12px;overflow:visible;stroke-linecap:square;stroke-miterlimit:3}
	]]>
	</style>

	<g v:mID="0" v:index="1" v:groupContext="foregroundPage">
		<title>Страница-1</title>
		<v:pageProperties v:drawingScale="0.0393701" v:pageScale="0.0393701" v:drawingUnits="24" v:shadowOffsetX="9"
				v:shadowOffsetY="-9"/>
		<g id="shape1-1" v:mID="1" v:groupContext="shape" transform="translate(0.612,-0.612)">
			<title>Лист.1</title>
			<path d="M585.5 68.54 L576.57 68.54 C569.83 68.54 564.33 63.04 564.33 56.3 L564.33 32.37 C564.33 25.46 559.55 19.71 552.76
						 18.36 C460.1 0.61 375.89 0.98 311.81 46.14 C300.37 54.16 299.33 54.1 288.01 46.14 C223.81 1.04 139.6 0.67
						 47 18.42 C40.27 19.71 35.43 25.46 35.43 32.44 L35.43 56.37 C35.43 63.1 29.99 68.61 23.19 68.61 L14.26 68.61
						 C6.43 68.61 0 75.03 0 82.86 L0.12 369.1 C0.12 376.93 6.55 383.36 14.38 383.36 L256.31 383.36 C260.77 383.36
						 264.45 387.03 264.45 391.44 C264.45 396.27 267.63 400.19 272.58 400.19 L327.11 400.19 C331.64 400.19 335.25
						 396.51 335.25 392.05 C335.25 387.21 338.37 383.3 343.45 383.3 L585.38 383.3 C593.21 383.3 599.64 376.87
						 599.64 369.04 L599.76 82.74 C599.76 74.97 593.33 68.54 585.5 68.54 ZM279.87 355.57 C222.77 319.89 148.41
						 315.85 69.16 329.01 C61.08 330.36 53.73 324.18 53.73 315.98 L53.67 45.59 C53.67 38.56 58.63 32.74 65.55
						 31.52 C148.23 17.63 224.36 23.07 279.81 64.99 C286.91 70.32 290.7 78.03 290.7 86.9 L290.82 349.51 C290.76
						 355.14 284.64 358.51 279.87 355.57 ZM546.03 315.98 C546.03 324.18 538.74 330.36 530.6 329.01 C451.35 315.79
						 376.99 319.89 319.89 355.51 C315.12 358.51 308.94 355.08 308.94 349.45 L309.06 86.84 C309.06 77.97 312.85
						 70.26 319.95 64.93 C375.4 23.01 451.53 17.56 534.21 31.46 C541.13 32.68 546.15 38.56 546.15 45.53 L546.03
						 315.98 Z" class="st1"/>
		</g>
	</g>
</svg>
