<?xml version="1.0" encoding="UTF-8" standalone="no"?>
<!DOCTYPE svg PUBLIC "-//W3C//DTD SVG 1.1//EN" "http://www.w3.org/Graphics/SVG/1.1/DTD/svg11.dtd">
<!-- Создано Microsoft Visio, экспорт SVG Экпорт.svg Страница-1 -->
<svg xmlns="http://www.w3.org/2000/svg" xmlns:xlink="http://www.w3.org/1999/xlink" xmlns:ev="http://www.w3.org/2001/xml-events"
		xmlns:v="http://schemas.microsoft.com/visio/2003/SVGExtensions/" width="0.407407in" height="0.343667in"
		viewBox="0 0 29.3333 24.744" xml:space="preserve" color-interpolation-filters="sRGB" class="st2">
	<v:documentProperties v:langID="1049" v:metric="true" v:viewMarkup="false"/>

	<style type="text/css">
	<![CDATA[
		.st1 {fill:#24c4ff;stroke:none;stroke-linecap:butt;stroke-width:0.612}
		.st2 {fill:none;fill-rule:evenodd;font-size:12px;overflow:visible;stroke-linecap:square;stroke-miterlimit:3}
	]]>
	</style>

	<g v:mID="0" v:index="1" v:groupContext="foregroundPage">
		<title>Страница-1</title>
		<v:pageProperties v:drawingScale="0.0393701" v:pageScale="0.0393701" v:drawingUnits="24" v:shadowOffsetX="9"
				v:shadowOffsetY="-9"/>
		<g id="group689-1" transform="translate(0.612,-0.612)" v:mID="689" v:groupContext="group">
			<title>Лист.689</title>
			<g id="shape685-2" v:mID="685" v:groupContext="shape" transform="translate(3.73165,-14.8721)">
				<title>Лист.685</title>
				<path d="M0 23.26 L12.9 23.26 L12.9 24.74 L0 24.74 L0 23.26 Z" class="st1"/>
			</g>
			<g id="shape686-4" v:mID="686" v:groupContext="shape" transform="translate(3.73165,-10.9454)">
				<title>Лист.686</title>
				<path d="M0 23.26 L9.44 23.26 L9.44 24.74 L0 24.74 L0 23.26 Z" class="st1"/>
			</g>
			<g id="shape687-6" v:mID="687" v:groupContext="shape" transform="translate(3.73165,-7.16213)">
				<title>Лист.687</title>
				<path d="M0 23.26 L6.73 23.26 L6.73 24.74 L0 24.74 L0 23.26 Z" class="st1"/>
			</g>
			<g id="group688-8" v:mID="688" v:groupContext="group">
				<title>Лист.688</title>
				<g id="shape683-9" v:mID="683" v:groupContext="shape" transform="translate(11.6022,-2.18564)">
					<title>Лист.683</title>
					<path d="M0.68 24.74 L0.42 24.74 L0.21 24.55 C0 24.33 0.01 24.04 0.01 23.95 C0.07 22.27 0.83 14.05 9.55 13.69
								 L9.55 11.05 C9.54 10.9 9.54 10.56 9.78 10.29 C10.04 9.99 10.48 9.91 10.98 10.13 L11.09 10.18 L15.99
								 15.51 C16.09 15.62 16.51 16.14 16.51 16.75 C16.51 17.39 15.99 17.93 15.89 18.03 L10.99 23.67 C10.86
								 23.81 10.56 24.08 10.17 24.08 C9.86 24.08 9.59 23.92 9.45 23.63 C9.34 23.44 9.3 23.19 9.3 22.86
								 L9.3 19.66 C7.88 19.62 3.76 19.91 1.35 24.29 C1.19 24.58 0.95 24.74 0.68 24.74 ZM9.1 18.45 C9.63
								 18.45 9.97 18.49 9.99 18.5 L10.5 18.57 L10.5 22.39 L15.01 17.21 C15.17 17.05 15.3 16.83 15.3 16.75
								 C15.3 16.63 15.18 16.41 15.09 16.3 L10.75 11.59 L10.76 14.89 L10.15 14.89 C3.94 14.89 2.04 19.11
								 1.46 21.99 C4.06 18.83 7.56 18.45 9.1 18.45 Z" class="st1"/>
				</g>
				<g id="shape684-11" v:mID="684" v:groupContext="shape">
					<title>Лист.684</title>
					<path d="M19.21 23.12 C18.91 23.21 18.61 23.25 18.29 23.25 L4.66 23.25 C2.91 23.25 1.49 21.92 1.49 20.17 L1.49
								 5.89 C1.49 4.14 2.91 2.72 4.66 2.72 L18.28 2.72 C18.29 2.72 18.29 2.72 18.29 2.72 C18.33 2.72 18.38
								 2.72 18.42 2.72 C18.43 2.72 18.45 2.72 18.46 2.72 C18.5 2.72 18.54 2.73 18.58 2.73 C18.6 2.73 18.61
								 2.73 18.63 2.74 C18.66 2.74 18.69 2.74 18.72 2.75 C18.74 2.75 18.76 2.75 18.78 2.76 C18.81 2.76
								 18.83 2.76 18.85 2.77 C18.89 2.77 18.93 2.78 18.97 2.79 C18.98 2.79 19 2.8 19.01 2.8 C19.04 2.81
								 19.07 2.82 19.1 2.82 C19.11 2.82 19.11 2.82 19.12 2.83 C19.18 2.84 19.24 2.86 19.3 2.88 C19.3 2.88
								 19.3 2.88 19.3 2.88 C20 3.12 20.59 3.6 20.98 4.21 L20.98 4.21 C21.26 4.66 21.43 5.19 21.46 5.76
								 L22.95 5.76 L22.95 5.68 C22.95 5.17 22.86 4.67 22.7 4.21 L22.72 4.21 C22.13 2.51 20.53 1.28 18.63
								 1.23 C18.6 1.23 18.58 1.23 18.55 1.22 C18.54 1.22 18.52 1.22 18.51 1.22 L4.45 1.22 C1.99 1.22 0
								 3.22 0 5.68 L0 20.29 C0 22.75 1.99 24.74 4.45 24.74 L18.49 24.74 C19.88 24.74 21.11 24.11 21.93
								 23.13 L19.21 23.12 Z" class="st1"/>
				</g>
			</g>
		</g>
	</g>
</svg>
